<?xml version="1.0" standalone="no"?>
<!DOCTYPE svg PUBLIC "-//W3C//DTD SVG 1.1//EN" "http://www.w3.org/Graphics/SVG/1.1/DTD/svg11.dtd" >
<svg xmlns="http://www.w3.org/2000/svg" xmlns:xlink="http://www.w3.org/1999/xlink" version="1.1">
<metadata></metadata>
<defs>
<font id="gothic_a1regular" horiz-adv-x="1138" >
<font-face units-per-em="2048" ascent="1634" descent="-414" />
<missing-glyph horiz-adv-x="500" />
<glyph horiz-adv-x="0" />
<glyph horiz-adv-x="682" />
<glyph unicode=" "  horiz-adv-x="500" />
<glyph unicode="&#x09;" horiz-adv-x="500" />
<glyph unicode="&#xa0;" horiz-adv-x="500" />
<glyph unicode="!" horiz-adv-x="632" d="M190 -20v230h252v-230h-252zM388 416h-142l-18 1084h178z" />
<glyph unicode="&#x22;" horiz-adv-x="994" d="M546 1094l164 586h222l-260 -586h-126zM136 1094l164 586h222l-260 -586h-126z" />
<glyph unicode="#" horiz-adv-x="1444" d="M98 412v120h260l54 392h-250v118h266l54 406h140l-54 -406h396l54 406h140l-54 -406h244v-118h-260l-50 -392h246v-120h-262l-54 -408h-146l56 408h-392l-54 -408h-146l56 408h-244zM502 532h392l54 392h-396z" />
<glyph unicode="$" horiz-adv-x="1196" d="M126 274l120 60q60 -92 159 -147t199 -55q128 0 213 63t85 191q0 38 -10 71t-23 57t-43 49t-50 40t-68 39t-72 34t-86 35t-88 37q-148 64 -223 150t-75 228q0 132 97 239t267 125v168h146v-170q110 -6 209 -76t137 -156l-120 -58q-118 168 -300 168q-128 0 -203 -69 t-75 -173q0 -62 23 -108t84 -86t106 -60t151 -64q82 -32 137 -62t116 -78t92 -115t31 -151q0 -176 -110 -278t-278 -120v-156h-146v160q-116 8 -229 80t-173 188z" />
<glyph unicode="%" horiz-adv-x="1982" d="M1074 326q0 160 108 260t274 100t274 -100t108 -260q0 -162 -109 -262t-273 -100t-273 101t-109 261zM1222 326q0 -108 69 -173t165 -65t165 66t69 172q0 108 -67 172t-167 64q-98 0 -166 -64t-68 -172zM144 1174q0 160 108 260t274 100t274 -100t108 -260t-109 -260 t-273 -100t-273 100t-109 260zM292 1174q0 -108 69 -173t165 -65t165 66t69 172q0 108 -67 173t-167 65q-96 0 -165 -65t-69 -173zM372 0l1074 1498h162l-1076 -1498h-160z" />
<glyph unicode="&#x26;" horiz-adv-x="1306" d="M282 378q0 -130 85 -206t219 -76q182 0 330 178l-370 502q-118 -82 -191 -176t-73 -222zM122 376q0 296 342 512q-6 10 -20 28q-50 70 -71 104t-39 84t-18 106q0 128 97 218t271 90q266 0 390 -252l-122 -54q-36 70 -107 123t-151 53q-102 0 -160 -53t-58 -131 q0 -82 118 -258t402 -546q62 124 92 292l144 -26q-34 -216 -136 -392l210 -274h-184l-118 154q-176 -190 -424 -190q-218 0 -338 118t-120 294z" />
<glyph unicode="'" horiz-adv-x="614" d="M156 1094l164 586h222l-260 -586h-126z" />
<glyph unicode="(" horiz-adv-x="908" d="M306 718q0 578 348 1018l112 -62q-62 -96 -84 -132t-76 -143t-77 -189t-45 -215t-22 -277q0 -176 25 -323t79 -270t92 -190t108 -173l-112 -62q-154 200 -251 441t-97 577z" />
<glyph unicode=")" horiz-adv-x="908" d="M142 -238q150 220 227 436t77 520q0 172 -24 316t-76 266t-92 194t-112 180l112 62q348 -442 348 -1018q0 -332 -96 -574t-252 -444z" />
<glyph unicode="*" d="M48 850l56 128l404 -156l-16 400h152l-16 -400l404 156l56 -128l-420 -148l312 -346l-116 -86l-296 366l-296 -366l-116 86l312 346z" />
<glyph unicode="+" d="M56 674v136h436v430h152v-430h436v-136h-436v-446h-152v446h-436z" />
<glyph unicode="," horiz-adv-x="704" d="M100 -348l164 586h222l-260 -586h-126z" />
<glyph unicode="-" d="M96 674v136h944v-136h-944z" />
<glyph unicode="." horiz-adv-x="704" d="M226 0v238h252v-238h-252z" />
<glyph unicode="/" horiz-adv-x="688" d="M-26 -114l576 1706h164l-576 -1706h-164z" />
<glyph unicode="0" d="M264 748q0 -300 76 -476t232 -176q84 0 144 53t93 147t48 205t15 247q0 300 -75 478t-229 178q-152 0 -228 -176t-76 -480zM100 748q0 408 134 597t334 189q220 0 344 -202t124 -584q0 -228 -47 -400t-153 -278t-264 -106q-202 0 -337 194t-135 590z" />
<glyph unicode="1" d="M206 1146v122h60q172 0 234 52t62 150v46h136v-1536h-164v1166h-328z" />
<glyph unicode="2" d="M104 1160q44 174 159 274t301 100q192 0 314 -110t122 -304q0 -224 -232 -446q-268 -256 -338 -338q-90 -106 -126 -204h696v-132h-888q0 76 33 159t71 143t126 155t135 140t163 153q196 186 196 372q0 134 -75 208t-201 74q-124 0 -204 -76t-112 -206z" />
<glyph unicode="3" d="M76 258l132 52q112 -214 336 -214q140 0 234 82t94 238q0 146 -104 227t-252 81q-74 0 -120 -4v132q42 -4 112 -4q132 0 218 77t86 209q0 118 -77 194t-199 76q-192 0 -288 -228l-132 44q46 138 154 226t274 88q198 0 315 -110t117 -276q0 -130 -70 -222t-170 -130 q120 -32 210 -128t90 -252q0 -216 -135 -334t-357 -118q-174 0 -295 84t-173 210z" />
<glyph unicode="4" d="M48 466l690 1052h144v-1048h216v-132h-216v-358h-160v358h-674v128zM204 470h518v572q0 126 8 240h-8l-134 -216z" />
<glyph unicode="5" d="M96 242l132 50q44 -90 125 -143t179 -53q150 0 233 98t83 254q0 158 -90 257t-234 99q-164 0 -288 -134l-96 38l76 790h708v-132h-560l-56 -514q118 82 272 82q190 0 311 -131t121 -351q0 -204 -122 -346t-358 -142q-304 0 -436 278z" />
<glyph unicode="6" d="M276 466q0 -162 85 -266t223 -104q132 0 218 103t86 267q0 168 -87 271t-221 103q-130 0 -217 -108t-87 -266zM104 668q0 130 17 250t57 234t100 197t152 134t206 51q264 0 396 -268l-128 -46q-104 184 -268 184q-86 0 -152 -45t-105 -122t-61 -153t-34 -164 q-12 -80 -20 -180q40 104 131 168t209 64q196 0 320 -144t124 -360t-123 -360t-333 -144q-222 0 -352 158q-136 164 -136 546z" />
<glyph unicode="7" d="M84 1362v136h924v-110q-394 -646 -564 -1408h-164q82 396 217 721t327 661h-740z" />
<glyph unicode="8" d="M296 1132q0 -122 79 -196t193 -74q116 0 194 76t78 194t-77 195t-195 77q-122 0 -197 -79t-75 -193zM84 400q0 160 84 260t204 140q-240 100 -240 340q0 166 123 280t313 114q186 0 311 -112t125 -282q0 -132 -70 -218t-170 -122q124 -38 208 -140t84 -262 q0 -190 -137 -312t-351 -122q-206 0 -345 118t-139 318zM248 408q0 -136 91 -224t229 -88t231 89t93 223q0 136 -94 230t-230 94q-134 0 -227 -92t-93 -232z" />
<glyph unicode="9" d="M244 1034q0 -166 91 -268t213 -102q128 0 216 105t88 263q0 156 -85 264t-219 108q-128 0 -216 -103t-88 -267zM96 240l132 46q42 -84 115 -137t165 -53q98 0 169 52t110 146t57 204t20 244q-38 -84 -126 -146t-210 -62q-182 0 -313 135t-131 363q0 222 133 362t331 140 q170 0 287 -109t157 -281q28 -124 28 -320q0 -194 -28 -347t-88 -270t-161 -180t-239 -63q-146 0 -253 83t-155 193z" />
<glyph unicode=":" horiz-adv-x="704" d="M226 168v238h252v-238h-252zM226 960v238h252v-238h-252z" />
<glyph unicode=";" horiz-adv-x="704" d="M100 -180l164 586h222l-260 -586h-126zM226 960v238h252v-238h-252z" />
<glyph unicode="&#x3c;" d="M108 654v142l844 628l84 -116l-776 -584l776 -584l-84 -116z" />
<glyph unicode="=" d="M96 476v136h944v-136h-944zM96 872v136h944v-136h-944z" />
<glyph unicode="&#x3e;" d="M184 24l-80 116l772 584l-772 584l80 116l848 -628v-142z" />
<glyph unicode="?" horiz-adv-x="1128" d="M128 1208q52 148 168 237t268 89q190 0 303 -110t113 -294q0 -92 -37 -166t-90 -126t-106 -102t-90 -121t-37 -159v-54h-160v64q0 98 37 177t89 133t104 103t89 114t37 141q0 120 -67 193t-183 73q-200 0 -298 -240zM414 -20v230h252v-230h-252z" />
<glyph unicode="@" horiz-adv-x="1926" d="M118 704q0 374 247 611t641 237q356 0 579 -207t223 -535q0 -150 -35 -265t-93 -179t-122 -96t-134 -32q-90 0 -157 63t-73 157h-2q-32 -82 -117 -150t-197 -68q-144 0 -240 108t-96 288q0 240 125 378t299 138q92 0 151 -41t85 -89l8 112h122l-28 -574q-4 -98 32 -150 t98 -52q104 0 170 117t66 325q0 284 -180 460t-486 176q-326 0 -536 -203t-210 -529q0 -338 201 -534t521 -196q236 0 446 62l26 -108q-214 -70 -472 -70q-392 0 -627 236t-235 610zM688 638q0 -120 57 -196t149 -76q46 0 91 21t91 67t74 139t28 219q0 90 -51 156t-155 66 q-108 0 -196 -107t-88 -289z" />
<glyph unicode="A" horiz-adv-x="1300" d="M368 560h564l-176 504q-16 46 -51 147t-49 141h-12q-84 -246 -98 -288zM-8 0l560 1498h196l560 -1498h-176l-152 432h-660l-152 -432h-176z" />
<glyph unicode="B" horiz-adv-x="1360" d="M208 0v1498h552q218 0 331 -104t113 -280q0 -120 -61 -203t-155 -125q114 -34 193 -132t79 -236q0 -172 -113 -295t-315 -123h-624zM368 136h424q130 0 217 75t87 205q0 124 -85 206t-227 82h-416v-568zM368 838h364q134 0 221 66t87 198q0 116 -71 188t-229 72h-372 v-524z" />
<glyph unicode="C" horiz-adv-x="1324" d="M104 748q0 366 178 576t462 210q176 0 299 -97t185 -231l-136 -48q-134 240 -352 240q-216 0 -344 -177t-128 -473q0 -300 130 -473t342 -173q134 0 234 75t150 185l144 -46q-68 -146 -198 -249t-326 -103q-282 0 -461 209t-179 575z" />
<glyph unicode="D" horiz-adv-x="1402" d="M208 0v1498h404q324 0 510 -191t186 -559q0 -350 -180 -549t-520 -199h-400zM368 136h216q260 0 410 147t150 465q0 322 -150 468t-406 146h-220v-1226z" />
<glyph unicode="E" horiz-adv-x="1240" d="M208 0v1498h936v-136h-776v-520h700v-134h-700v-572h792v-136h-952z" />
<glyph unicode="F" horiz-adv-x="1144" d="M208 0v1498h908v-136h-748v-540h672v-134h-672v-688h-160z" />
<glyph unicode="G" horiz-adv-x="1452" d="M104 748q0 348 175 567t477 219q102 0 190 -31t147 -83t98 -101t65 -103l-136 -48q-142 230 -364 230q-230 0 -359 -179t-129 -471q0 -304 132 -475t348 -171q196 0 302 128t106 302v140h-424v136h580v-808h-116l-12 220q-118 -256 -440 -256q-286 0 -463 210t-177 574z " />
<glyph unicode="H" horiz-adv-x="1472" d="M208 0v1498h160v-660h736v660h160v-1498h-160v704h-736v-704h-160z" />
<glyph unicode="I" horiz-adv-x="574" d="M208 0v1498h160v-1498h-160z" />
<glyph unicode="J" horiz-adv-x="1012" d="M24 240l144 54q28 -90 91 -141t149 -51q236 0 236 334v1062h160v-1088q0 -220 -101 -333t-291 -113q-298 0 -388 276z" />
<glyph unicode="K" horiz-adv-x="1298" d="M208 0v1498h160v-792h4l680 792h212l-568 -648l600 -850h-200l-504 734l-224 -256v-478h-160z" />
<glyph unicode="L" horiz-adv-x="1096" d="M208 0v1498h160v-1362h712v-136h-872z" />
<glyph unicode="M" horiz-adv-x="1786" d="M208 0v1498h208l328 -806q32 -84 87 -229t57 -151h8q12 30 146 380l326 806h212v-1498h-160v846q0 162 20 454h-8l-76 -200l-392 -988h-140l-392 988l-80 200h-8q24 -322 24 -454v-846h-160z" />
<glyph unicode="N" horiz-adv-x="1480" d="M208 0v1498h184l552 -956l180 -316h12q-24 186 -24 424v848h160v-1498h-184l-554 962l-178 308h-8q20 -200 20 -422v-848h-160z" />
<glyph unicode="O" horiz-adv-x="1452" d="M104 748q0 352 170 569t454 217q286 0 453 -216t167 -572q0 -360 -169 -571t-451 -211q-284 0 -454 213t-170 571zM268 748q0 -296 124 -471t336 -175q208 0 332 172t124 472q0 296 -120 474t-336 178q-212 0 -336 -176t-124 -474z" />
<glyph unicode="P" horiz-adv-x="1324" d="M208 0v1498h564q218 0 345 -120t127 -318q0 -204 -130 -322t-342 -118h-404v-620h-160zM368 754h380q158 0 245 77t87 229q0 148 -87 225t-249 77h-376v-608z" />
<glyph unicode="Q" horiz-adv-x="1452" d="M104 746q0 358 171 573t453 215q284 0 452 -216t168 -572q0 -352 -166 -567t-454 -215q-286 0 -455 215t-169 567zM268 746q0 -296 125 -470t335 -174t333 173t123 471q0 308 -124 480t-332 172q-210 0 -335 -175t-125 -477zM696 456l104 94l548 -560l-104 -92z" />
<glyph unicode="R" horiz-adv-x="1352" d="M368 784h404q150 0 231 80t81 212q0 128 -85 207t-243 79h-388v-578zM208 0v1498h584q220 0 338 -119t118 -293q0 -158 -80 -256t-176 -124q84 -44 122 -108t62 -178q26 -112 37 -153t40 -117t71 -150h-180q-34 64 -61 137t-39 120t-36 151q-26 112 -79 176t-169 64h-392 v-648h-160z" />
<glyph unicode="S" horiz-adv-x="1242" d="M80 282l148 52q134 -232 416 -232q156 0 254 76t98 208q0 66 -28 117t-89 89t-113 60t-142 52l-102 34t-95 36t-96 46t-77 55t-67 71t-38 87t-17 109q0 178 136 285t364 107q174 0 303 -80t185 -200l-136 -48q-118 192 -356 192q-156 0 -244 -70t-88 -186q0 -52 24 -97 t53 -72t94 -58t102 -44t121 -41q20 -6 30 -10q98 -32 164 -62t136 -80t105 -121t35 -165q0 -202 -141 -315t-379 -113q-204 0 -346 86t-214 232z" />
<glyph unicode="T" horiz-adv-x="1116" d="M24 1362v136h1072v-136h-456v-1362h-160v1362h-456z" />
<glyph unicode="U" horiz-adv-x="1466" d="M204 542v956h160v-952q0 -224 103 -334t265 -110q166 0 269 113t103 331v952h160v-956q0 -272 -138 -425t-394 -153q-250 0 -389 150t-139 428z" />
<glyph unicode="V" horiz-adv-x="1194" d="M-4 1498h176l326 -1030q16 -52 46 -151t48 -159h8q18 62 48 159t46 151l330 1030h176l-504 -1498h-196z" />
<glyph unicode="W" horiz-adv-x="1734" d="M22 1498h176l212 -1012q38 -214 52 -306h12q50 240 64 306l242 1012h172l246 -1012q28 -126 64 -306h8q2 20 54 306l214 1012h176l-352 -1498h-188l-242 1000q-54 262 -60 294h-8q-10 -54 -34 -160t-30 -134l-238 -1000h-188z" />
<glyph unicode="X" horiz-adv-x="1178" d="M-4 0l492 770l-468 728h200l220 -362q28 -46 81 -136t63 -108h8q26 46 77 129t71 115l220 362h200l-472 -728l496 -770h-196l-236 376q-28 46 -86 143t-74 123h-8q-82 -142 -158 -266l-234 -376h-196z" />
<glyph unicode="Y" horiz-adv-x="1206" d="M-8 1498h192l258 -458q90 -160 158 -282h4q30 54 92 162t68 120l256 458h192l-528 -882v-616h-160v616z" />
<glyph unicode="Z" horiz-adv-x="1240" d="M92 118l844 1244h-780v136h976v-120l-848 -1242h868v-136h-1060v118z" />
<glyph unicode="[" horiz-adv-x="908" d="M300 -260v1956h420v-128h-264v-1702h264v-126h-420z" />
<glyph unicode="\" horiz-adv-x="652" d="M-26 1592h160l548 -1706h-160z" />
<glyph unicode="]" horiz-adv-x="908" d="M188 -134h264v1702h-264v128h420v-1956h-420v126z" />
<glyph unicode="^" horiz-adv-x="1014" d="M32 972l400 674h150l400 -674h-162l-242 426l-70 124l-2 -2l-72 -124l-240 -424h-162z" />
<glyph unicode="_" horiz-adv-x="918" d="M12 -34h898v-126h-898v126z" />
<glyph unicode="`" horiz-adv-x="614" d="M332 1094l-260 586h222l164 -586h-126z" />
<glyph unicode="a" horiz-adv-x="1126" d="M240 276q0 -76 64 -129t176 -53q142 0 243 92t101 234v150q-88 -22 -280 -52q-156 -28 -230 -86t-74 -156zM84 264q0 300 464 372q208 34 276 56v62q0 100 -72 166t-204 66q-96 0 -185 -45t-151 -121l-100 84q80 92 193 150t239 58q432 0 432 -422v-690h-148v176 q-32 -86 -132 -149t-236 -63q-178 0 -277 84t-99 216z" />
<glyph unicode="b" horiz-adv-x="1192" d="M172 0v1554h152v-670q28 84 118 156t210 72q200 0 326 -153t126 -419q0 -148 -41 -263t-108 -181t-144 -99t-159 -33q-114 0 -202 67t-126 161v-192h-152zM320 540q0 -204 91 -325t221 -121q138 0 227 119t89 327q0 202 -88 322t-228 120q-130 0 -221 -120t-91 -322z" />
<glyph unicode="c" horiz-adv-x="1028" d="M88 538q0 256 130 415t350 159q144 0 247 -83t137 -197l-132 -38q-30 80 -97 134t-155 54q-148 0 -236 -126t-88 -318q0 -204 92 -324t232 -120q94 0 171 61t109 141l132 -42q-42 -120 -153 -205t-259 -85q-214 0 -347 156t-133 418z" />
<glyph unicode="d" horiz-adv-x="1192" d="M88 540q0 266 128 419t324 153q118 0 205 -68t123 -156v666h152v-1554h-148v194q-42 -100 -129 -165t-203 -65q-82 0 -159 33t-144 98t-108 180t-41 265zM244 540q0 -202 88 -324t228 -122q130 0 221 121t91 325q0 202 -91 322t-221 120q-142 0 -229 -121t-87 -321z" />
<glyph unicode="e" horiz-adv-x="1132" d="M88 546q0 252 136 409t352 157q220 0 346 -153t126 -391q0 -28 -4 -80h-800q0 -162 90 -278t250 -116q104 0 184 49t124 131l132 -40q-50 -118 -162 -194t-278 -76q-224 0 -360 160t-136 422zM248 606h644q0 158 -86 267t-230 109q-146 0 -235 -112t-93 -264z" />
<glyph unicode="f" horiz-adv-x="684" d="M48 946v130h184v166q0 158 80 235t220 77h140v-128h-120q-164 0 -164 -200v-150h256v-130h-256v-946h-156v946h-184z" />
<glyph unicode="g" horiz-adv-x="1166" d="M244 558q0 -190 84 -307t220 -117q138 0 219 112t81 314q0 196 -83 309t-213 113q-140 0 -224 -119t-84 -305zM88 556q0 250 124 403t320 153q124 0 203 -64t113 -148v176h152v-950q0 -306 -109 -455t-347 -149q-258 0 -400 196l108 70q124 -140 296 -140q142 0 221 111 t79 297v154q-42 -90 -121 -148t-191 -58q-204 0 -326 155t-122 397z" />
<glyph unicode="h" horiz-adv-x="1158" d="M172 0v1554h152v-652h4q40 86 129 148t203 62q348 0 348 -416v-696h-152v670q0 312 -224 312q-124 0 -216 -102t-92 -242v-638h-152z" />
<glyph unicode="i" horiz-adv-x="550" d="M176 1318v202h196v-202h-196zM200 0v1076h152v-1076h-152z" />
<glyph unicode="j" horiz-adv-x="560" d="M184 1318v202h200v-202h-200zM-20 -326h48q180 0 180 248v1154h152v-1162q0 -182 -80 -276t-228 -94h-72v130z" />
<glyph unicode="k" horiz-adv-x="1036" d="M176 0v1554h156v-1018l468 540h204l-384 -430l428 -646h-188l-340 538l-188 -210v-328h-156z" />
<glyph unicode="l" horiz-adv-x="520" d="M184 0v1554h152v-1554h-152z" />
<glyph unicode="m" horiz-adv-x="1700" d="M160 0v1076h152v-162q28 74 106 136t198 62q118 0 180 -67t96 -173q10 26 32 60t62 78t107 73t147 29q312 0 312 -416v-696h-156v684q0 148 -40 223t-152 75q-116 0 -194 -97t-78 -245v-640h-152v686q0 296 -196 296q-122 0 -195 -92t-73 -240v-650h-156z" />
<glyph unicode="n" horiz-adv-x="1148" d="M160 0v1076h152v-184h2q24 80 118 150t224 70q150 0 247 -94t97 -322v-696h-156v670q0 312 -224 312q-124 0 -214 -100t-90 -240v-642h-156z" />
<glyph unicode="o" horiz-adv-x="1144" d="M244 538q0 -204 94 -324t234 -120q138 0 233 120t95 324q0 208 -96 326t-232 118q-138 0 -233 -118t-95 -326zM88 538q0 246 127 410t357 164q228 0 356 -164t128 -410q0 -104 -27 -202t-82 -183t-152 -137t-223 -52q-124 0 -221 51t-152 136t-83 183t-28 204z" />
<glyph unicode="p" horiz-adv-x="1192" d="M324 540q0 -200 82 -323t226 -123q136 0 226 120t90 326q0 194 -85 318t-231 124q-136 0 -222 -125t-86 -317zM172 -470v1546h148v-194q46 104 133 167t199 63q196 0 324 -156t128 -416q0 -278 -134 -427t-318 -149q-120 0 -204 63t-124 159v-656h-152z" />
<glyph unicode="q" horiz-adv-x="1188" d="M244 540q0 -204 89 -325t227 -121q140 0 224 123t84 323q0 196 -86 319t-222 123q-150 0 -233 -124t-83 -318zM88 540q0 262 127 417t325 155q110 0 197 -62t135 -168v194h148v-1546h-152v656q-40 -96 -126 -159t-202 -63q-184 0 -318 149t-134 427z" />
<glyph unicode="r" horiz-adv-x="750" d="M160 0v1076h148v-156q32 72 106 132t190 60q86 0 152 -28v-140q-72 28 -152 28q-136 0 -212 -102t-76 -270v-600h-156z" />
<glyph unicode="s" horiz-adv-x="1002" d="M72 212l116 68q118 -186 320 -186q122 0 195 44t73 128q0 36 -18 65t-39 48t-75 42t-89 34t-115 37q-70 22 -120 44t-104 59t-83 91t-29 124q0 134 108 218t296 84q132 0 242 -70t158 -164l-104 -68q-42 70 -121 121t-175 51q-122 0 -185 -47t-63 -127q0 -46 24 -83 t73 -64t90 -42t109 -37q58 -18 103 -34t99 -44t90 -59t60 -78t24 -101q0 -128 -113 -215t-311 -87q-144 0 -256 65t-180 183z" />
<glyph unicode="t" horiz-adv-x="730" d="M40 946v130h188v344h156v-344h284v-130h-284v-630q0 -100 38 -142t122 -42h124v-132h-144q-296 0 -296 302v644h-188z" />
<glyph unicode="u" horiz-adv-x="1142" d="M148 378v698h156v-666q0 -316 232 -316q142 0 217 110t75 260v612h152v-1076h-148v174q-16 -66 -99 -138t-233 -72q-154 0 -253 105t-99 309z" />
<glyph unicode="v" horiz-adv-x="1012" d="M16 1076h172l232 -674q16 -50 44 -140t40 -128h4q14 46 44 134t44 134l228 674h172l-396 -1076h-188z" />
<glyph unicode="w" horiz-adv-x="1458" d="M16 1076h172l158 -668q50 -230 58 -266h8q10 48 32 138t30 128l164 668h184l166 -676q8 -34 28 -118t32 -140h8q6 24 58 266l158 668h172l-296 -1076h-194l-162 648q-54 244 -58 264h-8q-48 -226 -58 -264l-162 -648h-194z" />
<glyph unicode="x" horiz-adv-x="982" d="M8 0l388 558l-368 518h184l188 -278q16 -26 44 -69t40 -59h8q12 22 41 66t41 62l186 278h184l-364 -518l388 -558h-184l-210 320q-52 74 -82 122h-8q-10 -18 -80 -122l-212 -320h-184z" />
<glyph unicode="y" horiz-adv-x="1006" d="M16 1076h180l222 -630q50 -140 90 -272h8q30 98 88 272l212 630h176l-464 -1256q-60 -160 -139 -225t-193 -65h-60v128h36q76 0 129 44t95 158l40 126z" />
<glyph unicode="z" horiz-adv-x="972" d="M64 0v104l628 842h-572v130h772v-98l-632 -848h648v-130h-844z" />
<glyph unicode="{" horiz-adv-x="908" d="M134 650v120h56q148 0 148 274v390q0 124 68 193t172 69h158v-128h-132q-48 0 -80 -40t-32 -114v-396q0 -128 -39 -195t-111 -113q150 -78 150 -282v-394q0 -84 32 -126t84 -42h128v-126h-158q-102 0 -171 64t-69 194v404q0 118 -42 183t-106 65h-56z" />
<glyph unicode="|" horiz-adv-x="546" d="M196 -338v2104h156v-2104h-156z" />
<glyph unicode="}" horiz-adv-x="908" d="M172 -134h128q52 0 84 42t32 126v394q0 204 150 282q-72 46 -111 113t-39 195v396q0 74 -31 114t-81 40h-132v128h158q104 0 172 -69t68 -193v-390q0 -274 148 -274h56v-120h-56q-66 0 -107 -66t-41 -182v-404q0 -130 -69 -194t-171 -64h-158v126z" />
<glyph unicode="~" horiz-adv-x="1546" d="M140 628q134 288 388 288q78 0 151 -41t119 -90t106 -90t116 -41q30 0 58 7t48 17t40 29t32 32t27 38t21 36t18 37t14 30l128 -64q-142 -290 -382 -290q-82 0 -156 41t-120 90t-105 90t-115 41q-152 0 -260 -226z" />
<glyph unicode="&#xa2;" horiz-adv-x="1026" d="M88 538q0 226 109 387t301 181v158h142v-158q122 -22 201 -99t109 -173l-128 -40q-34 78 -98 133t-150 55q-154 0 -242 -125t-88 -319q0 -200 90 -322t238 -122q90 0 165 60t109 142l132 -42q-38 -102 -124 -180t-214 -104v-166h-142v166q-182 18 -296 172t-114 396z" />
<glyph unicode="&#xa3;" horiz-adv-x="1190" d="M78 676v136h222v348q0 178 113 276t303 98q130 0 226 -65t140 -153l-108 -68q-40 62 -108 106t-148 44q-118 0 -189 -64t-71 -188v-334h460v-136h-460v-246q0 -210 -98 -288q110 20 178 20q60 0 160 -31t168 -31q144 0 256 64l48 -128q-144 -72 -308 -72q-64 0 -187 33 t-185 33q-68 0 -160 -14t-150 -28l-56 -14l-44 116q110 28 165 118t55 214v254h-222z" />
<glyph unicode="&#xa5;" horiz-adv-x="1204" d="M-8 1498h192l248 -378q110 -172 168 -272h4q102 164 166 272l250 378h192l-450 -674h314v-116h-394v-234h394v-116h-394v-358h-160v358h-396v116h396v234h-396v116h316z" />
<glyph unicode="&#xa8;" horiz-adv-x="972" d="M202 1294v204h204v-204h-204zM568 1294v204h202v-204h-202z" />
<glyph unicode="&#xa9;" horiz-adv-x="1784" d="M514 758q0 216 110 349t296 133q214 0 320 -230l-118 -40q-82 146 -204 146t-193 -98t-71 -260q0 -166 71 -263t193 -97q76 0 135 46t87 114l124 -38q-36 -98 -126 -171t-220 -73q-180 0 -292 131t-112 351zM96 760q0 354 227 578t569 224q346 0 572 -225t226 -577 q0 -346 -225 -573t-573 -227q-342 0 -569 224t-227 576zM212 760q0 -300 188 -496t492 -196q300 0 491 193t191 499q0 302 -191 498t-491 196q-298 0 -489 -194t-191 -500z" />
<glyph unicode="&#xab;" horiz-adv-x="942" d="M78 508l324 458l114 -76l-268 -382l266 -380l-112 -78zM436 508l324 444l110 -82l-264 -362l264 -364l-110 -80z" />
<glyph unicode="&#xad;" d="M96 674v136h944v-136h-944z" />
<glyph unicode="&#xae;" horiz-adv-x="1784" d="M610 298v914h354q132 0 203 -74t71 -184q0 -162 -140 -224q70 -46 96 -172q26 -124 96 -260h-150q-48 86 -82 246q-8 44 -17 68t-35 47t-66 23h-194v-384h-136zM746 794h196q74 0 117 40t43 110q0 62 -41 103t-119 41h-196v-294zM96 762q0 354 227 577t569 223 q346 0 572 -224t226 -576q0 -346 -224 -574t-574 -228q-342 0 -569 224t-227 578zM212 762q0 -302 188 -498t492 -196q300 0 491 196t191 498q0 304 -192 498t-490 194t-489 -193t-191 -499z" />
<glyph unicode="&#xb4;" horiz-adv-x="680" d="M146 1330l226 350h202l-292 -350h-136z" />
<glyph unicode="&#xb8;" horiz-adv-x="604" d="M90 -338q84 -20 130 -20q138 0 138 86q0 88 -194 106l94 194h138l-58 -120q164 -42 164 -182q0 -88 -65 -143t-205 -55q-82 0 -142 20v114z" />
<glyph unicode="&#xbb;" horiz-adv-x="940" d="M72 870l112 82l322 -444l-322 -444l-110 80l264 364zM428 130l266 378l-268 382l116 76l322 -458l-322 -458z" />
<glyph unicode="&#xc6;" horiz-adv-x="1910" d="M490 560h476v788h-18zM-8 0l874 1498h946v-136h-688v-520h614v-134h-622v-572h714v-136h-864v432h-552l-244 -432h-178z" />
<glyph unicode="&#xe6;" horiz-adv-x="1848" d="M84 266q0 300 462 370q240 42 278 56q0 8 -1 32t-1 30q0 94 -69 163t-195 69q-208 0 -348 -166l-100 84q80 94 196 151t252 57q278 0 368 -230q54 106 152 168t224 62q210 0 336 -154t126 -390v-80h-784v-42q14 -142 97 -247t227 -105q106 0 185 52t119 128l132 -40 q-56 -122 -166 -196t-272 -74q-142 0 -246 75t-162 203q-138 -278 -434 -278q-174 0 -275 82t-101 220zM240 276q0 -78 63 -130t173 -52q144 0 245 92t101 236v148q-72 -18 -270 -50q-312 -50 -312 -244zM980 606h628q0 158 -86 267t-220 109q-132 0 -215 -99t-103 -243z " />
<glyph unicode="&#x131;" horiz-adv-x="506" d="M176 0v1076h154v-1076h-154z" />
<glyph unicode="&#x182;" horiz-adv-x="1336" d="M368 136h398q140 0 229 73t89 211q0 128 -90 210t-236 82h-390v-576zM208 0v1498h868v-136h-708v-516h406q218 0 346 -119t128 -307q0 -182 -124 -301t-332 -119h-584z" />
<glyph unicode="&#x18f;" horiz-adv-x="1428" d="M96 694q0 86 2 120h1062q-12 270 -132 427t-340 157q-256 0 -410 -230l-136 56q78 148 221 229t327 81q316 0 477 -218t161 -570q0 -366 -177 -574t-455 -208q-198 0 -337 105t-201 266t-62 359zM262 676q0 -10 1 -25t1 -21q4 -100 27 -187t71 -168t135 -128t203 -47 q82 0 159 32t146 97t112 181t45 266h-900z" />
<glyph unicode="&#x1dd;" horiz-adv-x="1130" d="M84 508q0 54 2 80h800q0 160 -90 277t-250 117q-108 0 -187 -51t-119 -129l-130 40q52 116 160 193t278 77q230 0 362 -162t132 -420q0 -254 -136 -410t-350 -156q-216 0 -344 152t-128 392zM240 470q0 -158 85 -267t231 -109q142 0 231 109t99 267h-646z" />
<glyph unicode="&#x25c;" horiz-adv-x="958" d="M48 180l118 60q40 -58 117 -102t161 -44q116 0 193 53t77 145q0 88 -73 151t-233 63h-88v116h88q136 0 200 53t64 133t-56 127t-166 47q-76 0 -140 -40t-104 -102l-126 56q128 216 372 216q176 0 276 -83t100 -213q0 -174 -186 -244l2 -2q94 -28 160 -100t66 -180 q0 -154 -117 -240t-305 -86q-128 0 -235 59t-165 157z" />
<glyph unicode="&#x2c6;" horiz-adv-x="948" d="M132 1402l264 304h148l268 -304h-164l-178 214l-174 -214h-164z" />
<glyph unicode="&#x2da;" horiz-adv-x="964" d="M198 1522q0 112 80 191t204 79t204 -80t80 -190q0 -112 -81 -192t-203 -80q-120 0 -202 79t-82 193zM314 1522q0 -70 46 -118t122 -48q74 0 120 47t46 119q0 68 -45 117t-121 49q-78 0 -123 -49t-45 -117z" />
<glyph unicode="&#x2dc;" horiz-adv-x="982" d="M90 1524q86 166 242 166q72 0 163 -61t137 -61q50 0 97 33t73 85l90 -68q-94 -168 -256 -168q-72 0 -164 61t-134 61q-96 0 -156 -116z" />
<glyph unicode="&#x393;" horiz-adv-x="1172" d="M208 0v1498h884v-138h-724v-1360h-160z" />
<glyph unicode="&#x400;" horiz-adv-x="1240" d="M208 0v1498h936v-136h-776v-520h700v-134h-700v-572h792v-136h-952zM390 2014h202l226 -350h-138z" />
<glyph unicode="&#x401;" horiz-adv-x="1240" d="M208 0v1498h936v-136h-776v-520h700v-134h-700v-572h792v-136h-952zM352 1730v194h204v-194h-204zM774 1730v194h202v-194h-202z" />
<glyph unicode="&#x402;" horiz-adv-x="1446" d="M24 1362v136h1016v-136h-448v-556q150 90 314 90q218 0 335 -127t117 -337q0 -216 -121 -342t-313 -126q-102 0 -182 10v138q74 -12 172 -12q114 0 198 85t84 245q0 134 -72 232t-220 98q-160 0 -312 -98v-662h-160v1362h-408z" />
<glyph unicode="&#x403;" horiz-adv-x="1172" d="M208 0v1498h884v-138h-724v-1360h-160zM542 1664l226 350h202l-292 -350h-136z" />
<glyph unicode="&#x404;" horiz-adv-x="1316" d="M104 748q0 366 178 576t462 210q176 0 300 -97t186 -231l-136 -48q-134 240 -352 240q-204 0 -330 -157t-142 -425h706v-128h-706q14 -272 143 -429t329 -157q134 0 234 75t150 185l144 -46q-66 -144 -198 -248t-328 -104q-282 0 -461 209t-179 575z" />
<glyph unicode="&#x405;" horiz-adv-x="1242" d="M80 282l148 52q134 -232 416 -232q156 0 254 76t98 208q0 66 -28 117t-89 89t-113 60t-142 52l-102 34t-95 36t-96 46t-77 55t-67 71t-38 87t-17 109q0 178 136 285t364 107q174 0 303 -80t185 -200l-136 -48q-118 192 -356 192q-156 0 -244 -70t-88 -186q0 -52 24 -97 t53 -72t94 -58t102 -44t121 -41q20 -6 30 -10q98 -32 164 -62t136 -80t105 -121t35 -165q0 -202 -141 -315t-379 -113q-204 0 -346 86t-214 232z" />
<glyph unicode="&#x406;" horiz-adv-x="574" d="M208 0v1498h160v-1498h-160z" />
<glyph unicode="&#x407;" horiz-adv-x="574" d="M208 0v1498h160v-1498h-160zM-26 1730v194h204v-194h-204zM396 1730v194h202v-194h-202z" />
<glyph unicode="&#x408;" horiz-adv-x="1012" d="M24 240l144 54q28 -90 91 -141t149 -51q236 0 236 334v1062h160v-1088q0 -220 -101 -333t-291 -113q-298 0 -388 276z" />
<glyph unicode="&#x409;" horiz-adv-x="2124" d="M28 110q60 -10 130 -10q124 0 191 167t107 581l62 650h766v-658h246q244 0 375 -106t131 -314q0 -184 -124 -302t-318 -118h-470v1360h-462l-50 -538q-46 -482 -145 -670t-303 -188q-8 0 -136 8v138zM1284 136h284q142 0 224 77t82 205q0 126 -74 207t-246 81h-270v-570z " />
<glyph unicode="&#x40a;" horiz-adv-x="2048" d="M208 0v1498h158v-660h682v660h158v-658h238q516 0 516 -420q0 -184 -125 -302t-321 -118h-466v704h-682v-704h-158zM1206 136h288q138 0 220 79t82 207q0 282 -322 282h-268v-568z" />
<glyph unicode="&#x40b;" horiz-adv-x="1580" d="M24 1360v138h1044v-138h-440v-612h2q154 204 382 204q198 0 309 -126t111 -336v-490h-162v496q0 140 -69 230t-213 90q-130 0 -245 -116t-115 -236v-464h-162v1360h-442z" />
<glyph unicode="&#x40c;" horiz-adv-x="1298" d="M208 0v1498h160v-792h4l680 792h212l-568 -648l600 -850h-200l-504 734l-224 -256v-478h-160zM524 1664l226 350h202l-292 -350h-136z" />
<glyph unicode="&#x40d;" horiz-adv-x="1482" d="M208 1498h160v-962q0 -154 -10 -290h8l106 188l626 1064h176v-1498h-160v960q0 150 12 290h-10l-102 -178l-630 -1072h-176v1498zM464 2014h202l226 -350h-138z" />
<glyph unicode="&#x40e;" horiz-adv-x="1100" d="M224 1958h122q4 -80 62 -136t142 -56q86 0 144 57t62 135h122q-6 -118 -89 -206t-239 -88t-238 88t-88 206zM-8 1498h168l282 -630q12 -28 51 -116t61 -136h4q16 42 106 244l278 638h164l-528 -1190q-76 -172 -160 -252t-204 -80h-72v136h46q84 0 133 49t107 181l46 108z " />
<glyph unicode="&#x40f;" horiz-adv-x="1474" d="M208 0v1498h160v-1362h738v1362h160v-1498h-444v-406h-158v406h-456z" />
<glyph unicode="&#x410;" horiz-adv-x="1300" d="M368 560h564l-176 504q-16 46 -51 147t-49 141h-12q-84 -246 -98 -288zM-8 0l560 1498h196l560 -1498h-176l-152 432h-660l-152 -432h-176z" />
<glyph unicode="&#x411;" horiz-adv-x="1336" d="M368 136h398q140 0 229 73t89 211q0 128 -90 210t-236 82h-390v-576zM208 0v1498h868v-136h-708v-516h406q218 0 346 -119t128 -307q0 -182 -124 -301t-332 -119h-584z" />
<glyph unicode="&#x412;" horiz-adv-x="1360" d="M208 0v1498h552q218 0 331 -104t113 -280q0 -120 -61 -203t-155 -125q114 -34 193 -132t79 -236q0 -172 -113 -295t-315 -123h-624zM368 136h424q130 0 217 75t87 205q0 124 -85 206t-227 82h-416v-568zM368 838h364q134 0 221 66t87 198q0 116 -71 188t-229 72h-372 v-524z" />
<glyph unicode="&#x413;" horiz-adv-x="1172" d="M208 0v1498h884v-138h-724v-1360h-160z" />
<glyph unicode="&#x414;" horiz-adv-x="1488" d="M64 136h100q154 286 254 641t120 721h732v-1362h156v-542h-158v406h-1046v-406h-158v542zM332 136h780v1226h-426q-68 -704 -354 -1226z" />
<glyph unicode="&#x415;" horiz-adv-x="1240" d="M208 0v1498h936v-136h-776v-520h700v-134h-700v-572h792v-136h-952z" />
<glyph unicode="&#x416;" horiz-adv-x="1642" d="M-8 0l636 794l-606 704h212l506 -618v618h160v-618l506 618h212l-604 -704l638 -794h-214l-538 698v-698h-160v698l-536 -698h-212z" />
<glyph unicode="&#x417;" horiz-adv-x="1236" d="M90 258l128 52q56 -92 159 -153t215 -61q152 0 266 82t114 234q0 148 -119 230t-285 82q-84 0 -130 -4v132q42 -4 124 -4q146 0 249 79t103 211q0 116 -88 191t-228 75q-228 0 -332 -226l-140 46q136 310 478 310q216 0 344 -108t128 -274q0 -130 -76 -223t-180 -133 q122 -32 219 -129t97 -251q0 -214 -156 -333t-386 -119q-180 0 -312 84t-192 210z" />
<glyph unicode="&#x418;" horiz-adv-x="1482" d="M208 1498h160v-962q0 -154 -10 -290h8l106 188l626 1064h176v-1498h-160v960q0 150 12 290h-10l-102 -178l-630 -1072h-176v1498z" />
<glyph unicode="&#x419;" horiz-adv-x="1482" d="M208 1498h160v-962q0 -154 -10 -290h8l106 188l626 1064h176v-1498h-160v960q0 150 12 290h-10l-102 -178l-630 -1072h-176v1498zM442 1958h122q4 -80 62 -136t142 -56q86 0 144 57t62 135h122q-6 -118 -89 -206t-239 -88t-238 88t-88 206z" />
<glyph unicode="&#x41a;" horiz-adv-x="1298" d="M208 0v1498h160v-792h4l680 792h212l-568 -648l600 -850h-200l-504 734l-224 -256v-478h-160z" />
<glyph unicode="&#x41b;" horiz-adv-x="1526" d="M28 -28v138q60 -10 130 -10q122 0 190 169t108 581l62 648h800v-1498h-160v1360h-496l-50 -534q-46 -474 -146 -668t-302 -194q-68 0 -136 8z" />
<glyph unicode="&#x41c;" horiz-adv-x="1786" d="M208 0v1498h208l328 -806q32 -84 87 -229t57 -151h8q12 30 146 380l326 806h212v-1498h-160v846q0 162 20 454h-8l-76 -200l-392 -988h-140l-392 988l-80 200h-8q24 -322 24 -454v-846h-160z" />
<glyph unicode="&#x41d;" horiz-adv-x="1472" d="M208 0v1498h160v-660h736v660h160v-1498h-160v704h-736v-704h-160z" />
<glyph unicode="&#x41e;" horiz-adv-x="1452" d="M104 748q0 352 170 569t454 217q286 0 453 -216t167 -572q0 -360 -169 -571t-451 -211q-284 0 -454 213t-170 571zM268 748q0 -296 124 -471t336 -175q208 0 332 172t124 472q0 296 -120 474t-336 178q-212 0 -336 -176t-124 -474z" />
<glyph unicode="&#x41f;" horiz-adv-x="1422" d="M208 0v1498h1006v-1498h-160v1360h-686v-1360h-160z" />
<glyph unicode="&#x420;" horiz-adv-x="1324" d="M208 0v1498h564q218 0 345 -120t127 -318q0 -204 -130 -322t-342 -118h-404v-620h-160zM368 754h380q158 0 245 77t87 229q0 148 -87 225t-249 77h-376v-608z" />
<glyph unicode="&#x421;" horiz-adv-x="1324" d="M104 748q0 366 178 576t462 210q176 0 299 -97t185 -231l-136 -48q-134 240 -352 240q-216 0 -344 -177t-128 -473q0 -300 130 -473t342 -173q134 0 234 75t150 185l144 -46q-68 -146 -198 -249t-326 -103q-282 0 -461 209t-179 575z" />
<glyph unicode="&#x422;" horiz-adv-x="1116" d="M24 1362v136h1072v-136h-456v-1362h-160v1362h-456z" />
<glyph unicode="&#x423;" horiz-adv-x="1100" d="M-8 1498h168l282 -630q12 -28 51 -116t61 -136h4q16 42 106 244l278 638h164l-528 -1190q-76 -172 -160 -252t-204 -80h-72v136h46q84 0 133 49t107 181l46 108z" />
<glyph unicode="&#x424;" horiz-adv-x="1614" d="M104 768q0 132 51 233t140 163t198 95t235 39v200h158v-200q272 -14 448 -145t176 -385q0 -250 -175 -383t-449 -147v-238h-158v238q-280 14 -452 148t-172 382zM268 768q0 -182 117 -284t343 -112v790q-88 -6 -162 -26t-145 -62t-112 -120t-41 -186zM886 372 q220 8 340 112t120 284q0 108 -41 186t-111 121t-145 63t-163 24v-790z" />
<glyph unicode="&#x425;" horiz-adv-x="1178" d="M-6 0l492 770l-468 728h200l220 -362q28 -46 81 -136t63 -108h8q26 46 77 129t71 115l220 362h200l-472 -728l496 -770h-196l-236 376q-28 46 -86 143t-74 123h-8q-82 -142 -158 -266l-234 -376h-196z" />
<glyph unicode="&#x426;" horiz-adv-x="1474" d="M208 0v1498h160v-1362h702v1362h160v-1362h138v-542h-140v406h-1020z" />
<glyph unicode="&#x427;" horiz-adv-x="1442" d="M176 968v530h160v-532q0 -140 86 -218t240 -78q142 0 277 105t135 243v480h160v-1498h-160v738h-4q-56 -78 -170 -139t-260 -61q-210 0 -337 109t-127 321z" />
<glyph unicode="&#x428;" horiz-adv-x="2068" d="M208 0v1498h160v-1362h580v1362h160v-1362h592v1362h160v-1498h-1652z" />
<glyph unicode="&#x429;" horiz-adv-x="2068" d="M1828 138h138v-544h-138v544zM208 0v1498h160v-1362h580v1362h160v-1362h592v1362h160v-1498h-1652z" />
<glyph unicode="&#x42a;" horiz-adv-x="1420" d="M20 1360v138h474v-652h334q104 0 191 -23t159 -71t113 -133t41 -199q0 -190 -123 -305t-327 -115h-548v1360h-314zM494 136h368q144 0 225 72t81 212q0 136 -82 215t-242 79h-350v-578z" />
<glyph unicode="&#x42b;" horiz-adv-x="1758" d="M1382 0v1498h160v-1498h-160zM208 0v1498h160v-652h334q226 0 365 -104t139 -322q0 -190 -123 -305t-327 -115h-548zM368 136h368q144 0 225 72t81 212q0 138 -82 215t-242 77h-350v-576z" />
<glyph unicode="&#x42c;" horiz-adv-x="1294" d="M208 0v1498h160v-652h334q226 0 365 -104t139 -322q0 -190 -123 -305t-327 -115h-548zM368 136h368q144 0 225 72t81 212q0 138 -82 215t-242 77h-350v-576z" />
<glyph unicode="&#x42d;" horiz-adv-x="1324" d="M54 316l144 46q50 -110 150 -185t234 -75q200 0 329 157t143 429h-706v128h706q-16 268 -142 425t-330 157q-218 0 -352 -240l-136 48q62 134 186 231t300 97q284 0 462 -210t178 -576t-179 -575t-461 -209q-196 0 -328 104t-198 248z" />
<glyph unicode="&#x42e;" horiz-adv-x="2052" d="M866 748q0 -296 124 -471t336 -175q210 0 334 172t124 472q0 296 -121 474t-337 178q-212 0 -336 -176t-124 -474zM208 0v1498h160v-676h336q18 324 186 518t436 194q286 0 454 -216t168 -572q0 -360 -170 -571t-452 -211q-272 0 -440 197t-182 533h-336v-694h-160z" />
<glyph unicode="&#x42f;" horiz-adv-x="1352" d="M266 1076q0 -136 86 -214t234 -78h398v578h-388q-152 0 -241 -79t-89 -207zM28 0q42 76 71 150t40 117t37 151q24 114 62 178t122 110q-40 12 -80 37t-82 69t-68 117t-26 161q0 172 122 290t336 118h582v-1498h-160v648h-394q-116 0 -168 -65t-78 -177 q-62 -268 -138 -406h-178z" />
<glyph unicode="&#x430;" horiz-adv-x="1126" d="M240 276q0 -76 64 -129t176 -53q142 0 243 92t101 234v150q-88 -22 -280 -52q-156 -28 -230 -86t-74 -156zM84 264q0 300 464 372q208 34 276 56v62q0 100 -72 166t-204 66q-96 0 -185 -45t-151 -121l-100 84q80 92 193 150t239 58q432 0 432 -422v-690h-148v176 q-32 -86 -132 -149t-236 -63q-178 0 -277 84t-99 216z" />
<glyph unicode="&#x431;" horiz-adv-x="1142" d="M88 538q0 516 246 770q222 226 650 250l26 -130q-524 -22 -686 -416l-20 -56q42 70 117 113t167 43q210 0 338 -166t128 -408q0 -104 -27 -202t-82 -183t-151 -137t-222 -52q-124 0 -221 51t-152 136t-83 183t-28 204zM244 538q0 -204 94 -324t234 -120q138 0 232 120 t94 324q0 208 -95 326t-231 118q-138 0 -233 -118t-95 -326z" />
<glyph unicode="&#x432;" horiz-adv-x="1110" d="M160 0v1076h454q176 0 269 -80t93 -206q0 -148 -152 -222q88 -30 143 -95t55 -161q0 -126 -96 -219t-256 -93h-510zM314 132h328q98 0 160 46t62 132q0 82 -61 133t-167 51h-322v-362zM314 614h284q100 0 161 42t61 126q0 164 -220 164h-286v-332z" />
<glyph unicode="&#x433;" horiz-adv-x="844" d="M160 0v1076h644v-130h-490v-946h-154z" />
<glyph unicode="&#x434;" horiz-adv-x="1298" d="M50 132h102q302 388 304 944h644v-944h150v-542h-158v410h-886v-410h-156v542zM338 132h604v814h-330q-6 -184 -74 -408t-200 -406z" />
<glyph unicode="&#x435;" horiz-adv-x="1132" d="M88 546q0 252 136 409t352 157q220 0 346 -153t126 -391q0 -28 -4 -80h-800q0 -162 90 -278t250 -116q104 0 184 49t124 131l132 -40q-50 -118 -162 -194t-278 -76q-224 0 -360 160t-136 422zM248 606h644q0 158 -86 267t-230 109q-146 0 -235 -112t-93 -264z" />
<glyph unicode="&#x436;" horiz-adv-x="1338" d="M-2 0l504 560l-492 516h192l386 -410v410h154v-408l392 408h188l-494 -516l514 -560h-192l-408 450v-450h-154v448l-402 -448h-188z" />
<glyph unicode="&#x437;" horiz-adv-x="958" d="M40 180l118 60q40 -58 117 -102t161 -44q116 0 193 53t77 145q0 88 -73 151t-233 63h-88v116h88q136 0 200 53t64 133t-56 127t-166 47q-76 0 -140 -40t-104 -102l-126 56q128 216 372 216q176 0 276 -83t100 -213q0 -174 -186 -244l2 -2q94 -28 160 -100t66 -180 q0 -154 -117 -240t-305 -86q-128 0 -235 59t-165 157z" />
<glyph unicode="&#x438;" horiz-adv-x="1202" d="M160 0v1076h154v-564q0 -54 -10 -274h8l100 148l458 690h172v-1076h-154v586q0 160 8 262h-4l-88 -140l-472 -708h-172z" />
<glyph unicode="&#x439;" horiz-adv-x="1202" d="M160 0v1076h154v-564q0 -54 -10 -274h8l100 148l458 690h172v-1076h-154v586q0 160 8 262h-4l-88 -140l-472 -708h-172zM276 1568h122q4 -80 62 -136t142 -56q86 0 144 57t62 135h122q-6 -118 -89 -206t-239 -88t-238 88t-88 206z" />
<glyph unicode="&#x43a;" horiz-adv-x="1028" d="M160 0v1076h154v-476l504 476h204l-540 -508l558 -568h-190l-468 470l-68 -64v-406h-154z" />
<glyph unicode="&#x43b;" horiz-adv-x="1236" d="M28 104q64 -10 110 -10t83 22t63 69t44 94t32 124t21 131t17 142l42 400h636v-1076h-154v946h-344l-30 -286q-40 -372 -125 -534t-267 -162q-36 0 -128 8v132z" />
<glyph unicode="&#x43c;" horiz-adv-x="1418" d="M160 0v1076h168l254 -530q72 -150 126 -274h4q124 272 124 274l254 530h168v-1076h-146v582q0 106 6 238h-2l-64 -140l-288 -602h-110l-286 600l-66 140h-2q6 -108 6 -236v-582h-146z" />
<glyph unicode="&#x43d;" horiz-adv-x="1190" d="M160 0v1076h154v-456h564v456h152v-1076h-152v490h-564v-490h-154z" />
<glyph unicode="&#x43e;" horiz-adv-x="1144" d="M244 538q0 -204 94 -324t234 -120q138 0 233 120t95 324q0 208 -96 326t-232 118q-138 0 -233 -118t-95 -326zM88 538q0 246 127 410t357 164q228 0 356 -164t128 -410q0 -104 -27 -202t-82 -183t-152 -137t-223 -52q-124 0 -221 51t-152 136t-83 183t-28 204z" />
<glyph unicode="&#x43f;" horiz-adv-x="1164" d="M160 0v1076h844v-1076h-154v946h-536v-946h-154z" />
<glyph unicode="&#x440;" horiz-adv-x="1192" d="M324 540q0 -200 82 -323t226 -123q136 0 226 120t90 326q0 194 -85 318t-231 124q-136 0 -222 -125t-86 -317zM172 -470v1546h148v-194q46 104 133 167t199 63q196 0 324 -156t128 -416q0 -278 -134 -427t-318 -149q-120 0 -204 63t-124 159v-656h-152z" />
<glyph unicode="&#x441;" horiz-adv-x="1028" d="M88 538q0 256 130 415t350 159q144 0 247 -83t137 -197l-132 -38q-30 80 -97 134t-155 54q-148 0 -236 -126t-88 -318q0 -204 92 -324t232 -120q94 0 171 61t109 141l132 -42q-42 -120 -153 -205t-259 -85q-214 0 -347 156t-133 418z" />
<glyph unicode="&#x442;" horiz-adv-x="946" d="M44 946v130h860v-130h-352v-946h-154v946h-354z" />
<glyph unicode="&#x443;" horiz-adv-x="1006" d="M16 1076h180l222 -630q50 -140 90 -272h8q30 98 88 272l212 630h176l-464 -1256q-60 -160 -139 -225t-193 -65h-60v128h36q76 0 129 44t95 158l40 126z" />
<glyph unicode="&#x444;" horiz-adv-x="1852" d="M88 538q0 262 124 418t322 156q206 0 314 -214v656h154v-656q106 214 318 214q196 0 320 -156t124 -418q0 -278 -131 -426t-313 -148q-116 0 -196 62t-122 158v-654h-154v654q-44 -96 -123 -158t-193 -62q-182 0 -313 148t-131 426zM1002 504q10 -188 89 -299t211 -111 q134 0 220 119t86 325q0 192 -82 318t-224 126q-128 0 -210 -114t-90 -298v-66zM244 538q0 -204 87 -324t221 -120q130 0 210 112t90 298v68q-8 184 -90 297t-210 113q-142 0 -225 -126t-83 -318z" />
<glyph unicode="&#x445;" horiz-adv-x="982" d="M8 0l388 558l-368 518h184l188 -278q16 -26 44 -69t40 -59h8q12 22 41 66t41 62l186 278h184l-364 -518l388 -558h-184l-210 320q-52 74 -82 122h-8q-10 -18 -80 -122l-212 -320h-184z" />
<glyph unicode="&#x446;" horiz-adv-x="1206" d="M160 0v1076h154v-944h560v944h154v-944h132v-538h-142v406h-858z" />
<glyph unicode="&#x447;" horiz-adv-x="1152" d="M140 734v342h154v-342q0 -238 246 -238q114 0 207 70t93 174v336h152v-1076h-152v516h-2q-40 -66 -125 -110t-193 -44q-102 0 -184 33t-139 120t-57 219z" />
<glyph unicode="&#x448;" horiz-adv-x="1756" d="M160 0v1076h154v-944h486v944h154v-944h486v944h156v-1076h-1436z" />
<glyph unicode="&#x449;" horiz-adv-x="1756" d="M1558 138h138v-544h-138v544zM160 0v1076h154v-944h486v944h154v-944h486v944h156v-1076h-1436z" />
<glyph unicode="&#x44a;" horiz-adv-x="1188" d="M34 946v130h424v-438h246q178 0 287 -77t109 -245q0 -144 -98 -230t-272 -86h-426v946h-270zM458 132h260q224 0 224 186q0 190 -232 190h-252v-376z" />
<glyph unicode="&#x44b;" horiz-adv-x="1442" d="M1112 0v1076h154v-1076h-154zM160 0v1076h156v-438h254q192 0 289 -83t97 -237q0 -140 -95 -229t-273 -89h-428zM316 132h262q222 0 222 188t-228 188h-256v-376z" />
<glyph unicode="&#x44c;" horiz-adv-x="1044" d="M160 0v1076h156v-438h254q192 0 289 -83t97 -237q0 -140 -95 -229t-273 -89h-428zM316 132h262q222 0 222 188t-228 188h-256v-376z" />
<glyph unicode="&#x44d;" horiz-adv-x="1026" d="M48 248l132 40q34 -76 109 -135t169 -59q130 0 219 106t97 276h-442v122h444q-10 170 -97 277t-221 107q-88 0 -156 -53t-98 -131l-130 38q38 116 139 196t245 80q226 0 353 -164t127 -410q0 -258 -132 -416t-348 -158q-146 0 -256 86t-154 198z" />
<glyph unicode="&#x44e;" horiz-adv-x="1626" d="M728 538q0 -204 94 -324t234 -120q138 0 232 120t94 324q0 208 -95 326t-231 118q-138 0 -233 -118t-95 -326zM160 0v1076h154v-464h262q18 218 144 359t336 141q226 0 354 -164t128 -410q0 -104 -27 -202t-82 -183t-151 -137t-222 -52q-226 0 -348 153t-134 369h-260 v-486h-154z" />
<glyph unicode="&#x44f;" horiz-adv-x="1102" d="M266 770q0 -88 56 -136t166 -48h300v360h-290q-116 0 -174 -49t-58 -127zM44 0q84 144 124 312q20 80 47 126t87 78q-190 72 -190 262q0 128 94 213t266 85h470v-1076h-154v454h-296q-82 0 -120 -46t-56 -126q-48 -190 -106 -282h-166z" />
<glyph unicode="&#x450;" horiz-adv-x="1132" d="M296 1626h202l226 -350h-138zM88 546q0 252 136 409t352 157q220 0 346 -153t126 -391q0 -28 -4 -80h-800q0 -162 90 -278t250 -116q104 0 184 49t124 131l132 -40q-50 -118 -162 -194t-278 -76q-224 0 -360 160t-136 422zM248 606h644q0 158 -86 267t-230 109 q-146 0 -235 -112t-93 -264z" />
<glyph unicode="&#x451;" horiz-adv-x="1132" d="M256 1344v194h204v-194h-204zM678 1344v194h202v-194h-202zM88 546q0 252 136 409t352 157q220 0 346 -153t126 -391q0 -28 -4 -80h-800q0 -162 90 -278t250 -116q104 0 184 49t124 131l132 -40q-50 -118 -162 -194t-278 -76q-224 0 -360 160t-136 422zM248 606h644 q0 158 -86 267t-230 109q-146 0 -235 -112t-93 -264z" />
<glyph unicode="&#x452;" horiz-adv-x="1158" d="M28 1254v118h142v182h154v-182h432v-118h-432v-350h2q40 82 128 145t204 63q60 0 114 -17t111 -59t91 -129t34 -211v-798q0 -376 -324 -376q-32 0 -84 4t-64 4v128q114 -6 122 -6q98 0 147 56t49 198v766q0 310 -224 310q-124 0 -216 -102t-90 -240v-640h-154v1254h-142z " />
<glyph unicode="&#x453;" horiz-adv-x="844" d="M160 0v1076h644v-130h-490v-946h-154zM354 1276l226 350h202l-292 -350h-136z" />
<glyph unicode="&#x454;" horiz-adv-x="1026" d="M88 538q0 246 126 410t352 164q144 0 245 -80t139 -196l-128 -38q-30 78 -98 131t-156 53q-134 0 -222 -107t-98 -277h444v-122h-442q8 -170 97 -276t219 -106q94 0 169 59t109 135l134 -40q-44 -112 -155 -198t-257 -86q-216 0 -347 158t-131 416z" />
<glyph unicode="&#x455;" horiz-adv-x="1002" d="M72 212l116 68q118 -186 320 -186q122 0 195 44t73 128q0 36 -18 65t-39 48t-75 42t-89 34t-115 37q-70 22 -120 44t-104 59t-83 91t-29 124q0 134 108 218t296 84q132 0 242 -70t158 -164l-104 -68q-42 70 -121 121t-175 51q-122 0 -185 -47t-63 -127q0 -46 24 -83 t73 -64t90 -42t109 -37q58 -18 103 -34t99 -44t90 -59t60 -78t24 -101q0 -128 -113 -215t-311 -87q-144 0 -256 65t-180 183z" />
<glyph unicode="&#x456;" horiz-adv-x="550" d="M176 1318v202h196v-202h-196zM200 0v1076h152v-1076h-152z" />
<glyph unicode="&#x457;" horiz-adv-x="506" d="M-58 1344v194h204v-194h-204zM364 1344v194h202v-194h-202zM176 0v1076h154v-1076h-154z" />
<glyph unicode="&#x458;" horiz-adv-x="560" d="M184 1318v202h200v-202h-200zM-20 -326h48q180 0 180 248v1154h152v-1162q0 -182 -80 -276t-228 -94h-72v130z" />
<glyph unicode="&#x459;" horiz-adv-x="1812" d="M1082 132h258q226 0 226 190q0 186 -230 186h-254v-376zM34 -28v132q64 -10 112 -10q152 0 208 324q60 274 92 658h636v-438h252q192 0 291 -81t99 -237q0 -144 -98 -232t-268 -88h-430v946h-342q-24 -286 -84 -542q-38 -234 -120 -337t-226 -103q-30 0 -122 8z" />
<glyph unicode="&#x45a;" horiz-adv-x="1722" d="M994 132h260q222 0 222 188q0 94 -54 141t-176 47h-252v-376zM160 0v1076h154v-436h524v436h156v-438h248q392 0 392 -318q0 -148 -96 -234t-274 -86h-426v510h-524v-510h-154z" />
<glyph unicode="&#x45b;" horiz-adv-x="1158" d="M24 1250v120h148v184h154v-184h432v-120h-432v-344h2q32 76 124 141t208 65q58 0 112 -16t111 -58t91 -129t34 -213v-696h-154v672q0 144 -48 227t-174 83q-124 0 -216 -102t-90 -240v-640h-154v1250h-148z" />
<glyph unicode="&#x45c;" horiz-adv-x="1028" d="M160 0v1076h154v-476l504 476h204l-540 -508l558 -568h-190l-468 470l-68 -64v-406h-154zM426 1276l226 350h202l-292 -350h-136z" />
<glyph unicode="&#x45d;" horiz-adv-x="1202" d="M160 0v1076h154v-564q0 -54 -10 -274h8l100 148l458 690h172v-1076h-154v586q0 160 8 262h-4l-88 -140l-472 -708h-172zM332 1626h202l226 -350h-138z" />
<glyph unicode="&#x45e;" horiz-adv-x="1006" d="M16 1076h180l222 -630q50 -140 90 -272h8q30 98 88 272l212 630h176l-464 -1256q-60 -160 -139 -225t-193 -65h-60v128h36q76 0 129 44t95 158l40 126zM156 1568h122q4 -80 62 -136t142 -56q86 0 144 57t62 135h122q-6 -118 -89 -206t-239 -88t-238 88t-88 206z" />
<glyph unicode="&#x45f;" horiz-adv-x="1166" d="M160 0v1076h154v-944h538v944h154v-1076h-348v-422h-152v422h-346z" />
<glyph unicode="&#x460;" horiz-adv-x="1868" d="M12 1498h168l256 -940q44 -142 104 -372h12q58 202 108 362l170 550l-108 400h166l270 -976q16 -64 44 -182t36 -152h12q84 126 157 283t141 440t70 587h164q-2 -430 -121 -813t-343 -685h-182l-224 846l-276 -846h-190z" />
<glyph unicode="&#x461;" horiz-adv-x="1570" d="M16 1076h170l210 -644q76 -276 78 -280h4q30 90 98 280l126 366l-90 278h166l288 -924h2q296 382 304 924h162q-6 -666 -412 -1076h-160l-184 570l-216 -570h-182z" />
<glyph unicode="&#x462;" horiz-adv-x="1294" d="M368 136h368q144 0 225 72t81 212q0 134 -80 213t-244 79h-350v-576zM34 1186v128h174v184h160v-184h380v-128h-380v-340h334q104 0 191 -23t159 -71t113 -133t41 -199q0 -190 -123 -305t-327 -115h-548v1186h-174z" />
<glyph unicode="&#x463;" horiz-adv-x="1054" d="M326 132h260q224 0 224 188t-230 188h-254v-376zM24 958v126h146v414h156v-414h406v-126h-406v-320h250q390 0 390 -318q0 -144 -96 -232t-276 -88h-424v958h-146z" />
<glyph unicode="&#x464;" horiz-adv-x="1866" d="M208 0v1498h160v-686h278q16 338 191 530t447 192q176 0 300 -97t186 -231l-136 -48q-134 240 -352 240q-204 0 -330 -157t-142 -425h706v-128h-706q14 -272 143 -429t329 -157q134 0 234 75t150 185l144 -46q-66 -144 -198 -248t-328 -104q-268 0 -445 192t-193 530 h-278v-686h-160z" />
<glyph unicode="&#x465;" horiz-adv-x="1440" d="M160 0v1076h154v-478h192q16 224 140 369t334 145q144 0 245 -81t139 -195l-128 -38q-32 80 -100 132t-154 52q-136 0 -222 -107t-96 -277h482v-122h-482q10 -172 98 -277t218 -105q92 0 170 59t110 135l132 -40q-48 -120 -161 -202t-251 -82q-198 0 -327 137t-147 371 h-192v-472h-154z" />
<glyph unicode="&#x466;" horiz-adv-x="1302" d="M438 760l210 -176l216 174l-108 306q-88 254 -100 288h-10q-72 -212 -100 -288zM-8 0l560 1498h198l560 -1498h-178l-216 616l-196 -156v-460h-138v460l-194 160l-218 -620h-178z" />
<glyph unicode="&#x467;" horiz-adv-x="1022" d="M2 0l430 1076h142l442 -1076h-162l-176 440l-110 -142v-298h-130v298l-108 142l-168 -440h-160zM372 566l130 -168l134 168l-102 288l-26 84h-8l-28 -86z" />
<glyph unicode="&#x468;" horiz-adv-x="1858" d="M994 760l210 -176l216 174l-108 306q-88 254 -100 288h-10q-72 -212 -100 -288zM848 804l260 694h198l560 -1498h-178l-216 616l-196 -156v-460h-138v460l-194 160l-218 -620h-178l252 676h-432v-676h-160v1498h160v-694h480z" />
<glyph unicode="&#x469;" horiz-adv-x="1474" d="M828 566l130 -168l134 168l-102 288l-26 84h-8l-28 -86zM700 608l188 468h142l442 -1076h-162l-176 440l-110 -142v-298h-130v298l-108 142l-168 -440h-160l192 482h-336v-482h-154v1076h154v-468h386z" />
<glyph unicode="&#x46a;" horiz-adv-x="1544" d="M58 0l94 460q40 200 162 282t310 102l-432 544v110h1160v-108l-432 -546q198 -16 316 -104t156 -280l94 -460h-152l-88 448q-30 148 -132 207t-262 67v-722h-160v722q-162 -6 -262 -64t-130 -208l-88 -450h-154zM398 1360l374 -490l374 490h-748z" />
<glyph unicode="&#x46b;" horiz-adv-x="1296" d="M54 0l110 366q60 210 354 246l-356 362v102h970v-102l-352 -364q292 -32 352 -244l110 -366h-148l-104 338q-28 78 -93 114t-175 46v-498h-146v498q-226 -20 -270 -160l-102 -338h-150zM346 946l304 -312l296 312h-600z" />
<glyph unicode="&#x46c;" horiz-adv-x="2066" d="M920 1360l374 -490l374 490h-748zM580 0l94 460q36 188 200 264h-506v-724h-160v1498h160v-650h776l-430 540v110h1160v-108l-432 -546q198 -16 316 -105t156 -279l94 -460h-152l-88 448q-30 148 -132 207t-262 67v-722h-160v722q-162 -6 -262 -64t-130 -208l-88 -450 h-154z" />
<glyph unicode="&#x46d;" horiz-adv-x="1716" d="M766 946l304 -312l296 312h-600zM474 0l108 366q30 88 124 130h-392v-496h-154v1076h154v-454h614l-346 352v102h970v-102l-352 -364q288 -34 352 -244l110 -366h-148l-104 338q-24 78 -90 114t-178 46v-498h-146v498q-230 -20 -270 -160l-102 -338h-150z" />
<glyph unicode="&#x46e;" horiz-adv-x="1218" d="M104 -184q0 134 115 225t337 91q158 0 275 73t117 207q0 158 -102 236t-268 78q-38 0 -112 -1t-106 -1v126q68 -2 202 -2q144 0 244 81t100 211q0 118 -91 191t-219 73q-78 0 -144 -31t-97 -61t-67 -76l-134 52q64 108 152 164t226 74l-250 296h154l178 -226 q66 134 131 189t161 55h66v-106h-34q-84 0 -134 -48t-108 -162q166 -20 270 -121t104 -249q0 -240 -248 -356q124 -32 207 -137t83 -255q0 -192 -145 -300t-389 -108q-150 0 -229 -51t-79 -131q0 -70 55 -115t133 -45t189 7t157 7q144 0 238 -22v-140q-116 30 -238 30 q-70 0 -175 -8t-173 -8q-170 0 -261 84t-91 210z" />
<glyph unicode="&#x46f;" horiz-adv-x="1030" d="M110 -186q0 142 103 222t265 80q130 0 211 52t81 148q0 104 -76 145t-216 41h-116v120h106q146 0 206 56t60 132t-55 124t-175 48q-78 0 -146 -37t-108 -87l-122 54q38 62 119 118t177 72l-248 292h154l172 -220q46 112 109 177t171 65h72v-108h-38q-50 0 -88 -15 t-64 -49t-40 -61t-36 -79q134 -14 218 -88t84 -188q0 -100 -46 -156t-120 -98q204 -76 204 -264q0 -132 -112 -228t-328 -96q-106 0 -165 -47t-59 -127q0 -66 47 -113t143 -47q54 0 149 7t121 7q134 0 228 -26v-130q-114 30 -228 30q-58 0 -138 -9t-136 -9q-162 0 -251 80 t-89 212z" />
<glyph unicode="&#x470;" horiz-adv-x="1796" d="M202 1020v478h160v-488q0 -108 34 -185t93 -117t123 -58t138 -18h68v866h162v-866h58q76 0 142 17t126 57t95 118t35 186v488h158v-478q0 -262 -146 -394t-408 -132h-60v-494h-162v494h-68q-256 0 -402 132t-146 394z" />
<glyph unicode="&#x471;" horiz-adv-x="1522" d="M154 536v540h154v-516q0 -206 107 -327t283 -131v1396h154v-1396q76 14 142 43t130 82t101 142t37 207q0 188 -86 500h158q84 -264 84 -496q0 -286 -154 -440t-412 -172v-438h-154v436q-252 16 -398 168t-146 402z" />
<glyph unicode="&#x472;" horiz-adv-x="1454" d="M104 748q0 352 170 569t454 217q286 0 454 -216t168 -572q0 -360 -170 -571t-452 -211q-284 0 -454 213t-170 571zM1184 676q-106 -84 -212 -84q-108 0 -236 82t-232 82q-114 0 -230 -128q24 -246 144 -386t310 -140q196 0 319 152t137 422zM1184 830q-16 260 -136 414 t-320 154q-204 0 -327 -165t-133 -445q120 98 238 98q74 0 140 -25t107 -56t96 -56t109 -25q112 0 226 106z" />
<glyph unicode="&#x473;" horiz-adv-x="1142" d="M88 538q0 246 127 410t357 164q226 0 354 -164t128 -410q0 -104 -27 -202t-82 -183t-151 -137t-222 -52q-124 0 -221 51t-152 136t-83 183t-28 204zM250 446q20 -164 108 -258t214 -94q136 0 225 109t99 279q-72 -76 -160 -76q-76 0 -166 70t-162 70q-74 0 -158 -100z M894 618q-18 170 -108 267t-214 97q-136 0 -228 -110t-98 -284q74 82 164 82q70 0 125 -36t100 -72t91 -36q84 0 168 92z" />
<glyph unicode="&#x474;" horiz-adv-x="1240" d="M-4 1498h176l328 -1030q20 -60 50 -166t42 -144h10q78 258 94 310l284 888q58 178 240 178q44 0 100 -8v-132q-44 4 -74 4q-80 0 -116 -104l-434 -1294h-196z" />
<glyph unicode="&#x475;" horiz-adv-x="1028" d="M16 1076h166l236 -674q18 -50 78 -254h6q20 86 76 254l178 524q64 186 224 186q20 0 104 -6v-132q-24 2 -72 2q-76 0 -114 -104l-316 -872h-166z" />
<glyph unicode="&#x476;" horiz-adv-x="1240" d="M-4 1498h176l328 -1030q20 -60 50 -166t42 -144h10q78 258 94 310l284 888q58 178 240 178q44 0 100 -8v-132q-44 4 -74 4q-80 0 -116 -104l-434 -1294h-196zM196 1988h188l212 -360h-138zM508 1988h190l210 -360h-138z" />
<glyph unicode="&#x477;" horiz-adv-x="1028" d="M16 1076h166l236 -674q18 -50 78 -254h6q20 86 76 254l178 524q64 186 224 186q20 0 104 -6v-132q-24 2 -72 2q-76 0 -114 -104l-316 -872h-166zM104 1636h188l212 -360h-138zM416 1636h190l210 -360h-138z" />
<glyph unicode="&#x478;" horiz-adv-x="2398" d="M1408 1076h180l222 -630q50 -140 90 -272h8q30 98 88 272l212 630h176l-464 -1256q-60 -160 -139 -225t-193 -65h-60v128h36q76 0 129 44t95 158l40 126zM104 748q0 352 170 569t454 217q286 0 453 -216t167 -572q0 -360 -169 -571t-451 -211q-284 0 -454 213t-170 571z M268 748q0 -296 124 -471t336 -175q208 0 332 172t124 472q0 296 -120 474t-336 178q-212 0 -336 -176t-124 -474z" />
<glyph unicode="&#x479;" horiz-adv-x="2030" d="M244 538q0 -204 94 -324t234 -120q138 0 233 120t95 324q0 208 -96 326t-232 118q-138 0 -233 -118t-95 -326zM88 538q0 246 127 410t357 164q228 0 356 -164t128 -410q0 -104 -27 -202t-82 -183t-152 -137t-223 -52q-124 0 -221 51t-152 136t-83 183t-28 204zM1040 1076 h180l222 -630q50 -140 90 -272h8q30 98 88 272l212 630h176l-464 -1256q-60 -160 -139 -225t-193 -65h-60v128h36q76 0 129 44t95 158l40 126z" />
<glyph unicode="&#x47a;" horiz-adv-x="1454" d="M854 120q156 48 244 211t88 415q0 250 -88 418t-248 216q-42 -72 -124 -72q-80 0 -122 72q-158 -48 -247 -215t-89 -417q0 -248 88 -413t244 -215q40 78 126 78q90 0 128 -78zM596 -22q-228 48 -360 252t-132 518q0 308 131 514t357 258q36 96 134 96q100 0 136 -96 q228 -50 358 -257t130 -517q0 -314 -132 -518t-360 -250q-38 -88 -132 -88q-92 0 -130 88z" />
<glyph unicode="&#x47b;" horiz-adv-x="1192" d="M478 -28q-132 26 -223 117t-129 206t-38 243q0 212 100 368t288 196q28 96 124 96q98 0 122 -96q180 -40 281 -197t101 -367q0 -196 -96 -359t-286 -205q-30 -90 -122 -90t-122 88zM492 954q-114 -34 -181 -145t-67 -271t66 -272t182 -144q30 72 108 72t106 -70 q112 36 176 147t64 267q0 158 -65 269t-175 145q-30 -64 -106 -64t-108 66z" />
<glyph unicode="&#x47c;" horiz-adv-x="2056" d="M926 1666v172h222v-112q0 -102 -38 -174t-132 -130l-64 48q70 48 96 91t26 105h-110zM676 1864v46q0 88 65 148t169 60q108 0 226 -77t212 -77h92v-102h-96q-104 0 -176 37t-128 74t-118 37q-58 0 -89 -32t-31 -80v-34h-126zM104 748q0 342 159 564t421 222q40 0 99 -5 t63 -5v-136q-108 8 -152 8q-192 0 -308 -181t-116 -467q0 -308 102 -477t310 -169q184 0 348 140q136 -140 352 -140q208 0 305 175t97 471q0 282 -110 465t-286 183q-76 0 -148 -8v136q4 0 57 5t99 5q246 0 401 -225t155 -561q0 -358 -142 -571t-420 -213q-202 0 -360 118 q-170 -118 -356 -118q-292 0 -431 215t-139 569z" />
<glyph unicode="&#x47d;" horiz-adv-x="1624" d="M716 1330v174h222v-112q0 -102 -38 -174t-134 -132l-64 48q70 48 96 91t26 105h-108zM462 1528v48q0 88 63 148t165 60q78 0 139 -24t95 -54t89 -54t121 -24h92v-102h-96q-84 0 -149 23t-99 52t-81 52t-99 23q-54 0 -84 -29t-30 -77v-42h-126zM88 546q0 116 25 215 t77 184t147 134t223 49q74 0 120 -8v-128q-10 0 -47 4t-67 4q-118 0 -194 -67t-103 -163t-27 -224q0 -220 87 -335t241 -115q152 0 244 100q90 -100 240 -100q148 0 238 115t90 335q0 198 -74 326t-244 128q-64 0 -124 -8v128q40 8 122 8q132 0 228 -50t148 -137t75 -185 t23 -210q0 -274 -123 -428t-345 -154q-166 0 -254 88q-34 -36 -103 -62t-155 -26q-216 0 -342 151t-126 431z" />
<glyph unicode="&#x47e;" horiz-adv-x="1868" d="M12 1498h178l246 -940q44 -142 104 -372h12q58 202 108 362l170 550l-108 400h166l270 -976q18 -68 47 -193t33 -141h12q84 126 157 283t141 440t70 587h164q-2 -430 -121 -813t-343 -685h-182l-224 846l-276 -846h-190zM496 1668v232h846v-232h-128v138h-236v-138h-118 v138h-238v-138h-126z" />
<glyph unicode="&#x47f;" horiz-adv-x="1570" d="M16 1076h170l210 -644q76 -276 78 -280h4q30 90 98 280l126 366l-90 278h166l288 -924h2q296 382 304 924h162q-6 -666 -412 -1076h-160l-184 570l-216 -570h-182zM366 1320v230h846v-230h-128v138h-236v-138h-118v138h-238v-138h-126z" />
<glyph unicode="&#x480;" horiz-adv-x="1288" d="M104 748q0 362 175 574t475 212q172 0 294 -101t184 -227l-138 -48q-50 90 -137 165t-203 75q-232 0 -359 -180t-127 -470q0 -298 130 -472t352 -174q64 0 134 27t110 63v-598h-158v378q-40 -8 -108 -8q-268 0 -446 209t-178 575z" />
<glyph unicode="&#x481;" horiz-adv-x="1026" d="M88 538q0 248 125 411t353 163q148 0 249 -84t135 -194l-130 -40q-82 188 -252 188q-150 0 -237 -126t-87 -318q0 -196 90 -320t234 -124q110 0 194 80v-580h-156v372q-20 -2 -42 -2q-216 0 -346 158t-130 416z" />
<glyph unicode="&#x482;" horiz-adv-x="1300" d="M112 504l62 104l274 -152l262 388l-306 170l60 104l314 -174l246 368l112 -68l-244 -364l294 -160l-62 -104l-300 164l-262 -388l334 -184l-64 -100l-336 184l-244 -358l-112 66l242 356z" />
<glyph unicode="&#x483;" horiz-adv-x="1174" d="M158 1254v214h718v92h142v-210h-716v-96h-144z" />
<glyph unicode="&#x484;" horiz-adv-x="1158" d="M190 1288v114h92q78 0 145 39t137 78t158 39q104 0 168 -61t64 -151v-56h-124v42q0 46 -33 78t-89 32q-60 0 -115 -38t-129 -77t-178 -39h-96z" />
<glyph unicode="&#x485;" horiz-adv-x="1122" d="M436 1508v132h230v-194h-112q0 -76 26 -122t100 -100l-66 -60q-98 64 -138 147t-40 197z" />
<glyph unicode="&#x486;" horiz-adv-x="1122" d="M458 1446v194h228v-132q0 -114 -39 -197t-137 -147l-68 60q74 54 101 101t27 121h-112z" />
<glyph unicode="&#x488;" horiz-adv-x="2122" d="M250 1086q14 108 74 172t152 64q96 0 157 -64t71 -172h-100q-6 60 -41 100t-87 40q-50 0 -83 -39t-41 -101h-102zM822 1378q14 108 74 173t152 65q94 0 156 -65t72 -173h-100q-6 60 -41 101t-87 41q-50 0 -84 -41t-42 -101h-100zM1404 1086q14 108 74 172t152 64 q96 0 157 -64t71 -172h-100q-6 58 -41 99t-87 41q-48 0 -83 -40t-43 -100h-100zM32 590q14 108 74 173t152 65q96 0 158 -65t72 -173h-100q-6 60 -42 101t-88 41q-50 0 -83 -40t-41 -102h-102zM250 70q14 108 74 173t152 65q94 0 156 -65t72 -173h-100q-6 60 -41 100t-87 40 q-48 0 -81 -39t-43 -101h-102zM822 -214q14 108 74 171t152 63q96 0 157 -63t71 -171h-100q-6 60 -41 99t-87 39q-48 0 -82 -39t-44 -99h-100zM1628 590q14 108 74 173t152 65q96 0 158 -65t72 -173h-102q-6 60 -42 101t-86 41t-83 -41t-41 -101h-102zM1404 70 q14 108 74 173t152 65q94 0 156 -66t72 -172h-100q-6 58 -41 99t-87 41q-50 0 -83 -39t-41 -101h-102z" />
<glyph unicode="&#x489;" horiz-adv-x="2086" d="M386 1340l76 80l190 -290l-120 -120zM928 1300l126 336h114l-70 -336h-170zM1388 1192l332 150l74 -78l-288 -190zM100 712v106l338 -74v-160zM296 96l288 190l114 -116l-330 -150zM932 -228l72 332h170l-128 -332h-114zM1646 652v162l338 -130v-104zM1436 206l120 120 l148 -332l-76 -76z" />
<glyph unicode="&#x48a;" horiz-adv-x="1480" d="M436 1958h122q4 -80 62 -136t142 -56q86 0 144 57t62 135h122q-6 -118 -89 -206t-239 -88t-238 88t-88 206zM1136 -424l150 560h146l-152 -560h-144zM208 1498h160v-962q0 -154 -10 -290h8l106 188l626 1064h176v-1498h-160v960q0 150 12 290h-10l-102 -178l-630 -1072 h-176v1498z" />
<glyph unicode="&#x48b;" horiz-adv-x="1202" d="M888 -424l150 560h146l-152 -560h-144zM276 1568h122q4 -80 62 -136t142 -56q86 0 144 57t62 135h122q-6 -118 -89 -206t-239 -88t-238 88t-88 206zM160 0v1076h154v-564q0 -54 -10 -274h8l100 148l458 690h172v-1076h-154v586q0 160 8 262h-4l-88 -140l-472 -708h-172z " />
<glyph unicode="&#x48c;" horiz-adv-x="1294" d="M368 136h368q142 0 224 73t82 211t-82 215t-242 77h-350v-576zM30 1188v124h178v186h160v-186h314v-124h-314v-342h334q226 0 365 -104t139 -322q0 -190 -123 -305t-327 -115h-548v1188h-178z" />
<glyph unicode="&#x48d;" horiz-adv-x="1054" d="M326 132h258q226 0 226 188t-234 188h-250v-376zM24 958v126h146v180h156v-180h352v-126h-352v-320h248q392 0 392 -318q0 -144 -97 -232t-273 -88h-426v958h-146z" />
<glyph unicode="&#x48e;" horiz-adv-x="1324" d="M710 930l104 82l354 -444l-108 -78zM208 0v1498h564q218 0 345 -120t127 -318q0 -204 -130 -322t-342 -118h-404v-620h-160zM368 754h380q158 0 245 77t87 229q0 148 -87 225t-249 77h-376v-608z" />
<glyph unicode="&#x48f;" horiz-adv-x="1192" d="M632 304l104 82l354 -444l-108 -78zM324 540q0 -200 82 -323t226 -123q136 0 226 120t90 326q0 194 -85 318t-231 124q-136 0 -222 -125t-86 -317zM172 -470v1546h148v-194q46 104 133 167t199 63q196 0 324 -156t128 -416q0 -278 -134 -427t-318 -149q-120 0 -204 63 t-124 159v-656h-152z" />
<glyph unicode="&#x490;" horiz-adv-x="1152" d="M208 0v1498h726v302h160v-440h-726v-1360h-160z" />
<glyph unicode="&#x491;" horiz-adv-x="868" d="M160 0v1076h490v312h154v-442h-490v-946h-154z" />
<glyph unicode="&#x492;" horiz-adv-x="1120" d="M44 688v134h164v676h884v-136h-724v-540h426v-134h-426v-688h-160v688h-164z" />
<glyph unicode="&#x493;" horiz-adv-x="844" d="M36 456v126h124v494h644v-130h-490v-364h352v-126h-352v-456h-154v456h-124z" />
<glyph unicode="&#x494;" horiz-adv-x="1264" d="M208 0v1498h848v-138h-688v-636q102 22 230 22q304 0 441 -163t137 -435q0 -286 -151 -456t-411 -170q-116 0 -256 20v138q134 -24 256 -24q192 0 295 143t103 349q0 242 -114 354t-300 112q-104 0 -230 -28v-586h-160z" />
<glyph unicode="&#x495;" horiz-adv-x="1052" d="M160 0v1084h650v-130h-496v-360q84 16 142 16q256 0 382 -145t126 -395q0 -248 -137 -398t-367 -150q-82 0 -186 18v132q108 -20 180 -20q166 0 260 118t94 300q0 192 -89 300t-261 108q-74 0 -144 -14v-464h-154z" />
<glyph unicode="&#x496;" horiz-adv-x="1700" d="M-8 0l636 794l-606 704h212l506 -618v618h160v-618l506 618h212l-604 -704l638 -794h-214l-538 698v-698h-160v698l-536 -698h-212zM1524 138h138v-544h-138v544z" />
<glyph unicode="&#x497;" horiz-adv-x="1394" d="M-2 0l504 560l-492 516h192l386 -410v410h154v-408l392 408h188l-494 -516l514 -560h-192l-408 450v-450h-154v448l-402 -448h-188zM1220 138h138v-544h-138v544z" />
<glyph unicode="&#x498;" horiz-adv-x="1236" d="M90 258l128 52q56 -92 159 -153t215 -61q152 0 266 82t114 234q0 148 -119 230t-285 82q-84 0 -130 -4v132q42 -4 124 -4q146 0 249 79t103 211q0 116 -88 191t-228 75q-228 0 -332 -226l-140 46q136 310 478 310q216 0 344 -108t128 -274q0 -130 -76 -223t-180 -133 q122 -32 219 -129t97 -251q0 -214 -156 -333t-386 -119q-180 0 -312 84t-192 210zM490 -2h152q82 -44 149 -113t67 -147q0 -76 -54 -116t-152 -40q-88 0 -158 28v102q78 -26 128 -26q96 0 96 78q0 92 -228 234z" />
<glyph unicode="&#x499;" horiz-adv-x="970" d="M48 180l118 60q40 -58 117 -102t161 -44q116 0 193 53t77 145q0 88 -73 151t-233 63h-88v116h88q136 0 200 53t64 133t-56 127t-166 47q-76 0 -140 -40t-104 -102l-126 56q128 216 372 216q176 0 276 -83t100 -213q0 -174 -186 -244l2 -2q94 -28 160 -100t66 -180 q0 -154 -117 -240t-305 -86q-128 0 -235 59t-165 157zM336 -2h152q82 -44 149 -113t67 -147q0 -76 -54 -116t-152 -40q-88 0 -158 28v102q78 -26 128 -26q96 0 96 78q0 92 -228 234z" />
<glyph unicode="&#x49a;" horiz-adv-x="1364" d="M1182 138h138v-544h-138v544zM208 0v1498h160v-792h4l680 792h212l-568 -648l600 -850h-200l-504 734l-224 -256v-478h-160z" />
<glyph unicode="&#x49b;" horiz-adv-x="1092" d="M904 138h138v-544h-138v544zM160 0v1076h154v-476l504 476h204l-540 -508l558 -568h-190l-468 470l-68 -64v-406h-154z" />
<glyph unicode="&#x49c;" horiz-adv-x="1296" d="M208 0v1498h160v-794h4l680 794h212l-568 -648l602 -850h-202l-502 734l-226 -256v-478h-160zM576 230v1088h128v-1088h-128z" />
<glyph unicode="&#x49d;" horiz-adv-x="1032" d="M166 0v1076h154v-476l508 476h200l-540 -508l556 -568h-188l-470 470l-66 -64v-406h-154zM562 110v884h120v-884h-120z" />
<glyph unicode="&#x49e;" horiz-adv-x="1300" d="M18 1208v122h190v168h160v-168h232v-122h-232v-502h4l682 792h212l-570 -648l602 -850h-202l-502 736l-226 -258v-478h-160v1208h-190z" />
<glyph unicode="&#x49f;" horiz-adv-x="1036" d="M26 1208v122h150v224h156v-224h244v-122h-244v-672l468 540h204l-384 -430l428 -646h-188l-340 538l-188 -210v-328h-156v1208h-150z" />
<glyph unicode="&#x4a0;" horiz-adv-x="1424" d="M20 1362v136h468v-794h2l684 794h212l-570 -648l602 -850h-202l-502 734l-226 -256v-478h-160v1362h-308z" />
<glyph unicode="&#x4a1;" d="M20 946v130h406v-476l504 476h204l-540 -508l556 -568h-188l-470 470l-66 -64v-406h-154v946h-252z" />
<glyph unicode="&#x4a2;" horiz-adv-x="1514" d="M208 0v1498h160v-660h736v660h160v-1498h-160v704h-736v-704h-160zM1236 138h138v-544h-138v544z" />
<glyph unicode="&#x4a3;" horiz-adv-x="1230" d="M996 138h138v-544h-138v544zM160 0v1076h154v-456h564v456h152v-1076h-152v490h-564v-490h-154z" />
<glyph unicode="&#x4a4;" horiz-adv-x="1566" d="M208 0v1498h160v-660h738v660h444v-136h-284v-1362h-160v704h-738v-704h-160z" />
<glyph unicode="&#x4a5;" horiz-adv-x="1298" d="M160 0v1076h154v-450h564v450h404v-130h-252v-946h-152v494h-564v-494h-154z" />
<glyph unicode="&#x4a6;" horiz-adv-x="2096" d="M208 0v1498h992v-774q114 22 230 22q282 0 430 -156t148 -450t-154 -456t-408 -162q-140 0 -256 20v138q130 -24 256 -24q190 0 294 138t104 346q0 224 -103 349t-311 125q-78 0 -230 -28v-586h-160v1364h-672v-1364h-160z" />
<glyph unicode="&#x4a7;" horiz-adv-x="1728" d="M160 0v1076h830v-482q76 16 142 16q250 0 379 -145t129 -403q0 -244 -134 -392t-370 -148q-74 0 -186 18v132q112 -20 180 -20q166 0 260 114t94 296q0 192 -90 304t-260 112q-50 0 -144 -14v-464h-154v946h-522v-946h-154z" />
<glyph unicode="&#x4a8;" horiz-adv-x="1494" d="M104 748q0 360 176 573t466 213q326 0 484 -286l-140 -54q-56 94 -134 149t-210 55q-222 0 -350 -181t-128 -469q0 -298 130 -468t358 -170q38 0 94 10q-170 186 -170 456q0 196 94 322t256 126q166 0 256 -120t90 -316q0 -140 -76 -281t-188 -223q68 -40 188 -40 q58 0 122 12l8 -130q-64 -16 -162 -16q-152 0 -294 96q-112 -42 -230 -42q-288 0 -464 211t-176 573zM846 564q0 -118 41 -226t111 -172q98 72 156 183t58 237q0 132 -44 217t-138 85q-88 0 -136 -90t-48 -234z" />
<glyph unicode="&#x4a9;" horiz-adv-x="1222" d="M88 538q0 248 130 411t354 163q248 0 374 -222l-124 -50q-94 142 -246 142q-150 0 -241 -126t-91 -318q0 -182 80 -298t212 -132q84 -8 142 10q-44 48 -75 124t-31 152q0 126 74 213t194 87t186 -77t66 -207q0 -96 -52 -187t-126 -133q50 -30 138 -30q64 0 106 12 l12 -122q-80 -14 -130 -14q-136 0 -246 76q-92 -48 -230 -48q-212 0 -344 159t-132 415zM710 390q0 -148 100 -230q144 94 144 242q0 170 -116 170q-58 0 -93 -53t-35 -129z" />
<glyph unicode="&#x4aa;" horiz-adv-x="1324" d="M608 -2h152q82 -44 149 -113t67 -147q0 -76 -54 -116t-152 -40q-88 0 -158 28v102q78 -26 128 -26q96 0 96 78q0 92 -228 234zM104 748q0 366 178 576t462 210q176 0 299 -97t185 -231l-136 -48q-134 240 -352 240q-216 0 -344 -177t-128 -473q0 -300 130 -473t342 -173 q134 0 234 75t150 185l144 -46q-68 -146 -198 -249t-326 -103q-282 0 -461 209t-179 575z" />
<glyph unicode="&#x4ab;" horiz-adv-x="1028" d="M430 -2h152q82 -44 149 -113t67 -147q0 -76 -54 -116t-152 -40q-88 0 -158 28v102q78 -26 128 -26q96 0 96 78q0 92 -228 234zM88 540q0 256 130 415t350 159q144 0 247 -83t137 -197l-132 -38q-30 80 -97 134t-155 54q-148 0 -236 -126t-88 -318q0 -204 92 -324 t232 -120q94 0 171 61t109 141l132 -42q-42 -120 -153 -205t-259 -85q-214 0 -347 156t-133 418z" />
<glyph unicode="&#x4ac;" horiz-adv-x="1116" d="M590 138h138v-544h-138v544zM24 1362v136h1072v-136h-456v-1362h-160v1362h-456z" />
<glyph unicode="&#x4ad;" horiz-adv-x="946" d="M514 138h138v-544h-138v544zM44 946v130h860v-130h-352v-946h-154v946h-354z" />
<glyph unicode="&#x4ae;" horiz-adv-x="1206" d="M-8 1498h192l258 -458q90 -160 158 -282h4q30 54 92 162t68 120l256 458h192l-528 -882v-616h-160v616z" />
<glyph unicode="&#x4af;" horiz-adv-x="1020" d="M16 1076h172l236 -638q22 -58 90 -252h4q14 38 46 125t44 123l226 642h172l-416 -1068v-478h-154v478z" />
<glyph unicode="&#x4b0;" horiz-adv-x="1206" d="M218 400v128h734v-128h-734zM-8 1498h192l258 -458q90 -160 158 -282h4q30 54 92 162t68 120l256 458h192l-528 -882v-616h-160v616z" />
<glyph unicode="&#x4b1;" horiz-adv-x="1020" d="M146 -136v128h734v-128h-734zM16 1076h172l236 -638q22 -58 90 -252h4q14 38 46 125t44 123l226 642h172l-416 -1068v-478h-154v478z" />
<glyph unicode="&#x4b2;" horiz-adv-x="1236" d="M-4 0l492 770l-468 728h200l220 -362q28 -46 81 -136t63 -108h8q26 46 77 129t71 115l220 362h200l-472 -728l496 -770h-196l-236 376q-28 46 -86 143t-74 123h-8q-82 -142 -158 -266l-234 -376h-196zM1060 138h138v-544h-138v544z" />
<glyph unicode="&#x4b3;" horiz-adv-x="1020" d="M8 0l388 558l-368 518h184l188 -278q16 -26 44 -69t40 -59h8q12 22 41 66t41 62l186 278h184l-364 -518l388 -558h-184l-210 320q-52 74 -82 122h-8q-10 -18 -80 -122l-212 -320h-184zM848 138h138v-544h-138v544z" />
<glyph unicode="&#x4b4;" horiz-adv-x="1684" d="M24 1360v138h996v-138h-418v-1224h716v1362h160v-1362h100v-542h-142v406h-994v1360h-418z" />
<glyph unicode="&#x4b5;" horiz-adv-x="1380" d="M44 946v130h812v-130h-356v-814h566v944h154v-944h94v-538h-140v406h-826v946h-304z" />
<glyph unicode="&#x4b6;" horiz-adv-x="1480" d="M1202 138h138v-544h-138v544zM176 968v530h160v-532q0 -140 86 -218t240 -78q142 0 277 105t135 243v480h160v-1498h-160v738h-4q-56 -78 -170 -139t-260 -61q-210 0 -337 109t-127 321z" />
<glyph unicode="&#x4b7;" horiz-adv-x="1190" d="M956 138h138v-544h-138v544zM140 734v342h154v-342q0 -238 246 -238q114 0 207 70t93 174v336h152v-1076h-152v516h-2q-40 -66 -125 -110t-193 -44q-102 0 -184 33t-139 120t-57 219z" />
<glyph unicode="&#x4b8;" horiz-adv-x="1354" d="M140 978v520h160v-524q0 -250 254 -268v334h134v-324q114 6 206 84t92 186v512h160v-1498h-160v746h-4q-32 -50 -111 -101t-183 -61v-284h-134v268q-198 6 -306 109t-108 301z" />
<glyph unicode="&#x4b9;" horiz-adv-x="1156" d="M144 734v342h154v-342q0 -220 198 -234v304h116v-296q86 4 159 66t73 124v378h152v-1076h-152v510h-4q-64 -118 -228 -134v-252h-116v240q-154 6 -253 94t-99 276z" />
<glyph unicode="&#x4ba;" horiz-adv-x="1406" d="M208 0v1498h160v-738h4q58 82 171 141t259 59q208 0 336 -109t128 -319v-532h-160v536q0 140 -85 216t-239 76q-146 0 -280 -104t-134 -244v-480h-160z" />
<glyph unicode="&#x4bb;" horiz-adv-x="1156" d="M160 0v1076h152v-508h4q44 72 131 113t185 41q162 0 271 -89t109 -277v-356h-154v352q0 126 -68 181t-174 55q-116 0 -210 -70t-94 -172v-346h-152z" />
<glyph unicode="&#x4bc;" horiz-adv-x="1734" d="M572 820h900q0 46 -6 82q-8 96 -33 178t-72 157t-130 118t-195 43q-188 0 -324 -149t-140 -429zM46 968q0 84 14 154h162q-14 -80 -14 -142q0 -156 200 -158q18 340 193 526t437 186q148 0 266 -59t189 -162t108 -232t37 -275q2 -26 0 -69t-2 -53h-1062q14 -280 135 -432 t337 -152q262 0 410 230l136 -56q-72 -140 -215 -225t-335 -85q-298 0 -455 196t-177 524q-364 14 -364 284z" />
<glyph unicode="&#x4bd;" horiz-adv-x="1384" d="M498 606h646q-2 160 -85 268t-231 108t-234 -110t-96 -266zM46 716q0 58 20 118h142q-12 -52 -12 -94q0 -46 35 -80t115 -38q22 218 150 354t332 136q218 0 345 -151t127 -397q0 -52 -2 -76h-800q2 -162 91 -278t249 -116q104 0 187 52t119 128l132 -40 q-56 -120 -166 -195t-274 -75q-216 0 -346 144t-146 380q-146 4 -222 70t-76 158z" />
<glyph unicode="&#x4be;" horiz-adv-x="1734" d="M46 968q0 84 14 154h162q-14 -80 -14 -142q0 -156 200 -158q18 340 193 526t437 186q148 0 266 -59t189 -162t108 -232t37 -275q0 -88 -2 -122h-1062q14 -280 135 -432t337 -152q262 0 410 230l136 -56q-64 -122 -183 -204t-277 -100v-376h-158v378q-270 20 -409 212 t-155 500q-364 14 -364 284zM572 820h900q-6 68 -6 72q-8 98 -32 181t-71 160t-131 121t-196 44q-188 0 -324 -149t-140 -429z" />
<glyph unicode="&#x4bf;" horiz-adv-x="1384" d="M498 606h646q2 156 -84 266t-232 110q-148 0 -234 -111t-96 -265zM46 716q0 58 20 118h142q-12 -52 -12 -94q0 -46 35 -80t115 -38q22 218 151 354t331 136q214 0 343 -149t129 -395q2 -44 -4 -80h-798q-2 -158 89 -276t251 -118q104 0 186 52t120 128l132 -40 q-48 -110 -148 -184t-234 -82v-374h-158v380q-174 30 -277 171t-115 343q-146 4 -222 70t-76 158z" />
<glyph unicode="&#x4c0;" horiz-adv-x="574" d="M208 0v1498h160v-1498h-160z" />
<glyph unicode="&#x4c1;" horiz-adv-x="1642" d="M-8 0l636 794l-606 704h212l506 -618v618h160v-618l506 618h212l-604 -704l638 -794h-214l-538 698v-698h-160v698l-536 -698h-212zM492 1956h122q4 -80 62 -136t142 -56q86 0 144 57t62 135h122q-6 -118 -89 -206t-239 -88t-238 88t-88 206z" />
<glyph unicode="&#x4c2;" horiz-adv-x="1338" d="M338 1568h122q4 -80 62 -136t142 -56q86 0 144 57t62 135h122q-6 -118 -89 -206t-239 -88t-238 88t-88 206zM-2 0l504 560l-492 516h192l386 -410v410h154v-408l392 408h188l-494 -516l514 -560h-192l-408 450v-450h-154v448l-402 -448h-188z" />
<glyph unicode="&#x4c3;" horiz-adv-x="1342" d="M208 0v1498h160v-682h4l682 682h212l-742 -728q70 18 194 14q220 -12 371 -177t151 -469q0 -294 -157 -455t-409 -161q-124 0 -252 20v138q140 -24 254 -24q182 0 291 132t109 350q0 244 -126 380t-334 136q-144 0 -248 -30v-624h-160z" />
<glyph unicode="&#x4c4;" horiz-adv-x="1100" d="M160 0v1076h154v-478l500 478h208l-536 -506q72 8 118 4q196 -24 292 -160t96 -354q0 -234 -130 -386t-382 -152q-60 0 -178 18v132q94 -20 172 -20q168 0 265 110t97 298q0 190 -86 296t-262 106q-94 0 -174 -36v-426h-154z" />
<glyph unicode="&#x4c5;" horiz-adv-x="1552" d="M28 -28v138q60 -10 130 -10q122 0 190 169t108 581l62 648h800v-1498h-160v1360h-496l-50 -534q-46 -474 -146 -668t-302 -194q-68 0 -136 8zM1132 -424l150 560h146l-152 -560h-144z" />
<glyph unicode="&#x4c6;" horiz-adv-x="1270" d="M892 -424l150 560h146l-152 -560h-144zM28 104q64 -10 110 -10t83 22t63 69t44 94t32 124t21 131t17 142l42 400h636v-1076h-154v946h-344l-30 -286q-40 -372 -125 -534t-267 -162q-36 0 -128 8v132z" />
<glyph unicode="&#x4c7;" horiz-adv-x="1474" d="M208 0v1498h160v-660h738v660h160v-1622q0 -178 -111 -266t-303 -88q-102 0 -190 14v134q84 -14 170 -14q274 0 274 234v814h-738v-704h-160z" />
<glyph unicode="&#x4c8;" horiz-adv-x="1190" d="M160 0v1076h154v-452h564v452h152v-1184q0 -180 -103 -275t-279 -95q-88 0 -162 10v134q76 -10 142 -10q116 0 183 62t67 182v594h-564v-494h-154z" />
<glyph unicode="&#x4c9;" horiz-adv-x="1442" d="M1082 -424l150 560h146l-152 -560h-144zM208 0v1498h160v-660h736v660h160v-1498h-160v704h-736v-704h-160z" />
<glyph unicode="&#x4ca;" horiz-adv-x="1190" d="M160 0v1076h154v-456h564v456h152v-1076h-152v490h-564v-490h-154zM846 -424l150 560h146l-152 -560h-144z" />
<glyph unicode="&#x4cb;" horiz-adv-x="1442" d="M994 138h138v-544h-138v544zM176 968v530h160v-532q0 -140 86 -218t240 -78q142 0 277 105t135 243v480h160v-1498h-160v738h-4q-56 -78 -170 -139t-260 -61q-210 0 -337 109t-127 321z" />
<glyph unicode="&#x4cc;" horiz-adv-x="1152" d="M754 138h138v-544h-138v544zM140 734v342h154v-342q0 -238 246 -238q114 0 207 70t93 174v336h152v-1076h-152v516h-2q-40 -66 -125 -110t-193 -44q-102 0 -184 33t-139 120t-57 219z" />
<glyph unicode="&#x4cd;" horiz-adv-x="1786" d="M208 0v1498h208l328 -806q32 -84 87 -229t57 -151h8q12 30 146 380l326 806h212v-1498h-160v846q0 162 20 454h-8l-76 -200l-392 -988h-140l-392 988l-80 200h-8q24 -322 24 -454v-846h-160zM1380 -424l150 560h146l-152 -560h-144z" />
<glyph unicode="&#x4ce;" horiz-adv-x="1418" d="M160 0v1076h168l254 -530q72 -150 126 -274h4q124 272 124 274l254 530h168v-1076h-146v582q0 106 6 238h-2l-64 -140l-288 -602h-110l-286 600l-66 140h-2q6 -108 6 -236v-582h-146zM1072 -424l150 560h146l-152 -560h-144z" />
<glyph unicode="&#x4cf;" horiz-adv-x="574" d="M208 0v1498h160v-1498h-160z" />
<glyph unicode="&#x4d0;" horiz-adv-x="1290" d="M324 1958h122q4 -80 62 -136t142 -56q86 0 144 57t62 135h122q-6 -118 -89 -206t-239 -88t-238 88t-88 206zM368 560h564l-176 504q-16 46 -51 147t-49 141h-12q-84 -246 -98 -288zM-8 0l560 1498h196l560 -1498h-176l-152 432h-660l-152 -432h-176z" />
<glyph unicode="&#x4d1;" horiz-adv-x="1126" d="M240 276q0 -76 64 -129t176 -53q142 0 243 92t101 234v150q-88 -22 -280 -52q-156 -28 -230 -86t-74 -156zM84 264q0 300 464 372q208 34 276 56v62q0 100 -72 166t-204 66q-96 0 -185 -45t-151 -121l-100 84q80 92 193 150t239 58q432 0 432 -422v-690h-148v176 q-32 -86 -132 -149t-236 -63q-178 0 -277 84t-99 216zM220 1568h122q4 -80 62 -136t142 -56q86 0 144 57t62 135h122q-6 -118 -89 -206t-239 -88t-238 88t-88 206z" />
<glyph unicode="&#x4d2;" horiz-adv-x="1300" d="M368 560h564l-176 504q-16 46 -51 147t-49 141h-12q-84 -246 -98 -288zM-8 0l560 1498h196l560 -1498h-176l-152 432h-660l-152 -432h-176zM334 1730v194h204v-194h-204zM756 1730v194h202v-194h-202z" />
<glyph unicode="&#x4d3;" horiz-adv-x="1126" d="M240 276q0 -76 64 -129t176 -53q142 0 243 92t101 234v150q-88 -22 -280 -52q-156 -28 -230 -86t-74 -156zM84 264q0 300 464 372q208 34 276 56v62q0 100 -72 166t-204 66q-96 0 -185 -45t-151 -121l-100 84q80 92 193 150t239 58q432 0 432 -422v-690h-148v176 q-32 -86 -132 -149t-236 -63q-178 0 -277 84t-99 216zM230 1344v194h204v-194h-204zM652 1344v194h202v-194h-202z" />
<glyph unicode="&#x4d4;" horiz-adv-x="1910" d="M490 560h476v788h-18zM-8 0l874 1498h946v-136h-688v-520h614v-134h-622v-572h714v-136h-864v432h-552l-244 -432h-178z" />
<glyph unicode="&#x4d5;" horiz-adv-x="1848" d="M70 266q0 300 462 370q240 42 278 56q0 8 -1 32t-1 30q0 94 -69 163t-195 69q-208 0 -348 -166l-100 84q80 94 196 151t252 57q278 0 368 -230q54 106 152 168t224 62q210 0 336 -154t126 -390v-80h-784v-42q14 -142 97 -247t227 -105q106 0 185 52t119 128l132 -40 q-56 -122 -166 -196t-272 -74q-142 0 -246 75t-162 203q-138 -278 -434 -278q-174 0 -275 82t-101 220zM226 276q0 -78 63 -130t173 -52q144 0 245 92t101 236v148q-72 -18 -270 -50q-312 -50 -312 -244zM966 606h628q0 158 -86 267t-220 109q-132 0 -215 -99t-103 -243z " />
<glyph unicode="&#x4d6;" horiz-adv-x="1240" d="M340 1958h122q4 -80 62 -136t142 -56q86 0 144 57t62 135h122q-6 -118 -89 -206t-239 -88t-238 88t-88 206zM208 0v1498h936v-136h-776v-520h700v-134h-700v-572h792v-136h-952z" />
<glyph unicode="&#x4d7;" horiz-adv-x="1132" d="M88 546q0 252 136 409t352 157q220 0 346 -153t126 -391q0 -28 -4 -80h-800q0 -162 90 -278t250 -116q104 0 184 49t124 131l132 -40q-50 -118 -162 -194t-278 -76q-224 0 -360 160t-136 422zM248 606h644q0 158 -86 267t-230 109q-146 0 -235 -112t-93 -264zM246 1568 h122q4 -80 62 -136t142 -56q86 0 144 57t62 135h122q-6 -118 -89 -206t-239 -88t-238 88t-88 206z" />
<glyph unicode="&#x4d8;" horiz-adv-x="1428" d="M64 694q0 86 2 120h1062q-12 270 -132 427t-340 157q-256 0 -410 -230l-136 56q78 148 221 229t327 81q316 0 477 -218t161 -570q0 -366 -177 -574t-455 -208q-198 0 -337 105t-201 266t-62 359zM230 676q0 -10 1 -25t1 -21q4 -100 27 -187t71 -168t135 -128t203 -47 q82 0 159 32t146 97t112 181t45 266h-900z" />
<glyph unicode="&#x4d9;" horiz-adv-x="1130" d="M74 508q0 54 2 80h800q0 160 -90 277t-250 117q-108 0 -187 -51t-119 -129l-130 40q52 116 160 193t278 77q230 0 362 -162t132 -420q0 -254 -136 -410t-350 -156q-216 0 -344 152t-128 392zM230 470q0 -158 85 -267t231 -109q142 0 231 109t99 267h-646z" />
<glyph unicode="&#x4da;" horiz-adv-x="1428" d="M384 1730v194h204v-194h-204zM806 1730v194h202v-194h-202zM64 694q0 86 2 120h1062q-12 270 -132 427t-340 157q-256 0 -410 -230l-136 56q78 148 221 229t327 81q316 0 477 -218t161 -570q0 -366 -177 -574t-455 -208q-198 0 -337 105t-201 266t-62 359zM230 676 q0 -10 1 -25t1 -21q4 -100 27 -187t71 -168t135 -128t203 -47q82 0 159 32t146 97t112 181t45 266h-900z" />
<glyph unicode="&#x4db;" horiz-adv-x="1112" d="M244 1344v194h204v-194h-204zM666 1344v194h202v-194h-202zM74 508q0 54 2 80h800q0 160 -90 277t-250 117q-108 0 -187 -51t-119 -129l-130 40q52 116 160 193t278 77q230 0 362 -162t132 -420q0 -254 -136 -410t-350 -156q-216 0 -344 152t-128 392zM230 470 q0 -158 85 -267t231 -109q142 0 231 109t99 267h-646z" />
<glyph unicode="&#x4dc;" horiz-adv-x="1642" d="M510 1730v194h204v-194h-204zM932 1730v194h202v-194h-202zM-8 0l636 794l-606 704h212l506 -618v618h160v-618l506 618h212l-604 -704l638 -794h-214l-538 698v-698h-160v698l-536 -698h-212z" />
<glyph unicode="&#x4dd;" horiz-adv-x="1338" d="M358 1346v194h204v-194h-204zM780 1346v194h202v-194h-202zM-2 0l504 560l-492 516h192l386 -410v410h154v-408l392 408h188l-494 -516l514 -560h-192l-408 450v-450h-154v448l-402 -448h-188z" />
<glyph unicode="&#x4de;" horiz-adv-x="1236" d="M296 1729.14v194.604h204v-194.604h-204zM718 1729.14v194.604h202v-194.604h-202zM90 258l128 52q56 -92 159 -153t215 -61q152 0 266 82t114 234q0 148 -119 230t-285 82q-84 0 -130 -4v132q42 -4 124 -4q146 0 249 79t103 211q0 116 -88 191t-228 75q-228 0 -332 -226 l-140 46q136 310 478 310q216 0 344 -108t128 -274q0 -130 -76 -223t-180 -133q122 -32 219 -129t97 -251q0 -214 -156 -333t-386 -119q-180 0 -312 84t-192 210z" />
<glyph unicode="&#x4df;" horiz-adv-x="958" d="M158 1344v194h204v-194h-204zM580 1344v194h202v-194h-202zM40 180l118 60q40 -58 117 -102t161 -44q116 0 193 53t77 145q0 88 -73 151t-233 63h-88v116h88q136 0 200 53t64 133t-56 127t-166 47q-76 0 -140 -40t-104 -102l-126 56q128 216 372 216q176 0 276 -83 t100 -213q0 -174 -186 -244l2 -2q94 -28 160 -100t66 -180q0 -154 -117 -240t-305 -86q-128 0 -235 59t-165 157z" />
<glyph unicode="&#x4e0;" horiz-adv-x="1214" d="M82 264l134 50q46 -92 134 -156t216 -64q162 0 261 97t99 251q0 166 -107 262t-319 96h-168v112l452 454h-654v132h878v-102l-480 -484q174 0 298 -54q260 -106 260 -416q0 -204 -137 -342t-375 -138q-342 0 -492 302z" />
<glyph unicode="&#x4e1;" horiz-adv-x="1100" d="M68 -180l132 48q34 -88 106 -153t188 -65q154 0 239 108t85 252q0 146 -95 257t-299 111h-124v112l404 456h-592v130h790v-102l-422 -480q254 -10 375 -152t121 -330q0 -200 -129 -345t-355 -145q-160 0 -269 85t-155 213z" />
<glyph unicode="&#x4e2;" horiz-adv-x="1482" d="M420 1758v108h686v-108h-686zM208 1498h160v-962q0 -154 -10 -290h8l106 188l626 1064h176v-1498h-160v960q0 150 12 290h-10l-102 -178l-630 -1072h-176v1498z" />
<glyph unicode="&#x4e3;" horiz-adv-x="1202" d="M274 1356v108h686v-108h-686zM160 0v1076h154v-564q0 -54 -10 -274h8l100 148l458 690h172v-1076h-154v586q0 160 8 262h-4l-88 -140l-472 -708h-172z" />
<glyph unicode="&#x4e4;" horiz-adv-x="1482" d="M456 1730v194h204v-194h-204zM878 1730v194h202v-194h-202zM208 1498h160v-962q0 -154 -10 -290h8l106 188l626 1064h176v-1498h-160v960q0 150 12 290h-10l-102 -178l-630 -1072h-176v1498z" />
<glyph unicode="&#x4e5;" horiz-adv-x="1202" d="M304 1344v194h204v-194h-204zM726 1344v194h202v-194h-202zM160 0v1076h154v-564q0 -54 -10 -274h8l100 148l458 690h172v-1076h-154v586q0 160 8 262h-4l-88 -140l-472 -708h-172z" />
<glyph unicode="&#x4e6;" horiz-adv-x="1452" d="M414 1730v194h204v-194h-204zM836 1730v194h202v-194h-202zM104 748q0 352 170 569t454 217q286 0 453 -216t167 -572q0 -360 -169 -571t-451 -211q-284 0 -454 213t-170 571zM268 748q0 -296 124 -471t336 -175q208 0 332 172t124 472q0 296 -120 474t-336 178 q-212 0 -336 -176t-124 -474z" />
<glyph unicode="&#x4e7;" horiz-adv-x="1144" d="M254 1344v194h204v-194h-204zM676 1344v194h202v-194h-202zM244 538q0 -204 94 -324t234 -120q138 0 233 120t95 324q0 208 -96 326t-232 118q-138 0 -233 -118t-95 -326zM88 538q0 246 127 410t357 164q228 0 356 -164t128 -410q0 -104 -27 -202t-82 -183t-152 -137 t-223 -52q-124 0 -221 51t-152 136t-83 183t-28 204z" />
<glyph unicode="&#x4e8;" horiz-adv-x="1454" d="M104 748q0 352 170 569t454 217q286 0 454 -216t168 -572q0 -360 -170 -571t-452 -211q-284 0 -454 213t-170 571zM1184 680h-914q16 -268 137 -423t321 -155q196 0 319 153t137 425zM270 806h914q-12 270 -132 431t-324 161q-202 0 -324 -159t-134 -433z" />
<glyph unicode="&#x4e9;" horiz-adv-x="1142" d="M88 538q0 246 127 410t357 164q226 0 354 -164t128 -410q0 -104 -27 -202t-82 -183t-151 -137t-222 -52q-124 0 -221 51t-152 136t-83 183t-28 204zM896 476h-650q14 -176 105 -279t221 -103q128 0 219 104t105 278zM248 604h646q-14 174 -105 276t-217 102t-218 -101 t-106 -277z" />
<glyph unicode="&#x4ea;" horiz-adv-x="1454" d="M104 748q0 352 170 569t454 217q286 0 454 -216t168 -572q0 -360 -170 -571t-452 -211q-284 0 -454 213t-170 571zM1184 680h-914q16 -268 137 -423t321 -155q196 0 319 153t137 425zM270 806h914q-12 270 -132 431t-324 161q-202 0 -324 -159t-134 -433zM414 1730v194 h204v-194h-204zM836 1730v194h202v-194h-202z" />
<glyph unicode="&#x4eb;" horiz-adv-x="1142" d="M254 1344v194h204v-194h-204zM676 1344v194h202v-194h-202zM88 538q0 246 127 410t357 164q226 0 354 -164t128 -410q0 -104 -27 -202t-82 -183t-151 -137t-222 -52q-124 0 -221 51t-152 136t-83 183t-28 204zM896 476h-650q14 -176 105 -279t221 -103q128 0 219 104 t105 278zM248 604h646q-14 174 -105 276t-217 102t-218 -101t-106 -277z" />
<glyph unicode="&#x4ec;" horiz-adv-x="1326" d="M288 1730v194h204v-194h-204zM710 1730v194h202v-194h-202zM56 316l144 46q50 -110 150 -185t234 -75q200 0 329 157t143 429h-706v128h706q-16 268 -142 425t-330 157q-218 0 -352 -240l-136 48q62 134 186 231t300 97q284 0 462 -210t178 -576t-179 -575t-461 -209 q-196 0 -328 104t-198 248z" />
<glyph unicode="&#x4ed;" horiz-adv-x="1018" d="M148 1344v194h204v-194h-204zM570 1344v194h202v-194h-202zM40 246l132 40q34 -76 109 -135t169 -59q130 0 219 106t97 276h-442v122h444q-10 170 -97 277t-221 107q-88 0 -156 -53t-98 -131l-130 38q38 116 139 196t245 80q226 0 353 -164t127 -410q0 -258 -132 -416 t-348 -158q-146 0 -256 86t-154 198z" />
<glyph unicode="&#x4ee;" horiz-adv-x="1100" d="M216 1758v108h686v-108h-686zM-8 1498h168l282 -630q12 -28 51 -116t61 -136h4q16 42 106 244l278 638h164l-528 -1190q-76 -172 -160 -252t-204 -80h-72v136h46q84 0 133 49t107 181l46 108z" />
<glyph unicode="&#x4ef;" horiz-adv-x="1006" d="M148 1356v108h686v-108h-686zM16 1076h180l222 -630q50 -140 90 -272h8q30 98 88 272l212 630h176l-464 -1256q-60 -160 -139 -225t-193 -65h-60v128h36q76 0 129 44t95 158l40 126z" />
<glyph unicode="&#x4f0;" horiz-adv-x="1100" d="M244 1730v194h204v-194h-204zM666 1730v194h202v-194h-202zM-8 1498h168l282 -630q12 -28 51 -116t61 -136h4q16 42 106 244l278 638h164l-528 -1190q-76 -172 -160 -252t-204 -80h-72v136h46q84 0 133 49t107 181l46 108z" />
<glyph unicode="&#x4f1;" horiz-adv-x="964" d="M180 1344v194h204v-194h-204zM602 1344v194h202v-194h-202zM16 1076h180l222 -630q50 -140 90 -272h8q30 98 88 272l212 630h176l-464 -1256q-60 -160 -139 -225t-193 -65h-60v128h36q76 0 129 44t95 158l40 126z" />
<glyph unicode="&#x4f2;" horiz-adv-x="1100" d="M604 1666l210 360h190l-262 -360h-138zM292 1666l210 360h190l-262 -360h-138zM-8 1498h168l282 -630q12 -28 51 -116t61 -136h4q16 42 106 244l278 638h164l-528 -1190q-76 -172 -160 -252t-204 -80h-72v136h46q84 0 133 49t107 181l46 108z" />
<glyph unicode="&#x4f3;" horiz-adv-x="976" d="M528 1276l210 360h190l-262 -360h-138zM216 1276l210 360h190l-262 -360h-138zM16 1076h180l222 -630q50 -140 90 -272h8q30 98 88 272l212 630h176l-464 -1256q-60 -160 -139 -225t-193 -65h-60v128h36q76 0 129 44t95 158l40 126z" />
<glyph unicode="&#x4f4;" horiz-adv-x="1444" d="M406 1730v194h204v-194h-204zM828 1730v194h202v-194h-202zM178 968v530h160v-532q0 -140 86 -218t240 -78q142 0 277 105t135 243v480h160v-1498h-160v738h-4q-56 -78 -170 -139t-260 -61q-210 0 -337 109t-127 321z" />
<glyph unicode="&#x4f5;" horiz-adv-x="1152" d="M250 1344v194h204v-194h-204zM672 1344v194h202v-194h-202zM140 734v342h154v-342q0 -238 246 -238q114 0 207 70t93 174v336h152v-1076h-152v516h-2q-40 -66 -125 -110t-193 -44q-102 0 -184 33t-139 120t-57 219z" />
<glyph unicode="&#x4f6;" horiz-adv-x="1172" d="M338 138h138v-544h-138v544zM208 0v1498h884v-138h-724v-1360h-160z" />
<glyph unicode="&#x4f7;" horiz-adv-x="844" d="M280 138h138v-544h-138v544zM160 0v1076h644v-130h-490v-946h-154z" />
<glyph unicode="&#x4f8;" horiz-adv-x="1794" d="M208 0v1498h160v-652h334q226 0 365 -104t139 -322q0 -190 -123 -305t-327 -115h-548zM368 136h368q144 0 225 72t81 212q0 138 -82 215t-242 77h-350v-576zM1428 0v1498h160v-1498h-160zM596 1730v194h204v-194h-204zM1018 1730v194h202v-194h-202z" />
<glyph unicode="&#x4f9;" horiz-adv-x="1446" d="M1116 0v1076h154v-1076h-154zM160 0v1076h156v-438h254q192 0 289 -83t97 -237q0 -140 -95 -229t-273 -89h-428zM316 132h262q222 0 222 188t-228 188h-256v-376zM434 1344v194h204v-194h-204zM856 1344v194h202v-194h-202z" />
<glyph unicode="&#x4fa;" horiz-adv-x="1120" d="M44 688v134h164v676h884v-136h-724v-540h426v-134h-426v-558h100v-230q0 -178 -67 -250t-199 -72q-38 0 -74 6v126q40 -8 60 -8q70 0 107 40t37 138v120h-124v688h-164z" />
<glyph unicode="&#x4fb;" horiz-adv-x="844" d="M80 -290q40 -8 60 -8q70 0 107 40t37 140v118h-124v456h-124v126h124v494h644v-130h-490v-364h358v-126h-358v-326h106v-230q0 -178 -67 -250t-199 -72q-38 0 -74 6v126z" />
<glyph unicode="&#x4fc;" horiz-adv-x="1210" d="M-4 0l492 770l-468 728h200l220 -362q28 -46 81 -136t63 -108h8q26 46 77 129t71 115l220 362h200l-472 -728l496 -770h-196l-236 376q-28 46 -86 143t-74 123h-8q-82 -142 -158 -266l-234 -376h-196zM842 -298q30 -6 60 -6q72 0 108 44t36 158v234h136v-234 q0 -182 -67 -254t-199 -72q-38 0 -74 6v124z" />
<glyph unicode="&#x4fd;" horiz-adv-x="1008" d="M8 0l388 558l-368 518h184l188 -278q16 -26 44 -69t40 -59h8q12 22 41 66t41 62l186 278h184l-364 -518l388 -558h-184l-210 320q-52 74 -82 122h-8q-10 -18 -80 -122l-212 -320h-184zM640 -298q30 -6 60 -6q72 0 108 44t36 158v234h136v-234q0 -182 -67 -254t-199 -72 q-38 0 -74 6v124z" />
<glyph unicode="&#x4fe;" horiz-adv-x="1180" d="M170 706v126h280l-430 666h200l248 -406q58 -96 118 -200h8q52 90 120 200l246 406h200l-432 -666h280v-126h-278l456 -706h-198l-272 438q-18 32 -61 103t-61 103h-8q-80 -136 -122 -206l-270 -438h-198l452 706h-278z" />
<glyph unicode="&#x4ff;" horiz-adv-x="984" d="M112 498v126h238l-322 452h186l188 -278q14 -22 42 -64t40 -64h8l88 132l180 274h186l-318 -452h240v-126h-244l346 -498h-184l-212 320q-54 78 -82 122h-8q-18 -32 -78 -122l-214 -320h-184l346 498h-242z" />
<glyph unicode="&#x2000;" horiz-adv-x="1059" />
<glyph unicode="&#x2001;" horiz-adv-x="2118" />
<glyph unicode="&#x2002;" horiz-adv-x="1059" />
<glyph unicode="&#x2003;" horiz-adv-x="2118" />
<glyph unicode="&#x2004;" horiz-adv-x="706" />
<glyph unicode="&#x2005;" horiz-adv-x="529" />
<glyph unicode="&#x2006;" horiz-adv-x="353" />
<glyph unicode="&#x2007;" horiz-adv-x="353" />
<glyph unicode="&#x2008;" horiz-adv-x="264" />
<glyph unicode="&#x2009;" horiz-adv-x="423" />
<glyph unicode="&#x200a;" horiz-adv-x="117" />
<glyph unicode="&#x2010;" d="M96 674v136h944v-136h-944z" />
<glyph unicode="&#x2011;" d="M96 674v136h944v-136h-944z" />
<glyph unicode="&#x2012;" d="M96 674v136h944v-136h-944z" />
<glyph unicode="&#x2013;" horiz-adv-x="1046" d="M84 656v136h878v-136h-878z" />
<glyph unicode="&#x2014;" horiz-adv-x="1978" d="M0 656v136h1978v-136h-1978z" />
<glyph unicode="&#x2018;" horiz-adv-x="704" d="M228 1114v172q0 318 196 482l90 -76q-76 -72 -106 -151t-30 -197h118v-230h-268z" />
<glyph unicode="&#x2019;" horiz-adv-x="704" d="M208 1450v230h268v-172q0 -318 -196 -482l-90 76q76 72 106 151t30 197h-118z" />
<glyph unicode="&#x201a;" horiz-adv-x="704" d="M208 8v230h268v-172q0 -318 -196 -482l-90 76q76 72 106 151t30 197h-118z" />
<glyph unicode="&#x201c;" horiz-adv-x="1040" d="M622 1114v172q0 318 196 482l90 -76q-76 -72 -106 -151t-30 -197h118v-230h-268zM162 1114v172q0 334 196 498l90 -76q-136 -126 -136 -364h118v-230h-268z" />
<glyph unicode="&#x201d;" horiz-adv-x="1040" d="M132 1102q76 72 106 151t30 197h-118v230h268v-172q0 -318 -196 -482zM594 1086q80 74 108 157t28 207h-118v230h268v-172q0 -334 -196 -498z" />
<glyph unicode="&#x201e;" horiz-adv-x="1040" d="M132 -340q76 72 106 151t30 197h-118v230h268v-172q0 -318 -196 -482zM592 -356q80 74 108 157t28 207h-118v230h268v-172q0 -334 -196 -498z" />
<glyph unicode="&#x2022;" horiz-adv-x="1024" d="M292 502v436h440v-436h-440z" />
<glyph unicode="&#x2026;" horiz-adv-x="2064" d="M1594 600v238h252v-238h-252zM906 600v238h252v-238h-252zM218 600v238h252v-238h-252z" />
<glyph unicode="&#x202f;" horiz-adv-x="423" />
<glyph unicode="&#x2039;" horiz-adv-x="734" d="M150 504l344 470l114 -76l-288 -392l286 -390l-112 -78z" />
<glyph unicode="&#x203a;" horiz-adv-x="734" d="M128 118l286 390l-288 392l114 76l344 -468l-344 -468z" />
<glyph unicode="&#x205f;" horiz-adv-x="529" />
<glyph unicode="&#x20ac;" horiz-adv-x="1430" d="M38 534v116h178q-6 54 -6 98q0 46 4 110h-174v116h188q46 262 216 411t398 149q180 0 305 -96t183 -232l-132 -48q-140 242 -358 242q-156 0 -282 -116t-164 -310h586v-116h-602q-4 -32 -4 -110q0 -44 6 -98h598v-116h-580q34 -200 155 -317t289 -117q134 0 237 77 t149 185l146 -46q-62 -144 -200 -249t-332 -105q-232 0 -399 153t-211 419h-194z" />
<glyph unicode="&#x2122;" horiz-adv-x="1654" d="M754 808v860h144l184 -454l66 -172l66 172l184 454h146v-860h-124v484q0 50 4 146l-224 -568h-102l-226 570q6 -74 6 -148v-484h-124zM12 1558v110h624v-110h-250v-750h-124v750h-250z" />
<glyph unicode="&#x25fc;" horiz-adv-x="1080" d="M0 1080h1080v-1080h-1080v1080z" />
<glyph unicode="&#xe00c;" horiz-adv-x="1306" d="M352 1958h202l226 -350h-138z" />
<glyph unicode="&#xe00d;" horiz-adv-x="1306" d="M526 1608l226 350h202l-292 -350h-136z" />
<glyph unicode="&#xe010;" horiz-adv-x="1306" d="M340 1652v194h204v-194h-204zM762 1652v194h202v-194h-202z" />
<glyph unicode="&#xe013;" horiz-adv-x="1306" d="M306 1678v108h686v-108h-686z" />
<glyph unicode="&#xe014;" horiz-adv-x="1306" d="M326 1910h122q4 -80 62 -136t142 -56q86 0 144 57t62 135h122q-6 -118 -89 -206t-239 -88t-238 88t-88 206z" />
<glyph unicode="&#xe01a;" horiz-adv-x="1306" d="M754 1606l210 360h190l-262 -360h-138zM442 1606l210 360h190l-262 -360h-138z" />
<glyph unicode="&#xe01b;" horiz-adv-x="1280" d="M714 668l104 82l354 -444l-108 -78z" />
<glyph unicode="&#xe01c;" horiz-adv-x="1306" d="M250 1958h188l212 -360h-138zM562 1958h190l210 -360h-138z" />
<glyph unicode="&#xe028;" horiz-adv-x="1190" d="M910 138h138v-544h-138v544z" />
<glyph unicode="&#xe030;" horiz-adv-x="1428" d="M46 704v128h734v-128h-734z" />
<glyph unicode="&#xe031;" horiz-adv-x="1216" d="M858 -298q30 -6 60 -6q72 0 108 44t36 158v234h136v-234q0 -182 -67 -254t-199 -72q-38 0 -74 6v124z" />
<glyph unicode="&#xe032;" horiz-adv-x="1502" d="M1122 -424l150 560h146l-152 -560h-144z" />
<glyph unicode="&#xe034;" horiz-adv-x="1258" d="M540 -2h152q82 -44 149 -113t67 -147q0 -76 -54 -116t-152 -40q-88 0 -158 28v102q78 -26 128 -26q96 0 96 78q0 92 -228 234z" />
</font>
</defs>
</svg>
