<?xml version="1.0" standalone="no"?>
<!DOCTYPE svg PUBLIC "-//W3C//DTD SVG 1.1//EN" "http://www.w3.org/Graphics/SVG/1.1/DTD/svg11.dtd" >
<svg xmlns="http://www.w3.org/2000/svg" xmlns:xlink="http://www.w3.org/1999/xlink" version="1.1">
<metadata></metadata>
<defs>
<font id="gothic_a1bold" horiz-adv-x="600" >
<font-face units-per-em="1024" ascent="817" descent="-207" />
<missing-glyph horiz-adv-x="250" />
<glyph horiz-adv-x="0" />
<glyph horiz-adv-x="341" />
<glyph unicode=" "  horiz-adv-x="250" />
<glyph unicode="&#x09;" horiz-adv-x="250" />
<glyph unicode="&#xa0;" horiz-adv-x="250" />
<glyph unicode="!" horiz-adv-x="334" d="M83 -5v152h169v-152h-169zM96 796h141l-8 -572h-123z" />
<glyph unicode="&#x22;" horiz-adv-x="596" d="M72 556l96 323h146l-140 -323h-102zM312 556l97 323h145l-139 -323h-103z" />
<glyph unicode="#" horiz-adv-x="789" d="M54 198v98h131l24 179h-122v97h134l27 197h116l-26 -197h164l26 197h117l-26 -197h118v-97h-131l-23 -179h121v-98h-134l-25 -196h-118l26 196h-164l-26 -196h-117l26 196h-118zM302 296h164l24 179h-165z" />
<glyph unicode="$" horiz-adv-x="627" d="M48 165l96 46q30 -48 76.5 -75t100.5 -27q51 0 86 28t35 80q0 27 -10 46.5t-34.5 35.5t-47.5 26.5t-67.5 29.5t-75.5 34q-134 65 -134 194q0 66 46.5 125.5t137.5 75.5v87h120v-89q58 -6 110.5 -48.5t73.5 -90.5l-98 -47q-57 85 -146 85q-51 0 -82.5 -28t-31.5 -71 q0 -17 4 -31t15 -25.5t21.5 -20t32.5 -19t37 -17t46.5 -19.5t51.5 -21q163 -69 163 -201q0 -90 -54.5 -148.5t-142.5 -74.5v-82h-120v84q-61 6 -121 51.5t-88 106.5z" />
<glyph unicode="%" horiz-adv-x="1077" d="M67 609q0 86 59.5 143t155.5 57q95 0 155 -56.5t60 -143.5q0 -88 -60.5 -144.5t-154.5 -56.5q-95 0 -155 57t-60 144zM187 609q0 -49 28 -76.5t67 -27.5q40 0 67.5 28.5t27.5 75.5q0 48 -27 76t-68 28t-68 -28t-27 -76zM195 -5l557 801h132l-559 -801h-130zM580 182 q0 86 60 143.5t156 57.5q95 0 155 -57t60 -144q0 -89 -61 -144.5t-154 -55.5q-95 0 -155.5 56.5t-60.5 143.5zM700 182q0 -49 28.5 -76.5t67.5 -27.5q40 0 67.5 28t27.5 76t-27 76t-68 28t-68.5 -28t-27.5 -76z" />
<glyph unicode="&#x26;" horiz-adv-x="728" d="M50 209q0 148 168 257q-48 64 -60 94q-10 27 -10 55q0 79 57 127.5t153 48.5q83 0 140.5 -42t84.5 -105l-95 -41q-47 81 -119 81q-42 0 -66 -20t-24 -53q0 -17 12 -42t42.5 -68.5t57.5 -79t80 -104.5q27 -35 41 -53q23 56 35 127l116 -20q-18 -116 -72 -209l128 -162 h-153l-48 62q-87 -81 -209 -81q-123 0 -191 66t-68 162zM180 211q0 -56 36.5 -88.5t94.5 -32.5q74 0 137 66l-168 220q-100 -76 -100 -165z" />
<glyph unicode="'" horiz-adv-x="371" d="M89 556l96 323h146l-139 -323h-103z" />
<glyph unicode="(" horiz-adv-x="476" d="M135 381q0 292 183 535l93 -53q-66 -107 -89 -161q-60 -141 -60 -321q0 -154 37.5 -261.5t111.5 -221.5l-93 -54q-88 119 -135.5 247.5t-47.5 289.5z" />
<glyph unicode=")" horiz-adv-x="476" d="M66 -102q78 118 113.5 229.5t35.5 252.5q0 85 -11.5 156.5t-35.5 131.5t-45.5 100t-56.5 95l93 53q83 -112 133 -239.5t50 -296.5q0 -164 -48 -291.5t-135 -244.5z" />
<glyph unicode="*" d="M19 432l44 104l185 -72l-7 193h117l-6 -193l184 72l44 -104l-204 -62l156 -167l-97 -72l-135 183l-136 -183l-96 72l156 167z" />
<glyph unicode="+" d="M29 334v112h207v210h126v-210h209v-112h-209v-218h-126v218h-207z" />
<glyph unicode="," horiz-adv-x="379" d="M45 -169l96 324h146l-139 -324h-103z" />
<glyph unicode="-" d="M52 334v112h496v-112h-496z" />
<glyph unicode="." horiz-adv-x="379" d="M106 0v154h168v-154h-168z" />
<glyph unicode="/" horiz-adv-x="405" d="M-16 -58l305 900h133l-305 -900h-133z" />
<glyph unicode="0" d="M40 395q0 117 23.5 202t63.5 129t82.5 63.5t90.5 19.5q125 0 192.5 -109t67.5 -305q0 -190 -66.5 -302t-192.5 -112q-46 0 -88.5 19t-83 62.5t-65 129t-24.5 203.5zM176 395q0 -305 125 -305q35 0 59.5 25.5t38 70t19.5 96t6 113.5q0 63 -6 115.5t-20 96.5t-39 69t-59 25 q-124 0 -124 -306z" />
<glyph unicode="1" d="M86 558v100h36q163 0 163 120v20h114v-807h-135v567h-178z" />
<glyph unicode="2" d="M45 596q23 99 86 156t165 57q107 0 175 -61.5t68 -166.5q0 -68 -31 -123.5t-90 -111.5q-11 -11 -57 -56t-62.5 -62.5t-43 -52t-42.5 -67.5h324v-108h-484q0 47 15.5 94.5t36 82.5t59 79.5t64 69.5t71.5 69q11 10 16 15q88 84 88 174q0 55 -30 86t-79 31q-105 0 -137 -138 z" />
<glyph unicode="3" d="M30 160l106 39q47 -109 152 -109q57 0 96 35.5t39 100.5q0 59 -43 96t-109 37q-36 0 -72 -4v108q26 -2 68 -2q53 0 90.5 33t37.5 91q0 51 -32 83.5t-81 32.5q-86 0 -126 -114l-108 34q21 83 84.5 135.5t157.5 52.5q110 0 175 -59.5t65 -151.5q0 -61 -31.5 -109t-77.5 -72 q55 -19 96.5 -67.5t41.5 -123.5q0 -115 -73.5 -179.5t-196.5 -64.5q-99 0 -167.5 52t-91.5 126z" />
<glyph unicode="4" d="M22 165v106l348 527h113v-525h98v-108h-98v-172h-130v172h-331zM146 273h207v222q0 54 4 105h-5q-22 -38 -54 -91z" />
<glyph unicode="5" d="M40 147l109 39q18 -42 53 -69t77 -27q63 0 99.5 42.5t36.5 113.5q0 69 -39 113t-99 44q-74 0 -129 -72l-83 32l42 428h400v-109h-279l-24 -207q49 35 119 35q101 0 164 -70.5t63 -190.5q0 -51 -15.5 -97t-46 -85t-83.5 -62t-121 -23q-91 0 -152 45.5t-92 119.5z" />
<glyph unicode="6" d="M44 359q0 91 16.5 169.5t49.5 142.5t89.5 101t130.5 37q159 0 228 -163l-103 -36q-49 91 -124 91q-102 0 -139 -167q-9 -40 -14 -91q19 34 57 57t89 23q105 0 171.5 -76.5t66.5 -193.5q0 -118 -67 -194.5t-185 -76.5q-124 0 -189 84q-77 95 -77 293zM181 252 q0 -74 35 -118t90 -44q54 0 88 43.5t34 118.5q0 77 -34 120t-89 43q-54 0 -89 -45t-35 -118z" />
<glyph unicode="7" d="M46 679v112h502v-89q-187 -298 -279 -709h-136q67 347 262 686h-349z" />
<glyph unicode="8" d="M35 217q0 79 41.5 128.5t96.5 71.5q-114 59 -114 174q0 95 69 156.5t172 61.5t171.5 -61.5t68.5 -156.5q0 -116 -114 -174q59 -24 99.5 -74t40.5 -126q0 -105 -74.5 -170t-191.5 -65q-111 0 -188 62t-77 173zM171 224q0 -58 36 -96t93 -38t93 38t36 96q0 56 -36 97 t-93 41q-56 0 -92.5 -40.5t-36.5 -97.5zM195 585q0 -52 29.5 -84t75.5 -32t75 32.5t29 83.5q0 49 -28.5 82.5t-75.5 33.5t-76 -33.5t-29 -82.5z" />
<glyph unicode="9" d="M37 146l106 35q46 -91 124 -91q41 0 71.5 23t47.5 62t25 81.5t9 91.5q-49 -74 -147 -74q-99 0 -167.5 72.5t-68.5 193.5q0 119 71.5 194t182.5 75q94 0 157 -60t86 -158q15 -65 15 -159q0 -215 -70 -332.5t-213 -117.5q-83 0 -144 50t-85 114zM170 541q0 -72 34.5 -116 t87.5 -44q54 0 87.5 44.5t33.5 115.5q0 69 -32.5 114.5t-88.5 45.5q-54 0 -88 -45t-34 -115z" />
<glyph unicode=":" horiz-adv-x="379" d="M106 68v156h168v-156h-168zM106 492v156h168v-156h-168z" />
<glyph unicode=";" horiz-adv-x="379" d="M45 -100l96 324h146l-139 -324h-103zM111 492v156h169v-156h-169z" />
<glyph unicode="&#x3c;" d="M43 325v117l437 327l69 -96l-381 -289l381 -290l-69 -96z" />
<glyph unicode="=" d="M52 224v112h496v-112h-496zM52 445v112h496v-112h-496z" />
<glyph unicode="&#x3e;" d="M51 94l380 290l-380 289l68 96l438 -327v-117l-438 -327z" />
<glyph unicode="?" horiz-adv-x="615" d="M64 621q23 82 88 137t160 55q105 0 170.5 -61.5t65.5 -162.5q0 -48 -18.5 -86t-45 -63.5t-53 -50t-45 -58.5t-18.5 -75v-35h-132v44q0 42 13 77.5t33 58.5t42.5 46.5t42.5 43t33 46.5t13 58q0 48 -26.5 77t-72.5 29q-88 0 -133 -119zM217 -5v152h169v-152h-169z" />
<glyph unicode="@" horiz-adv-x="1005" d="M52 372q0 200 132 328.5t339 128.5q189 0 309.5 -114t120.5 -286q0 -82 -21.5 -144t-56.5 -96t-73 -50.5t-78 -16.5q-43 0 -76.5 26t-41.5 66h-1q-14 -35 -54.5 -63t-90.5 -28q-78 0 -131 59t-53 156q0 129 66 203t158 74q68 0 108 -52l3 44h97l-17 -316q-1 -36 10.5 -54 t30.5 -18q44 0 77 54.5t33 148.5q0 139 -87 226t-232 87q-157 0 -257.5 -102.5t-100.5 -260.5q0 -168 97 -265t251 -97q117 0 223 31l19 -87q-103 -37 -242 -37q-210 0 -335.5 126.5t-125.5 328.5zM395 340q0 -46 22 -80t59 -34q43 0 77.5 47.5t34.5 155.5q0 40 -19.5 65.5 t-58.5 25.5q-43 0 -79 -50t-36 -130z" />
<glyph unicode="A" horiz-adv-x="708" d="M-4 0l286 791h145l285 -791h-140l-65 196h-306l-65 -196h-140zM236 302h236l-67 205q-7 22 -15.5 49t-18 59.5t-14.5 48.5h-6q-3 -10 -48 -157z" />
<glyph unicode="B" horiz-adv-x="713" d="M89 0v791h300q126 0 189 -56t63 -153q0 -58 -27 -99.5t-71 -64.5q50 -18 88 -67.5t38 -120.5q0 -99 -63.5 -164.5t-177.5 -65.5h-339zM221 112h184q53 0 90.5 31t37.5 87q0 53 -34.5 87t-96.5 34h-181v-239zM221 462h155q57 0 93 27.5t36 82.5q0 49 -30.5 77.5 t-94.5 28.5h-159v-216z" />
<glyph unicode="C" horiz-adv-x="713" d="M42 396q0 190 98 301.5t253 111.5q100 0 171.5 -55t106.5 -136l-113 -37q-64 115 -167 115q-98 0 -155.5 -81.5t-57.5 -218.5q0 -139 58 -220t155 -81q63 0 111.5 38t70.5 93l118 -37q-15 -36 -38.5 -69.5t-59 -66t-87.5 -52t-113 -19.5q-152 0 -251.5 110.5t-99.5 303.5 z" />
<glyph unicode="D" horiz-adv-x="737" d="M89 0v791h235q179 0 276 -102t97 -293q0 -65 -12 -121.5t-39.5 -107.5t-69.5 -87.5t-106.5 -58t-146.5 -21.5h-234zM221 111h87q252 0 252 285q0 152 -66 217.5t-184 65.5h-89v-568z" />
<glyph unicode="E" horiz-adv-x="649" d="M89 0v791h519v-113h-387v-214h349v-111h-349v-241h397v-112h-529z" />
<glyph unicode="F" horiz-adv-x="607" d="M89 0v791h504v-113h-372v-226h333v-111h-333v-341h-132z" />
<glyph unicode="G" horiz-adv-x="763" d="M42 396q0 181 97 297t260 116q61 0 112.5 -20t85.5 -51.5t54.5 -60t33.5 -57.5l-113 -37q-21 32 -38.5 53t-53.5 40.5t-80 19.5q-104 0 -163 -82t-59 -218q0 -139 60 -220t156 -81q83 0 130 48t53 122q3 45 3 65h-194v112h322v-442h-91l-12 81q-65 -99 -215 -99 t-249 112.5t-99 301.5z" />
<glyph unicode="H" horiz-adv-x="759" d="M89 0v791h131v-329h320v329h131v-791h-131v351h-320v-351h-131z" />
<glyph unicode="I" horiz-adv-x="308" d="M89 0v791h132v-791h-132z" />
<glyph unicode="J" horiz-adv-x="552" d="M9 147l109 44q12 -41 40.5 -68.5t69.5 -27.5q50 0 77 38t27 110v548h132v-566q0 -116 -60.5 -179.5t-172.5 -63.5q-91 0 -146.5 48t-75.5 117z" />
<glyph unicode="K" horiz-adv-x="700" d="M89 0v791h132v-358h2l307 358h167l-306 -346l314 -445h-159l-238 352l-87 -99v-253h-132z" />
<glyph unicode="L" horiz-adv-x="589" d="M89 0v791h132v-679h358v-112h-490z" />
<glyph unicode="M" horiz-adv-x="919" d="M89 0v791h161l139 -368q15 -41 38 -111.5t30 -91.5h4q50 145 71 203l136 368h163v-791h-130v359q0 90 14 244h-4l-57 -168l-145 -390h-98l-143 390l-59 169h-5q16 -144 16 -245v-359h-131z" />
<glyph unicode="N" horiz-adv-x="764" d="M89 0v791h138l239 -435l88 -160h5q-15 105 -15 228v367h132v-791h-138l-239 427l-88 165h-5q15 -117 15 -228v-364h-132z" />
<glyph unicode="O" horiz-adv-x="763" d="M42 395q0 186 93 300t247 114t246.5 -113.5t92.5 -300.5t-93 -300t-246 -113q-154 0 -247 113t-93 300zM178 395q0 -139 54.5 -219.5t149.5 -80.5q94 0 148.5 80t54.5 220q0 138 -53.5 219.5t-149.5 81.5q-95 0 -149.5 -81.5t-54.5 -219.5z" />
<glyph unicode="P" horiz-adv-x="696" d="M89 0v791h309q124 0 193.5 -66.5t69.5 -175.5q0 -112 -71.5 -177t-189.5 -65h-179v-307h-132zM221 419h161q68 0 106 33t38 97q0 63 -37 96t-108 33h-160v-259z" />
<glyph unicode="Q" horiz-adv-x="763" d="M42 395q0 188 93.5 301t246.5 113t246 -114t93 -300q0 -185 -92.5 -299t-246.5 -114t-247 114t-93 299zM178 395q0 -139 54.5 -219.5t149.5 -80.5t149 80.5t54 219.5q0 141 -54 221t-149 80t-149.5 -81t-54.5 -220zM352 249l75 68l294 -305l-75 -67z" />
<glyph unicode="R" horiz-adv-x="718" d="M89 0v791h320q122 0 187.5 -64t65.5 -160q0 -81 -36 -132t-83 -69q38 -26 54 -55t27 -88q24 -118 86 -223h-147q-49 83 -77 213q-11 51 -32.5 77t-67.5 26h-165v-316h-132zM221 428h166q67 0 103 33t36 95q0 55 -37 88.5t-105 33.5h-163v-250z" />
<glyph unicode="S" horiz-adv-x="654" d="M27 169l116 39q28 -50 81 -81.5t117 -31.5q66 0 106 32t40 83q0 54 -42.5 84t-124.5 58q-117 39 -158 62q-107 61 -107 177q0 98 77 158t201 60q102 0 174.5 -47.5t105.5 -121.5l-111 -37q-64 93 -170 93q-65 0 -103 -29t-38 -76q0 -14 3 -26.5t12 -23.5t16 -19t23 -17 t25.5 -14t31.5 -13t31.5 -11t35.5 -11.5t35 -11.5q46 -15 81 -32t68.5 -43.5t51.5 -65.5t18 -88q0 -111 -79.5 -172t-205.5 -61q-109 0 -191 50.5t-120 136.5z" />
<glyph unicode="T" horiz-adv-x="608" d="M11 678v113h588v-113h-228v-678h-132v678h-228z" />
<glyph unicode="U" horiz-adv-x="754" d="M85 296v495h133v-495q0 -102 42 -151.5t117 -49.5q77 0 119 51.5t42 149.5v495h132v-495q0 -151 -74 -232.5t-219 -81.5q-140 0 -216 79t-76 235z" />
<glyph unicode="V" horiz-adv-x="659" d="M1 791h143l133 -457q46 -178 51 -196l4 -1q24 92 51 197l133 457h143l-255 -791h-148z" />
<glyph unicode="W" horiz-adv-x="941" d="M13 791h139l81 -436q19 -112 34 -212h5q30 166 39 212l93 436h133l94 -436q7 -33 21.5 -113.5t17.5 -98.5h5q5 31 17.5 106t17.5 106l80 436h139l-178 -791h-151l-90 430q-35 187 -37 201h-4q0 -3 -37 -201l-90 -430h-150z" />
<glyph unicode="X" horiz-adv-x="663" d="M2 0l253 406l-240 385h156l96 -172q9 -17 30.5 -55.5t32.5 -59.5h4q3 6 65 115l97 172h155l-241 -385l254 -406h-153l-108 185q-14 23 -69 120h-4q-58 -104 -67 -120l-107 -185h-154z" />
<glyph unicode="Y" horiz-adv-x="675" d="M-2 791h151l122 -233q46 -90 65 -130h4q22 42 66 130l121 233h152l-274 -470v-321h-132v321z" />
<glyph unicode="Z" horiz-adv-x="648" d="M34 0v96l410 582h-377v113h540v-98l-411 -581h422v-112h-584z" />
<glyph unicode="[" horiz-adv-x="476" d="M133 -129v1018h254v-104h-126v-809h126v-105h-254z" />
<glyph unicode="\" horiz-adv-x="389" d="M-16 842h132l291 -899h-132z" />
<glyph unicode="]" horiz-adv-x="476" d="M89 -24h128v809h-128v104h255v-1018h-255v105z" />
<glyph unicode="^" horiz-adv-x="570" d="M11 495l215 376h118l215 -376h-131l-107 205l-35 70h-1l-36 -72l-107 -203h-131z" />
<glyph unicode="_" horiz-adv-x="524" d="M6 -9h515v-104h-515v104z" />
<glyph unicode="`" horiz-adv-x="371" d="M41 879h145l97 -323h-103z" />
<glyph unicode="a" horiz-adv-x="589" d="M35 151q0 163 242 199q88 13 124 24v31q0 42 -30 66t-80 24q-95 0 -164 -78l-77 66q45 53 107.5 82.5t131.5 29.5q129 0 184 -62.5t55 -174.5v-358h-123v72q-18 -37 -62.5 -63.5t-104.5 -26.5q-95 0 -149 47t-54 122zM163 162q0 -32 25.5 -53.5t67.5 -21.5q60 0 102.5 40 t42.5 105v53q-46 -11 -111 -21q-127 -20 -127 -102z" />
<glyph unicode="b" horiz-adv-x="629" d="M75 0v817h125v-305q23 34 61.5 58.5t87.5 24.5q106 0 175 -81.5t69 -224.5q0 -65 -15 -118t-39 -87.5t-56.5 -58t-65.5 -33.5t-67 -10q-51 0 -92.5 27.5t-59.5 64.5v-74h-123zM199 289q0 -92 36.5 -145.5t95.5 -53.5q58 0 95 51t37 148q0 91 -35.5 144.5t-96.5 53.5 q-60 0 -96 -54.5t-36 -143.5z" />
<glyph unicode="c" horiz-adv-x="555" d="M36 288q0 139 74.5 223t192.5 84q86 0 145 -52t74 -119l-108 -30q-12 38 -41 65.5t-69 27.5q-65 0 -101.5 -57t-36.5 -142q0 -94 39 -146t99 -52q44 0 77.5 30.5t46.5 69.5l108 -31q-19 -70 -83 -123.5t-150 -53.5q-118 0 -192.5 83.5t-74.5 222.5z" />
<glyph unicode="d" horiz-adv-x="629" d="M36 289q0 142 69.5 224t176.5 82q51 0 88.5 -24.5t57.5 -57.5v304h126v-817h-122v75q-18 -38 -59.5 -65.5t-91.5 -27.5q-45 0 -87 17t-78.5 52t-58 96.5t-21.5 141.5zM166 289q0 -94 36.5 -146.5t96.5 -52.5q58 0 94.5 53.5t36.5 145.5q0 89 -35.5 143.5t-95.5 54.5 q-63 0 -98 -54t-35 -144z" />
<glyph unicode="e" horiz-adv-x="601" d="M36 291q0 139 76.5 221.5t192.5 82.5q114 0 188 -83t74 -216q0 -26 -3 -51h-400q0 -66 39.5 -113.5t108.5 -47.5q48 0 84.5 23.5t55.5 60.5l106 -36q-28 -64 -91 -107t-157 -43q-121 0 -197.5 84t-76.5 225zM166 334h272q0 66 -35 112.5t-98 46.5t-100.5 -47.5 t-38.5 -111.5z" />
<glyph unicode="f" horiz-adv-x="373" d="M24 469v108h88v62q0 89 44.5 133.5t125.5 44.5h91v-107h-73q-31 0 -45.5 -19t-14.5 -61v-53h120v-108h-120v-469h-128v469h-88z" />
<glyph unicode="g" horiz-adv-x="612" d="M39 298q0 135 67 216t172 81q53 0 89.5 -26.5t51.5 -58.5v67h126v-497q0 -163 -63.5 -241.5t-195.5 -78.5q-145 0 -225 112l84 58q58 -68 143 -68q55 0 91 42t39 110q2 40 2 66q-19 -32 -57 -53.5t-81 -21.5q-109 0 -176 80.5t-67 212.5zM168 299q0 -88 34.5 -137 t91.5 -49q56 0 90 48t34 139q0 89 -34 138t-89 49q-58 0 -92.5 -51t-34.5 -137z" />
<glyph unicode="h" horiz-adv-x="607" d="M75 0v817h125v-299h3q23 33 63.5 55t85.5 22q83 0 138 -53.5t55 -170.5v-371h-126v355q0 132 -90 132q-55 0 -92 -47t-37 -110v-330h-125z" />
<glyph unicode="i" horiz-adv-x="288" d="M76 663v139h136v-139h-136zM82 0v577h125v-577h-125z" />
<glyph unicode="j" horiz-adv-x="294" d="M-12 -119h20q79 0 79 112v584h127v-589q0 -107 -47.5 -161t-137.5 -54h-41v108zM81 663v139h138v-139h-138z" />
<glyph unicode="k" horiz-adv-x="568" d="M76 0v817h126v-470l205 230h159l-213 -235l226 -342h-148l-160 253l-69 -76v-177h-126z" />
<glyph unicode="l" horiz-adv-x="285" d="M80 0v817h126v-817h-126z" />
<glyph unicode="m" horiz-adv-x="892" d="M69 0v577h123v-67q15 29 54 57t94 28q95 0 140 -103q7 14 18.5 28t32 33t53 30.5t70.5 11.5q177 0 177 -224v-371h-128v367q0 60 -17 90t-60 30q-51 0 -82.5 -42.5t-31.5 -104.5v-340h-125v370q0 117 -78 117q-54 0 -83.5 -40t-29.5 -105v-342h-127z" />
<glyph unicode="n" horiz-adv-x="602" d="M69 0v577h123v-73h1q15 32 55.5 61.5t104.5 29.5q86 0 137 -53t51 -171v-371h-127v354q0 133 -90 133q-55 0 -91.5 -44t-36.5 -109v-334h-127z" />
<glyph unicode="o" horiz-adv-x="604" d="M36 288q0 129 68 218t199 89q130 0 198 -89t68 -218q0 -40 -7.5 -80t-26.5 -81.5t-48 -73t-76.5 -51.5t-107.5 -20q-59 0 -106.5 19.5t-77 50t-49 72t-27 82t-7.5 82.5zM166 288q0 -100 41 -149t96 -49q54 0 95 49t41 149q0 102 -41 150.5t-95 48.5t-95.5 -48.5 t-41.5 -150.5z" />
<glyph unicode="p" horiz-adv-x="629" d="M75 -236v813h122v-75q53 93 152 93q105 0 174.5 -82.5t69.5 -223.5q0 -79 -22 -140.5t-58.5 -96.5t-78 -52.5t-85.5 -17.5q-56 0 -93.5 25.5t-54.5 59.5v-303h-126zM200 289q0 -91 34.5 -145t96.5 -54q59 0 96 52.5t37 146.5q0 91 -35.5 144.5t-97.5 53.5q-61 0 -96 -55 t-35 -143z" />
<glyph unicode="q" horiz-adv-x="628" d="M36 289q0 141 69 223.5t176 82.5q50 0 89 -26.5t62 -66.5v75h122v-813h-126v304q-19 -36 -57 -61t-90 -25q-44 0 -86 17.5t-78.5 52.5t-58.5 96.5t-22 140.5zM166 289q0 -94 36 -146.5t96 -52.5t96 53.5t36 145.5q0 88 -35 143t-96 55q-63 0 -98 -55t-35 -143z" />
<glyph unicode="r" horiz-adv-x="402" d="M69 0v577h122v-62q19 32 54.5 56t84.5 24q46 0 75 -13v-115q-38 12 -75 12q-65 0 -99.5 -50.5t-34.5 -134.5v-294h-127z" />
<glyph unicode="s" horiz-adv-x="534" d="M26 120l91 53q60 -88 156 -88q47 0 74.5 18.5t27.5 49.5q0 25 -22.5 44t-47.5 28.5t-75 25.5q-9 3 -13 4q-36 12 -60.5 23.5t-51.5 31t-41 49t-14 68.5q0 76 64 122t159 46q71 0 134 -37.5t94 -95.5l-84 -51q-59 81 -143 81q-46 0 -70.5 -18.5t-24.5 -48.5 q0 -25 21.5 -44.5t44.5 -28.5t65 -23q11 -3 16 -5q178 -57 178 -172q0 -71 -59.5 -120.5t-168.5 -49.5q-84 0 -149.5 37t-100.5 101z" />
<glyph unicode="t" horiz-adv-x="396" d="M18 469v108h89v171h126v-171h132v-108h-132v-284q0 -41 16.5 -59t50.5 -18h66v-108h-82q-177 0 -177 176v293h-89z" />
<glyph unicode="u" d="M62 209v368h127v-352q0 -135 95 -135q57 0 89 48.5t32 115.5v323h126v-577h-122v67h-1q-14 -31 -53.5 -58t-98.5 -27q-35 0 -66.5 10.5t-61.5 34t-48 70.5t-18 112z" />
<glyph unicode="v" horiz-adv-x="560" d="M9 577h138l87 -296q8 -30 23.5 -91t21.5 -83h2q6 23 23 84t25 90l86 296h138l-200 -577h-144z" />
<glyph unicode="w" horiz-adv-x="796" d="M9 577h136l60 -290q6 -34 30 -164h4q5 28 16.5 86t15.5 78l61 290h133l62 -292q4 -23 15.5 -78t16.5 -84h4q5 28 16.5 90t13.5 74l59 290h136l-156 -577h-141l-61 281q-13 64 -29 159h-4q-5 -31 -16 -88t-14 -71l-61 -281h-141z" />
<glyph unicode="x" horiz-adv-x="572" d="M6 0l205 296l-195 281h153l74 -125q28 -50 40 -70h4q16 29 39 70l74 125h154l-195 -281l206 -296h-150l-85 139q-8 13 -22 36t-21 36h-4q-4 -7 -43 -72l-85 -139h-149z" />
<glyph unicode="y" horiz-adv-x="560" d="M7 577h139l99 -297q25 -82 38 -133h4q5 18 37 133l91 297h138l-239 -653q-32 -88 -82.5 -124t-125.5 -36h-39v106h18q45 0 73.5 19.5t45.5 67.5l19 57z" />
<glyph unicode="z" horiz-adv-x="526" d="M26 0v84l298 385h-274v108h439v-79l-300 -390h312v-108h-475z" />
<glyph unicode="{" horiz-adv-x="476" d="M62 330v98h34q27 0 41.5 31t14.5 84v194q0 73 41 112.5t109 39.5h90v-104h-67q-21 0 -33.5 -16.5t-12.5 -45.5v-196q0 -97 -76 -148q76 -47 76 -143v-196q0 -64 48 -64h65v-105h-90q-65 0 -107.5 38t-42.5 113v198q0 46 -14.5 78t-41.5 32h-34z" />
<glyph unicode="|" horiz-adv-x="316" d="M95 -168v1094h127v-1094h-127z" />
<glyph unicode="}" horiz-adv-x="476" d="M85 -24h66q47 0 47 64v196q0 93 76 144q-76 50 -76 147v196q0 29 -12.5 45.5t-33.5 16.5h-67v104h90q68 0 109 -39.5t41 -112.5v-194q0 -115 56 -115h34v-98h-34q-28 0 -42 -32t-14 -78v-198q0 -75 -42.5 -113t-107.5 -38h-90v105z" />
<glyph unicode="~" horiz-adv-x="849" d="M68 323q72 185 229 185q44 0 83.5 -21.5t63 -47t52.5 -47t55 -21.5q21 0 39.5 8.5t30 18.5t22.5 29t16 29.5t13 30.5l110 -48q-70 -186 -227 -186q-35 0 -67.5 14.5t-56 34.5t-45 40.5t-44.5 35t-45 14.5q-73 0 -119 -117z" />
<glyph unicode="&#xa2;" horiz-adv-x="554" d="M36 289q0 114 53.5 196t150.5 102v83h115v-82q66 -15 109.5 -62t57.5 -102l-107 -30q-14 38 -41.5 65.5t-67.5 27.5q-67 0 -103.5 -56t-36.5 -142q0 -90 37.5 -144.5t101.5 -54.5q45 0 77.5 29.5t45.5 70.5l107 -30q-15 -56 -61.5 -105t-118.5 -67v-88h-115v90 q-90 18 -147 98t-57 201z" />
<glyph unicode="&#xa3;" horiz-adv-x="648" d="M37 81q118 27 118 148v105h-113v112h113v158q0 99 66 152t177 53q73 0 129 -39t82 -88l-99 -50q-42 62 -111 62q-50 0 -82 -25.5t-32 -77.5v-145h217v-112h-217v-98q0 -80 -29 -112q39 7 59 7q32 0 82 -18.5t87 -18.5q60 0 121 32l35 -108q-83 -36 -157 -36 q-36 0 -106 18.5t-104 18.5q-38 0 -89 -7.5t-83 -15.5l-32 -8z" />
<glyph unicode="&#xa5;" horiz-adv-x="674" d="M-2 791h151l113 -185q50 -86 74 -129h4q11 20 23.5 41.5t28 47.5t23.5 40l112 185h152l-223 -338h153v-94h-205v-105h205v-93h-205v-161h-132v161h-205v93h205v105h-205v94h153z" />
<glyph unicode="&#xa8;" horiz-adv-x="554" d="M103 651v140h137v-140h-137zM315 651v140h137v-140h-137z" />
<glyph unicode="&#xa9;" horiz-adv-x="918" d="M39 400q0 194 119.5 311.5t300.5 117.5q184 0 302.5 -118.5t118.5 -310.5q0 -189 -118.5 -308t-302.5 -119q-181 0 -300.5 116.5t-119.5 310.5zM133 400q0 -157 90 -251t236 -94q141 0 234.5 91.5t93.5 253.5q0 159 -91.5 253t-236.5 94t-235.5 -94.5t-90.5 -252.5z M253 401q0 119 60.5 184.5t158.5 65.5q73 0 117.5 -40.5t61.5 -98.5l-89 -27q-32 75 -89 75q-55 0 -84 -41t-29 -118q0 -81 30.5 -120t82.5 -39q37 0 62.5 24t36.5 57l90 -26q-16 -62 -65.5 -104t-124.5 -42q-97 0 -158 65.5t-61 184.5z" />
<glyph unicode="&#xab;" horiz-adv-x="559" d="M40 285l178 265l92 -61l-134 -204l132 -201l-90 -63zM254 285l178 252l88 -68l-131 -184l131 -186l-88 -66z" />
<glyph unicode="&#xad;" d="M52 334v112h496v-112h-496z" />
<glyph unicode="&#xae;" horiz-adv-x="918" d="M39 402q0 194 119.5 310.5t300.5 116.5q184 0 302.5 -118.5t118.5 -308.5t-118 -309.5t-303 -119.5q-180 0 -300 117.5t-120 311.5zM133 402q0 -159 88.5 -250.5t237.5 -91.5q145 0 236.5 90.5t91.5 251.5t-92 250.5t-236 89.5q-147 0 -236.5 -91.5t-89.5 -248.5z M293 155v485h200q74 0 114.5 -42t40.5 -101q0 -82 -63 -117q19 -16 27 -34t15 -50q12 -53 59 -141h-119q-32 46 -49 131q-9 43 -19 51q-8 8 -22 8h-77v-190h-107zM400 427h78q29 0 45 16.5t16 43.5q0 24 -16.5 41t-44.5 17h-78v-118z" />
<glyph unicode="&#xb4;" horiz-adv-x="411" d="M89 696l114 189h153l-160 -189h-107z" />
<glyph unicode="&#xb8;" horiz-adv-x="333" d="M46 -143q42 -9 67 -9q55 0 55 29q0 37 -96 42l61 124h111l-32 -66q74 -25 74 -102q0 -48 -37.5 -82.5t-125.5 -34.5q-50 0 -77 9v90z" />
<glyph unicode="&#xbb;" horiz-adv-x="558" d="M40 99l131 186l-131 184l88 68l178 -252l-178 -252zM250 489l92 61l178 -265l-178 -264l-90 64l132 200z" />
<glyph unicode="&#x2c6;" horiz-adv-x="540" d="M53 715l158 179h111l162 -179h-131l-86 112l-83 -112h-131z" />
<glyph unicode="&#x2da;" horiz-adv-x="510" d="M96 784q0 63 45 108.5t114 45.5q70 0 115 -46t45 -108q0 -65 -47 -109.5t-113 -44.5q-65 0 -112 44t-47 110zM184 784q0 -31 20 -51t51 -20q30 0 50.5 19.5t20.5 51.5q0 31 -20 51t-51 20t-51 -21t-20 -50z" />
<glyph unicode="&#x2dc;" horiz-adv-x="545" d="M41 795q62 94 150 94q37 0 87.5 -29t70.5 -29q24 0 48.5 17t39.5 42l68 -57q-63 -97 -153 -97q-38 0 -87.5 30t-69.5 30q-49 0 -83 -58z" />
<glyph unicode="&#x400;" horiz-adv-x="649" d="M89 0v791h519v-113h-387v-214h349v-111h-349v-241h397v-112h-529zM165 1057h153l114 -189h-107z" />
<glyph unicode="&#x401;" horiz-adv-x="649" d="M89 0v791h519v-113h-387v-214h349v-111h-349v-241h397v-112h-529zM160 892v127h134v-127h-134zM394 892v127h133v-127h-133z" />
<glyph unicode="&#x402;" horiz-adv-x="797" d="M8 678v113h579v-113h-227v-222q66 33 136 33q127 0 196 -69.5t69 -183.5q0 -111 -65 -182.5t-182 -71.5q-40 0 -105 7v115q45 -9 95 -9q52 0 87 37t35 103q0 59 -34 100t-98 41q-66 0 -134 -35v-341h-131v678h-221z" />
<glyph unicode="&#x403;" horiz-adv-x="607" d="M89 0v791h492v-113h-361v-678h-131zM254 868l114 189h153l-160 -189h-107z" />
<glyph unicode="&#x404;" horiz-adv-x="711" d="M42 396q0 186 96 299.5t255 113.5q99 0 172.5 -55.5t106.5 -135.5l-113 -37q-64 115 -167 115q-91 0 -146 -68t-65 -179h327v-104h-327q10 -115 66 -182.5t145 -67.5q65 0 113 40t69 91l118 -37q-15 -37 -38.5 -70t-59.5 -65.5t-88 -52t-113 -19.5q-157 0 -254 113.5 t-97 300.5z" />
<glyph unicode="&#x405;" horiz-adv-x="654" d="M27 169l116 39q28 -50 81 -81.5t117 -31.5q66 0 106 32t40 83q0 54 -42.5 84t-124.5 58q-117 39 -158 62q-107 61 -107 177q0 98 77 158t201 60q102 0 174.5 -47.5t105.5 -121.5l-111 -37q-64 93 -170 93q-65 0 -103 -29t-38 -76q0 -14 3 -26.5t12 -23.5t16 -19t23 -17 t25.5 -14t31.5 -13t31.5 -11t35.5 -11.5t35 -11.5q46 -15 81 -32t68.5 -43.5t51.5 -65.5t18 -88q0 -111 -79.5 -172t-205.5 -61q-109 0 -191 50.5t-120 136.5z" />
<glyph unicode="&#x406;" horiz-adv-x="308" d="M89 0v791h132v-791h-132z" />
<glyph unicode="&#x407;" horiz-adv-x="308" d="M-29 892v127h134v-127h-134zM89 0v791h132v-791h-132zM205 892v127h133v-127h-133z" />
<glyph unicode="&#x408;" horiz-adv-x="552" d="M9 147l109 44q12 -41 40.5 -68.5t69.5 -27.5q50 0 77 38t27 110v548h132v-566q0 -116 -60.5 -179.5t-172.5 -63.5q-91 0 -146.5 48t-75.5 117z" />
<glyph unicode="&#x409;" horiz-adv-x="1136" d="M10 -13v113q44 -6 77 -6q57 0 86 79.5t49 278.5l33 339h449v-327h102q291 0 291 -234q0 -101 -69.5 -165.5t-179.5 -64.5h-276v678h-199l-22 -244q-24 -250 -79 -351t-178 -101q-36 0 -84 5zM704 112h131q58 0 92 31.5t34 86.5q0 122 -133 122h-124v-240z" />
<glyph unicode="&#x40a;" horiz-adv-x="1095" d="M89 0v791h131v-329h310v329h131v-327h102q291 0 291 -234q0 -101 -69.5 -165.5t-178.5 -64.5h-276v351h-310v-351h-131zM661 113h132q57 0 91.5 31.5t34.5 86.5q0 121 -133 121h-125v-239z" />
<glyph unicode="&#x40b;" horiz-adv-x="849" d="M8 678v113h583v-113h-224v-260h1q72 82 177 82q112 0 177.5 -66.5t65.5 -193.5v-240h-133v251q0 65 -33 101t-97 36q-61 0 -109.5 -49.5t-48.5 -111.5v-227h-133v678h-226z" />
<glyph unicode="&#x40c;" horiz-adv-x="700" d="M89 0v791h132v-358h2l307 358h167l-306 -346l314 -445h-159l-238 352l-87 -99v-253h-132zM279 868l114 189h153l-160 -189h-107z" />
<glyph unicode="&#x40d;" horiz-adv-x="764" d="M89 0v791h132v-394q0 -90 -7 -186h4l65 119l257 461h136v-791h-131v391q0 96 8 186h-5l-66 -124l-257 -453h-136zM200 1057h153l114 -189h-107z" />
<glyph unicode="&#x40e;" horiz-adv-x="649" d="M-1 791h139l136 -294q11 -23 54 -125h2q34 82 52 122l128 297h135l-277 -629q-74 -168 -224 -168h-48v113h26q47 0 73 17t48 68l19 49zM141 1032h94q3 -35 26 -58t60 -23q38 0 61 23.5t26 57.5h94q-3 -63 -46.5 -113.5t-134.5 -50.5q-48 0 -84 15.5t-55.5 41t-29.5 52.5 t-11 55z" />
<glyph unicode="&#x40f;" horiz-adv-x="760" d="M89 0v791h132v-678h319v678h132v-791h-226v-220h-131v220h-226z" />
<glyph unicode="&#x410;" horiz-adv-x="708" d="M-4 0l286 791h145l285 -791h-140l-65 196h-306l-65 -196h-140zM236 302h236l-67 205q-7 22 -15.5 49t-18 59.5t-14.5 48.5h-6q-3 -10 -48 -157z" />
<glyph unicode="&#x411;" horiz-adv-x="701" d="M89 0v791h487v-113h-355v-214h189q123 0 190.5 -66.5t67.5 -167.5q0 -98 -66.5 -164t-180.5 -66h-332zM221 112h181q55 0 92 29.5t37 88.5q0 51 -34.5 87t-96.5 36h-179v-241z" />
<glyph unicode="&#x412;" horiz-adv-x="713" d="M89 0v791h300q126 0 189 -56t63 -153q0 -58 -27 -99.5t-71 -64.5q50 -18 88 -67.5t38 -120.5q0 -99 -63.5 -164.5t-177.5 -65.5h-339zM221 112h184q53 0 90.5 31t37.5 87q0 53 -34.5 87t-96.5 34h-181v-239zM221 462h155q57 0 93 27.5t36 82.5q0 49 -30.5 77.5 t-94.5 28.5h-159v-216z" />
<glyph unicode="&#x413;" horiz-adv-x="607" d="M89 0v791h492v-113h-361v-678h-131z" />
<glyph unicode="&#x414;" horiz-adv-x="800" d="M22 112h58q158 307 176 679h421v-679h103v-332h-130v220h-498v-220h-130v332zM217 112h330v566h-169q-38 -334 -161 -566z" />
<glyph unicode="&#x415;" horiz-adv-x="649" d="M89 0v791h519v-113h-387v-214h349v-111h-349v-241h397v-112h-529z" />
<glyph unicode="&#x416;" horiz-adv-x="930" d="M-2 0l308 417l-295 374h161l226 -301v301h132v-301l224 301h161l-293 -374l312 -417h-164l-240 337v-337h-132v337l-240 -337h-160z" />
<glyph unicode="&#x417;" horiz-adv-x="666" d="M43 161l105 38q27 -50 75 -79.5t101 -29.5q65 0 113 35.5t48 96.5t-51.5 99t-130.5 38q-25 0 -81 -4v108q26 -2 79 -2q65 0 110 34t45 92q0 49 -35.5 81.5t-96.5 32.5q-57 0 -92.5 -29t-58.5 -83l-113 34q71 186 270 186q118 0 189.5 -58t71.5 -152q0 -60 -34 -109 t-81 -73q57 -19 101.5 -68t44.5 -123q0 -115 -83.5 -179.5t-212.5 -64.5q-106 0 -178.5 48t-104.5 131z" />
<glyph unicode="&#x418;" horiz-adv-x="764" d="M89 0v791h132v-394q0 -90 -7 -186h4l65 119l257 461h136v-791h-131v391q0 96 8 186h-5l-66 -124l-257 -453h-136z" />
<glyph unicode="&#x419;" horiz-adv-x="764" d="M89 0v791h132v-394q0 -90 -7 -186h4l65 119l257 461h136v-791h-131v391q0 96 8 186h-5l-66 -124l-257 -453h-136zM210 1032h94q3 -35 26 -58t60 -23q38 0 61 23.5t26 57.5h94q-3 -63 -46.5 -113.5t-134.5 -50.5q-48 0 -84 15.5t-55.5 41t-29.5 52.5t-11 55z" />
<glyph unicode="&#x41a;" horiz-adv-x="700" d="M89 0v791h132v-358h2l307 358h167l-306 -346l314 -445h-159l-238 352l-87 -99v-253h-132z" />
<glyph unicode="&#x41b;" horiz-adv-x="798" d="M10 -13v113q44 -6 77 -6q56 0 85.5 80t49.5 278l33 339h455v-791h-133v678h-204l-22 -243q-24 -250 -79 -351.5t-178 -101.5q-34 0 -84 5z" />
<glyph unicode="&#x41c;" horiz-adv-x="919" d="M89 0v791h161l139 -368q15 -41 38 -111.5t30 -91.5h4q50 145 71 203l136 368h163v-791h-130v359q0 90 14 244h-4l-57 -168l-145 -390h-98l-143 390l-59 169h-5q16 -144 16 -245v-359h-131z" />
<glyph unicode="&#x41d;" horiz-adv-x="759" d="M89 0v791h131v-329h320v329h131v-791h-131v351h-320v-351h-131z" />
<glyph unicode="&#x41e;" horiz-adv-x="763" d="M42 395q0 186 93 300t247 114t246.5 -113.5t92.5 -300.5t-93 -300t-246 -113q-154 0 -247 113t-93 300zM178 395q0 -139 54.5 -219.5t149.5 -80.5q94 0 148.5 80t54.5 220q0 138 -53.5 219.5t-149.5 81.5q-95 0 -149.5 -81.5t-54.5 -219.5z" />
<glyph unicode="&#x41f;" horiz-adv-x="751" d="M89 0v791h574v-791h-132v678h-311v-678h-131z" />
<glyph unicode="&#x420;" horiz-adv-x="696" d="M89 0v791h309q124 0 193.5 -66.5t69.5 -175.5q0 -112 -71.5 -177t-189.5 -65h-179v-307h-132zM221 419h161q68 0 106 33t38 97q0 63 -37 96t-108 33h-160v-259z" />
<glyph unicode="&#x421;" horiz-adv-x="713" d="M42 396q0 190 98 301.5t253 111.5q100 0 171.5 -55t106.5 -136l-113 -37q-64 115 -167 115q-98 0 -155.5 -81.5t-57.5 -218.5q0 -139 58 -220t155 -81q63 0 111.5 38t70.5 93l118 -37q-15 -36 -38.5 -69.5t-59 -66t-87.5 -52t-113 -19.5q-152 0 -251.5 110.5t-99.5 303.5 z" />
<glyph unicode="&#x422;" horiz-adv-x="608" d="M11 678v113h588v-113h-228v-678h-132v678h-228z" />
<glyph unicode="&#x423;" horiz-adv-x="649" d="M-1 791h139l136 -294q11 -23 54 -125h2q34 82 52 122l128 297h135l-277 -629q-74 -168 -224 -168h-48v113h26q47 0 73 17t48 68l19 49z" />
<glyph unicode="&#x424;" horiz-adv-x="850" d="M42 400q0 126 88.5 200t228.5 85v106h132v-106q143 -12 230.5 -85.5t87.5 -199.5q0 -124 -87 -198.5t-231 -87.5v-114h-132v115q-143 12 -230 86t-87 199zM178 400q0 -152 181 -173v345q-181 -21 -181 -172zM491 227q83 7 132 51t49 122q0 81 -50.5 123t-130.5 50v-346z " />
<glyph unicode="&#x425;" horiz-adv-x="663" d="M2 0l253 406l-240 385h156l96 -172q9 -17 30.5 -55.5t32.5 -59.5h4q3 6 65 115l97 172h155l-241 -385l254 -406h-153l-108 185q-14 23 -69 120h-4q-58 -104 -67 -120l-107 -185h-154z" />
<glyph unicode="&#x426;" horiz-adv-x="783" d="M89 0v791h132v-679h313v679h132v-680h85v-331h-115v220h-547z" />
<glyph unicode="&#x427;" horiz-adv-x="737" d="M66 530v261h133v-270q0 -64 38.5 -98t104.5 -34q65 0 120 47t55 113v242h132v-791h-132v359h-2q-28 -32 -78 -56.5t-114 -24.5q-115 0 -186 62.5t-71 189.5z" />
<glyph unicode="&#x428;" horiz-adv-x="1065" d="M89 0v791h132v-679h246v679h131v-679h246v679h133v-791h-888z" />
<glyph unicode="&#x429;" horiz-adv-x="1079" d="M89 0v791h132v-679h246v679h131v-679h246v679h133v-791h-888zM939 110h112v-330h-112v330z" />
<glyph unicode="&#x42a;" horiz-adv-x="718" d="M4 678v113h266v-326h117q291 0 291 -235q0 -103 -70 -166.5t-181 -63.5h-288v678h-135zM270 113h145q58 0 92.5 29.5t34.5 87.5q0 124 -134 124h-138v-241z" />
<glyph unicode="&#x42b;" horiz-adv-x="922" d="M89 0v791h131v-326h118q290 0 290 -235q0 -103 -69.5 -166.5t-180.5 -63.5h-289zM220 112h145q58 0 92.5 30t34.5 88q0 123 -134 123h-138v-241zM707 0v791h132v-791h-132z" />
<glyph unicode="&#x42c;" horiz-adv-x="668" d="M89 0v791h131v-326h118q290 0 290 -235q0 -103 -69.5 -166.5t-180.5 -63.5h-289zM220 112h145q58 0 92.5 30t34.5 88q0 123 -134 123h-138v-241z" />
<glyph unicode="&#x42d;" horiz-adv-x="713" d="M22 189l118 37q21 -51 69 -91t113 -40q89 0 145 67.5t66 182.5h-327v104h327q-10 111 -65 179t-146 68q-59 0 -97.5 -31.5t-70.5 -83.5l-112 37q34 81 107 136t172 55q159 0 255 -113.5t96 -299.5q0 -187 -97 -300.5t-254 -113.5q-61 0 -113 19.5t-88 52t-59.5 65.5 t-38.5 70z" />
<glyph unicode="&#x42e;" horiz-adv-x="1085" d="M89 0v791h132v-335h147q16 161 106.5 257t230.5 96q154 0 246.5 -113.5t92.5 -300.5t-93 -300t-246 -113q-145 0 -236.5 100t-102.5 270h-145v-352h-132zM502 395q0 -139 54 -219.5t149 -80.5t149.5 80.5t54.5 219.5q0 138 -54 219.5t-150 81.5q-95 0 -149 -81.5 t-54 -219.5z" />
<glyph unicode="&#x42f;" horiz-adv-x="718" d="M9 0q28 48 46 93t24 68t16 66q11 54 26.5 83.5t54.5 56.5q-51 22 -85 72.5t-34 129.5q0 93 65 157.5t184 64.5h324v-791h-132v317h-165q-46 0 -67 -24.5t-32 -75.5q-30 -134 -78 -217h-147zM192 558q0 -64 37 -96.5t99 -32.5h170v249h-169q-57 0 -97 -32.5t-40 -87.5z " />
<glyph unicode="&#x430;" horiz-adv-x="589" d="M35 151q0 163 242 199q88 13 124 24v31q0 42 -30 66t-80 24q-95 0 -164 -78l-77 66q45 53 107.5 82.5t131.5 29.5q129 0 184 -62.5t55 -174.5v-358h-123v72q-18 -37 -62.5 -63.5t-104.5 -26.5q-95 0 -149 47t-54 122zM163 162q0 -32 25.5 -53.5t67.5 -21.5q60 0 102.5 40 t42.5 105v53q-46 -11 -111 -21q-127 -20 -127 -102z" />
<glyph unicode="&#x431;" horiz-adv-x="604" d="M36 288q0 279 133 412q124 124 347 140l21 -108q-71 -2 -128.5 -18.5t-93.5 -42t-58 -50t-35 -50.5l-13 -24q15 19 44.5 33t63.5 14q118 0 184.5 -89.5t66.5 -216.5q0 -40 -7 -80t-26 -81.5t-48 -73t-76.5 -51.5t-107.5 -20q-59 0 -106.5 19.5t-77 50t-49 71.5t-27 82 t-7.5 83zM166 288q0 -100 41 -149t96 -49q54 0 95 49t41 149q0 102 -41 150.5t-95 48.5t-95.5 -48.5t-41.5 -150.5z" />
<glyph unicode="&#x432;" horiz-adv-x="582" d="M69 0v577h253q102 0 153.5 -46.5t51.5 -116.5q0 -68 -61 -107q81 -39 81 -131q0 -73 -54.5 -124.5t-140.5 -51.5h-283zM195 103h142q35 0 58 18.5t23 52.5q0 30 -22.5 52t-60.5 22h-140v-145zM195 343h118q37 0 60.5 17t23.5 49q0 28 -20 46.5t-62 18.5h-120v-131z" />
<glyph unicode="&#x433;" horiz-adv-x="483" d="M69 0v577h397v-108h-270v-469h-127z" />
<glyph unicode="&#x434;" horiz-adv-x="712" d="M20 108h61q68 93 104 204.5t37 264.5h373v-469h98v-329h-130v221h-414v-221h-129v329zM231 108h234v361h-120q-4 -76 -32.5 -174.5t-81.5 -186.5z" />
<glyph unicode="&#x435;" horiz-adv-x="601" d="M36 291q0 139 76.5 221.5t192.5 82.5q114 0 188 -83t74 -216q0 -26 -3 -51h-400q0 -66 39.5 -113.5t108.5 -47.5q48 0 84.5 23.5t55.5 60.5l106 -36q-28 -64 -91 -107t-157 -43q-121 0 -197.5 84t-76.5 225zM166 334h272q0 66 -35 112.5t-98 46.5t-100.5 -47.5 t-38.5 -111.5z" />
<glyph unicode="&#x436;" horiz-adv-x="768" d="M0 0l249 301l-242 276h149l163 -185v185h127v-184l164 184h148l-241 -276l253 -301h-151l-173 206v-206h-127v205l-173 -205h-146z" />
<glyph unicode="&#x437;" horiz-adv-x="533" d="M17 116l99 44q19 -29 56 -49.5t79 -20.5q45 0 80 19.5t35 57.5q0 35 -30.5 59t-95.5 24h-65v95h65q51 0 78 21t27 53t-23.5 50t-68.5 18q-36 0 -68.5 -20.5t-51.5 -52.5l-104 42q75 138 226 138q99 0 159.5 -46.5t60.5 -119.5q0 -79 -76 -123h1q41 -17 68.5 -52.5 t27.5 -86.5q0 -86 -69 -135t-174 -49q-81 0 -143.5 37.5t-92.5 96.5z" />
<glyph unicode="&#x438;" horiz-adv-x="621" d="M69 0v577h127v-250q0 -55 -8 -146h3l60 103l177 293h124v-577h-126v233q0 82 10 154h-2l-50 -88l-190 -299h-125z" />
<glyph unicode="&#x439;" horiz-adv-x="621" d="M69 0v577h127v-250q0 -55 -8 -146h3l60 103l177 293h124v-577h-126v233q0 82 10 154h-2l-50 -88l-190 -299h-125zM132 833h94q3 -35 26 -58t60 -23q38 0 61 23.5t26 57.5h94q-3 -63 -46.5 -113.5t-134.5 -50.5q-48 0 -84 15.5t-55.5 41t-29.5 52.5t-11 55z" />
<glyph unicode="&#x43a;" horiz-adv-x="572" d="M69 0v577h127v-214l222 214h161l-270 -261l274 -316h-151l-203 236l-33 -32v-204h-127z" />
<glyph unicode="&#x43b;" horiz-adv-x="640" d="M10 -13v110q51 -7 61 -7q47 0 67 60.5t33 190.5l24 236h376v-577h-127v469h-137l-13 -143q-17 -185 -62 -264.5t-144 -79.5q-3 0 -78 5z" />
<glyph unicode="&#x43c;" horiz-adv-x="729" d="M69 0v577h132l104 -246q28 -65 58 -146h3q40 103 58 146l104 246h132v-577h-118v231q0 59 5 127h-2l-28 -70l-108 -256h-89l-106 252l-30 72h-2q6 -68 6 -125v-231h-119z" />
<glyph unicode="&#x43d;" horiz-adv-x="614" d="M69 0v577h126v-227h224v227h126v-577h-126v242h-224v-242h-126z" />
<glyph unicode="&#x43e;" horiz-adv-x="604" d="M36 288q0 129 68 218t199 89q130 0 198 -89t68 -218q0 -40 -7.5 -80t-26.5 -81.5t-48 -73t-76.5 -51.5t-107.5 -20q-59 0 -106.5 19.5t-77 50t-49 72t-27 82t-7.5 82.5zM166 288q0 -100 41 -149t96 -49q54 0 95 49t41 149q0 102 -41 150.5t-95 48.5t-95.5 -48.5 t-41.5 -150.5z" />
<glyph unicode="&#x43f;" horiz-adv-x="609" d="M69 0v577h472v-577h-126v469h-220v-469h-126z" />
<glyph unicode="&#x440;" horiz-adv-x="629" d="M75 -236v813h122v-75q53 93 152 93q105 0 174.5 -82.5t69.5 -223.5q0 -79 -22 -140.5t-58.5 -96.5t-78 -52.5t-85.5 -17.5q-56 0 -93.5 25.5t-54.5 59.5v-303h-126zM200 289q0 -91 34.5 -145t96.5 -54q59 0 96 52.5t37 146.5q0 91 -35.5 144.5t-97.5 53.5q-61 0 -96 -55 t-35 -143z" />
<glyph unicode="&#x441;" horiz-adv-x="555" d="M36 288q0 139 74.5 223t192.5 84q86 0 145 -52t74 -119l-108 -30q-12 38 -41 65.5t-69 27.5q-65 0 -101.5 -57t-36.5 -142q0 -94 39 -146t99 -52q44 0 77.5 30.5t46.5 69.5l108 -31q-19 -70 -83 -123.5t-150 -53.5q-118 0 -192.5 83.5t-74.5 222.5z" />
<glyph unicode="&#x442;" horiz-adv-x="508" d="M16 469v108h477v-108h-175v-469h-127v469h-175z" />
<glyph unicode="&#x443;" horiz-adv-x="560" d="M7 577h139l99 -297q25 -82 38 -133h4q5 18 37 133l91 297h138l-239 -653q-32 -88 -82.5 -124t-125.5 -36h-39v106h18q45 0 73.5 19.5t45.5 67.5l19 57z" />
<glyph unicode="&#x444;" horiz-adv-x="963" d="M36 289q0 142 67.5 223.5t175.5 81.5q85 0 139 -74v297h127v-298q53 75 143 75q105 0 172.5 -82t67.5 -223q0 -152 -72 -229.5t-167 -77.5q-98 0 -144 81v-299h-127v298q-49 -80 -141 -80q-44 0 -85 17.5t-77 52.5t-57.5 96.5t-21.5 140.5zM166 289q0 -94 36 -146.5 t93 -52.5q58 0 91 50t35 139v19q-2 84 -35 136.5t-91 52.5q-60 0 -94.5 -55t-34.5 -143zM544 280q2 -89 35 -139.5t92 -50.5q57 0 92 52.5t35 146.5q0 88 -33.5 143t-93.5 55q-58 0 -91.5 -52.5t-35.5 -136.5v-18z" />
<glyph unicode="&#x445;" horiz-adv-x="572" d="M6 0l205 296l-195 281h153l74 -125q28 -50 40 -70h4q16 29 39 70l74 125h154l-195 -281l206 -296h-150l-85 139q-8 13 -22 36t-21 36h-4q-4 -7 -43 -72l-85 -139h-149z" />
<glyph unicode="&#x446;" horiz-adv-x="646" d="M69 0v577h126v-469h223v469h127v-467h84v-330h-115v220h-445z" />
<glyph unicode="&#x447;" horiz-adv-x="594" d="M59 413v164h126v-155q0 -114 92 -114q55 0 89 33.5t34 88.5v147h125v-577h-125v262h-1q-18 -24 -54.5 -43t-89.5 -19q-83 0 -139.5 50.5t-56.5 162.5z" />
<glyph unicode="&#x448;" horiz-adv-x="912" d="M69 0v577h126v-469h197v469h127v-469h196v469h128v-577h-774z" />
<glyph unicode="&#x449;" horiz-adv-x="936" d="M69 0v577h126v-469h197v469h127v-469h196v469h128v-577h-774zM807 110h112v-330h-112v330z" />
<glyph unicode="&#x44a;" horiz-adv-x="602" d="M6 469v108h245v-224h101q215 0 215 -180q0 -79 -54.5 -126t-146.5 -47h-241v469h-119zM251 103h105q39 0 60 18.5t21 52.5q0 76 -84 76h-102v-147z" />
<glyph unicode="&#x44b;" horiz-adv-x="775" d="M69 0v577h128v-224h104q211 0 211 -179q0 -76 -52 -125t-148 -49h-243zM197 103h105q80 0 80 72q0 75 -82 75h-103v-147zM583 0v577h126v-577h-126z" />
<glyph unicode="&#x44c;" horiz-adv-x="547" d="M69 0v577h128v-224h104q211 0 211 -179q0 -76 -52 -125t-148 -49h-243zM197 103h105q80 0 80 72q0 75 -82 75h-103v-147z" />
<glyph unicode="&#x44d;" horiz-adv-x="554" d="M20 153l107 30q13 -36 46 -66t79 -30q54 0 89.5 43t41.5 110h-200v94h201q-8 69 -42 112t-91 43q-41 0 -70 -27.5t-42 -64.5l-105 30q19 68 76 117.5t143 49.5q126 0 196 -87t70 -218q0 -134 -71.5 -220.5t-194.5 -86.5q-86 0 -149.5 53.5t-83.5 117.5z" />
<glyph unicode="&#x44e;" horiz-adv-x="857" d="M69 0v577h127v-228h98q14 107 81 176t181 69q130 0 198 -88.5t68 -217.5q0 -40 -7.5 -80t-26.5 -81.5t-48 -73t-76.5 -51.5t-107.5 -20q-66 0 -117 23t-80.5 62t-46 83.5t-20.5 94.5h-96v-245h-127zM420 288q0 -100 40.5 -149t95.5 -49q54 0 95 49t41 149 q0 102 -41 150.5t-95 48.5t-95 -48.5t-41 -150.5z" />
<glyph unicode="&#x44f;" horiz-adv-x="592" d="M13 0q50 88 63 130q6 18 11 40q7 29 10 40t13 28t26 30q-78 48 -78 139q0 73 52 121.5t149 48.5h265v-577h-126v216h-125q-52 0 -65 -73q-18 -85 -57 -143h-138zM187 397q0 -36 23 -56.5t63 -20.5h125v149h-122q-44 0 -66.5 -20.5t-22.5 -51.5z" />
<glyph unicode="&#x450;" horiz-adv-x="601" d="M36 291q0 139 76.5 221.5t192.5 82.5q114 0 188 -83t74 -216q0 -26 -3 -51h-400q0 -66 39.5 -113.5t108.5 -47.5q48 0 84.5 23.5t55.5 60.5l106 -36q-28 -64 -91 -107t-157 -43q-121 0 -197.5 84t-76.5 225zM127 859h153l114 -189h-107zM166 334h272q0 66 -35 112.5 t-98 46.5t-100.5 -47.5t-38.5 -111.5z" />
<glyph unicode="&#x451;" horiz-adv-x="601" d="M36 291q0 139 76.5 221.5t192.5 82.5q114 0 188 -83t74 -216q0 -26 -3 -51h-400q0 -66 39.5 -113.5t108.5 -47.5q48 0 84.5 23.5t55.5 60.5l106 -36q-28 -64 -91 -107t-157 -43q-121 0 -197.5 84t-76.5 225zM119 700v127h134v-127h-134zM166 334h272q0 66 -35 112.5 t-98 46.5t-100.5 -47.5t-38.5 -111.5zM353 700v127h133v-127h-133z" />
<glyph unicode="&#x452;" horiz-adv-x="610" d="M5 636v97h70v84h125v-84h213v-97h-213v-137h1q23 31 62 53.5t89 22.5q34 0 64.5 -9.5t61 -32.5t49 -69.5t18.5 -111.5v-367q0 -224 -195 -224q-36 -1 -95 5v108q38 -5 70 -5q48 0 70.5 27.5t22.5 93.5v347q0 130 -90 130q-54 0 -91 -46.5t-37 -109.5v-311h-125v636h-70z " />
<glyph unicode="&#x453;" horiz-adv-x="483" d="M69 0v577h397v-108h-270v-469h-127zM183 670l114 189h153l-160 -189h-107z" />
<glyph unicode="&#x454;" horiz-adv-x="554" d="M36 289q0 131 70 218t196 87q86 0 143 -49.5t76 -117.5l-105 -30q-13 37 -42 64.5t-70 27.5q-57 0 -91 -43t-42 -112h201v-94h-200q6 -67 41.5 -110t89.5 -43q46 0 78.5 30t45.5 66l108 -30q-20 -64 -83.5 -117.5t-149.5 -53.5q-123 0 -194.5 86.5t-71.5 220.5z" />
<glyph unicode="&#x455;" horiz-adv-x="534" d="M26 120l91 53q60 -88 156 -88q47 0 74.5 18.5t27.5 49.5q0 25 -22.5 44t-47.5 28.5t-75 25.5q-9 3 -13 4q-36 12 -60.5 23.5t-51.5 31t-41 49t-14 68.5q0 76 64 122t159 46q71 0 134 -37.5t94 -95.5l-84 -51q-59 81 -143 81q-46 0 -70.5 -18.5t-24.5 -48.5 q0 -25 21.5 -44.5t44.5 -28.5t65 -23q11 -3 16 -5q178 -57 178 -172q0 -71 -59.5 -120.5t-168.5 -49.5q-84 0 -149.5 37t-100.5 101z" />
<glyph unicode="&#x456;" horiz-adv-x="288" d="M76 663v139h136v-139h-136zM82 0v577h125v-577h-125z" />
<glyph unicode="&#x457;" horiz-adv-x="278" d="M-40 700v127h134v-127h-134zM76 0v577h126v-577h-126zM194 700v127h133v-127h-133z" />
<glyph unicode="&#x458;" horiz-adv-x="294" d="M-12 -119h20q79 0 79 112v584h127v-589q0 -107 -47.5 -161t-137.5 -54h-41v108zM81 663v139h138v-139h-138z" />
<glyph unicode="&#x459;" horiz-adv-x="923" d="M11 -13v110q51 -7 63 -7q32 0 53 44.5t37 164.5q23 149 32 278h376v-224h102q213 0 213 -177q0 -81 -54 -128.5t-146 -47.5h-242v469h-136q-3 -49 -24 -184q-17 -160 -63.5 -231.5t-139.5 -71.5q-14 0 -24.5 1t-23 2t-23.5 2zM572 103h103q82 0 82 74q0 73 -83 73h-102 v-147z" />
<glyph unicode="&#x45a;" horiz-adv-x="890" d="M69 0v577h126v-222h217v222h128v-224h101q214 0 214 -177q0 -80 -52.5 -128t-149.5 -48h-241v246h-217v-246h-126zM540 103h105q40 0 60 19.5t20 52.5q0 75 -83 75h-102v-147z" />
<glyph unicode="&#x45b;" horiz-adv-x="607" d="M4 635v98h71v84h126v-84h213v-98h-213v-136h1q62 77 150 77q32 0 62 -9.5t61.5 -32t50.5 -69.5t19 -113v-352h-127v337q0 60 -19 95t-70 35q-54 0 -91 -46.5t-37 -109.5v-311h-126v635h-71z" />
<glyph unicode="&#x45c;" horiz-adv-x="572" d="M69 0v577h127v-214l222 214h161l-270 -261l274 -316h-151l-203 236l-33 -32v-204h-127zM219 670l114 189h153l-160 -189h-107z" />
<glyph unicode="&#x45d;" horiz-adv-x="621" d="M69 0v577h127v-250q0 -55 -8 -146h3l60 103l177 293h124v-577h-126v233q0 82 10 154h-2l-50 -88l-190 -299h-125zM139 859h153l114 -189h-107z" />
<glyph unicode="&#x45e;" horiz-adv-x="560" d="M7 577h139l99 -297q25 -82 38 -133h4q5 18 37 133l91 297h138l-239 -653q-32 -88 -82.5 -124t-125.5 -36h-39v106h18q45 0 73.5 19.5t45.5 67.5l19 57zM96 833h94q3 -35 26 -58t60 -23q38 0 61 23.5t26 57.5h94q-3 -63 -46.5 -113.5t-134.5 -50.5q-48 0 -84 15.5 t-55.5 41t-29.5 52.5t-11 55z" />
<glyph unicode="&#x45f;" horiz-adv-x="610" d="M69 0v577h126v-469h220v469h126v-577h-173v-224h-126v224h-173z" />
<glyph unicode="&#x460;" horiz-adv-x="1028" d="M3 791h140l119 -434q7 -26 26 -89.5t28 -97.5h4q20 78 49 184l68 236l-60 201h139l131 -450q17 -61 46 -171h5q68 108 112.5 268.5t45.5 352.5h136q-1 -456 -240 -791h-147l-101 399l-109 -399h-153z" />
<glyph unicode="&#x461;" horiz-adv-x="858" d="M9 577h136l88 -305q5 -20 18 -67t20 -75h3q6 20 19.5 68t20.5 75l44 159l-48 145h135l138 -449h1q63 90 88.5 194.5t26.5 254.5h135q0 -86 -8 -152t-29 -141.5t-64.5 -146t-110.5 -137.5h-124l-77 250l-84 -250h-136z" />
<glyph unicode="&#x462;" horiz-adv-x="668" d="M6 598v104h83v89h131v-89h174v-104h-174v-133h118q290 0 290 -235q0 -103 -69.5 -166.5t-180.5 -63.5h-289v598h-83zM220 112h145q58 0 92.5 30t34.5 88q0 123 -134 123h-138v-241z" />
<glyph unicode="&#x463;" horiz-adv-x="552" d="M5 475v103h69v213h127v-213h191v-103h-191v-122h103q213 0 213 -177q0 -78 -52.5 -127t-151.5 -49h-239v475h-69zM201 103h104q82 0 82 72q0 75 -84 75h-102v-147z" />
<glyph unicode="&#x464;" horiz-adv-x="998" d="M89 0v791h132v-344h108q14 165 107.5 263.5t240.5 98.5q99 0 171 -53.5t108 -137.5l-113 -37q-21 35 -39 56.5t-51.5 40t-75.5 18.5q-90 0 -145 -67.5t-67 -179.5h327v-104h-327q10 -115 66.5 -182.5t145.5 -67.5q66 0 112 39t70 92l117 -37q-16 -37 -40 -71t-59.5 -66 t-87.5 -51t-112 -19q-146 0 -240 97.5t-108 263.5h-108v-343h-132z" />
<glyph unicode="&#x465;" horiz-adv-x="798" d="M75 0v577h127v-241h81q13 113 82 185.5t181 72.5q86 0 142.5 -50t75.5 -117l-105 -30q-14 39 -42.5 65.5t-69.5 26.5q-57 0 -91.5 -43t-41.5 -112h211v-94h-211q8 -67 43 -110t88 -43q46 0 79.5 29.5t46.5 66.5l107 -30q-25 -74 -89.5 -122.5t-143.5 -48.5 q-107 0 -177 69t-84 185h-82v-236h-127z" />
<glyph unicode="&#x466;" horiz-adv-x="705" d="M-5 0l290 791h136l289 -791h-139l-96 288l-66 -56v-232h-112v232l-65 56l-97 -288h-140zM272 402l80 -73l82 73l-40 119q-35 109 -40 125h-4q-7 -23 -20.5 -67t-17.5 -59z" />
<glyph unicode="&#x467;" horiz-adv-x="588" d="M5 0l232 577h112l234 -577h-131l-75 199l-34 -46v-153h-100v153l-34 46l-73 -199h-131zM241 297l51 -68l53 68l-36 112l-14 51h-3l-15 -51z" />
<glyph unicode="&#x468;" horiz-adv-x="980" d="M89 0v791h132v-345h212l127 345h135l290 -791h-139l-97 288l-65 -57v-231h-112v232l-65 56l-97 -288h-140l126 342h-175v-342h-132zM547 402l80 -73l81 73l-40 125q-3 9 -17.5 52t-21.5 66h-4q-17 -61 -37 -118z" />
<glyph unicode="&#x469;" horiz-adv-x="824" d="M75 0v577h127v-239h177l96 239h111l235 -577h-131l-75 199l-34 -45v-154h-100v154l-34 45l-73 -199h-131l95 235h-136v-235h-127zM479 297l51 -68l53 68l-35 109l-16 54h-2l-16 -55z" />
<glyph unicode="&#x46a;" horiz-adv-x="844" d="M32 0l51 246q37 182 218 201l-196 258v86h635v-86l-196 -258q180 -16 218 -201l51 -246h-126l-45 231q-23 112 -156 115v-346h-127v346q-135 -3 -156 -113l-44 -233h-127zM277 678l146 -216l146 216h-292z" />
<glyph unicode="&#x46b;" horiz-adv-x="680" d="M29 0l46 189q26 115 157 143l-147 164v81h510v-81l-146 -165q131 -26 157 -142l46 -189h-123l-40 172q-18 62 -92 66v-238h-113v238q-78 -5 -92 -65l-40 -173h-123zM232 469l109 -128l106 128h-215z" />
<glyph unicode="&#x46c;" horiz-adv-x="1129" d="M89 0v791h132v-340h362l-193 254v86h634v-86l-195 -258q179 -17 217 -201l52 -246h-127l-44 231q-23 112 -156 115v-346h-127v346q-135 -3 -156 -113l-45 -233h-127l52 246q12 62 60 101h-207v-347h-132zM561 678l146 -215l146 215h-292z" />
<glyph unicode="&#x46d;" horiz-adv-x="907" d="M69 0v577h127v-236h256l-140 155v81h510v-81l-145 -164q130 -28 156 -142l46 -190h-123l-40 173q-17 62 -92 66v-239h-113v239q-78 -5 -92 -66l-40 -173h-123l45 190q8 29 34 47h-139v-237h-127zM460 469l108 -128l106 128h-214z" />
<glyph unicode="&#x46e;" horiz-adv-x="663" d="M40 -72q0 79 69.5 129t197.5 50q69 0 121.5 30.5t52.5 89.5q0 62 -47.5 96.5t-128.5 34.5q-73 0 -104 -1v105q15 -1 101 -1q66 0 109.5 36t43.5 90q0 51 -36.5 82.5t-93.5 31.5q-89 0 -146 -99l-112 36q33 74 82 112t120 52l-134 154h122l81 -105q28 57 60.5 86t88.5 29 h47v-85h-18q-32 0 -54.5 -12.5t-32 -26.5t-23.5 -41q83 -15 133.5 -69.5t50.5 -132.5q0 -62 -33.5 -108.5t-79.5 -72.5q57 -19 98.5 -71t41.5 -126q0 -111 -79 -167t-213 -56q-148 0 -148 -70q0 -25 19.5 -42.5t47.5 -17.5q38 0 90 3.5t78 3.5q87 0 140 -12v-108 q-62 13 -140 13q-34 0 -84 -3.5t-86 -3.5q-98 0 -150 44.5t-52 122.5z" />
<glyph unicode="&#x46f;" horiz-adv-x="552" d="M44 460q19 40 63 76t97 49l-136 156h122l80 -104q25 54 56.5 84.5t89.5 30.5h49v-86h-19q-34 0 -56.5 -13.5t-30.5 -26.5t-19 -39q68 -12 110.5 -53.5t42.5 -100.5q0 -76 -70 -127q90 -47 90 -136q0 -78 -64 -129t-182 -51q-45 0 -68.5 -19t-23.5 -47q0 -24 17 -42 t50 -18q25 0 70 3t60 3q85 0 137 -15v-104q-59 17 -137 17q-25 0 -64.5 -3.5t-68.5 -3.5q-85 0 -138.5 43.5t-53.5 120.5q0 76 59.5 123t151.5 47q58 0 91.5 20t33.5 60q0 76 -120 76h-76v92h71q54 0 79.5 22.5t25.5 51.5q0 30 -22 51t-71 21q-74 0 -122 -70z" />
<glyph unicode="&#x470;" horiz-adv-x="929" d="M85 535v256h133v-268q0 -80 43.5 -121.5t112.5 -41.5h25v431h132v-431h23q70 0 114.5 41t44.5 122v268h131v-256q0 -135 -73 -211.5t-217 -76.5h-23v-247h-132v247h-25q-145 0 -217 76.5t-72 211.5z" />
<glyph unicode="&#x471;" horiz-adv-x="780" d="M64 283v294h127v-270q0 -82 35.5 -141.5t107.5 -68.5v693h127v-689q70 21 109 75.5t39 137.5q0 89 -46 263h130q45 -141 45 -261q0 -296 -277 -329v-223h-127v221q-72 8 -126.5 37t-84.5 72t-44.5 90t-14.5 99z" />
<glyph unicode="&#x472;" horiz-adv-x="763" d="M42 395q0 186 93.5 300t244.5 114q157 0 249.5 -113t92.5 -301q0 -189 -93.5 -301t-248.5 -112q-152 0 -245 113t-93 300zM180 432q53 48 106 48q38 0 73 -19.5t66 -39t60 -19.5q49 0 96 56q-12 112 -62.5 175t-138.5 63q-89 0 -141.5 -72.5t-58.5 -191.5zM186 307 q15 -99 66 -155.5t128 -56.5q89 0 141 65t61 172q-48 -39 -91 -39q-48 0 -106.5 40t-99.5 40q-54 0 -99 -66z" />
<glyph unicode="&#x473;" horiz-adv-x="604" d="M36 288q0 129 68 217.5t199 88.5q130 0 197.5 -88.5t67.5 -217.5q0 -40 -7 -80t-26 -81.5t-48 -73t-76.5 -51.5t-107.5 -20q-59 0 -106.5 19.5t-77 50t-49 71.5t-27 82t-7.5 83zM170 333q29 29 64 29q38 0 76 -29.5t60 -29.5q36 0 66 30q-7 75 -45.5 117t-87.5 42 q-56 0 -93 -46t-40 -113zM171 233q9 -70 46 -109t86 -39q53 0 89 42.5t42 109.5q-30 -28 -59 -28q-32 0 -72.5 29.5t-68.5 29.5q-30 0 -63 -35z" />
<glyph unicode="&#x474;" horiz-adv-x="661" d="M1 791h143l132 -452q9 -33 28 -109t24 -92h5q4 13 25 98t27 104l106 361q30 108 153 108q34 0 67 -5v-110q-13 2 -43 2q-39 0 -55 -50l-209 -646h-148z" />
<glyph unicode="&#x475;" horiz-adv-x="564" d="M9 577h136l89 -298q6 -20 23.5 -90.5t19.5 -77.5h3q32 130 44 168l60 199q16 59 47 86.5t85 27.5q26 0 73 -5v-109q-13 2 -43 2q-31 0 -48 -48l-150 -432h-138z" />
<glyph unicode="&#x476;" horiz-adv-x="661" d="M1 791h143l132 -452q9 -33 28 -109t24 -92h5q4 13 25 98t27 104l106 361q30 108 153 108q34 0 67 -5v-110q-13 2 -43 2q-39 0 -55 -50l-209 -646h-148zM81 1058h139l110 -199h-108zM271 1058h140l109 -199h-108z" />
<glyph unicode="&#x477;" horiz-adv-x="564" d="M9 577h136l89 -298q6 -20 23.5 -90.5t19.5 -77.5h3q32 130 44 168l60 199q16 59 47 86.5t85 27.5q26 0 73 -5v-109q-13 2 -43 2q-31 0 -48 -48l-150 -432h-138zM34 868h139l110 -199h-108zM224 868h140l109 -199h-108z" />
<glyph unicode="&#x478;" horiz-adv-x="1290" d="M42 395q0 186 93 300t247 114t246.5 -113.5t92.5 -300.5t-93 -300t-246 -113q-154 0 -247 113t-93 300zM178 395q0 -139 54.5 -219.5t149.5 -80.5q94 0 148.5 80t54.5 220q0 138 -53.5 219.5t-149.5 81.5q-95 0 -149.5 -81.5t-54.5 -219.5zM736 577h139l99 -297 q25 -82 38 -133h4q5 18 37 133l91 297h138l-239 -653q-32 -88 -82.5 -124t-125.5 -36h-39v106h18q45 0 73.5 19.5t45.5 67.5l19 57z" />
<glyph unicode="&#x479;" horiz-adv-x="1094" d="M36 288q0 129 68 218t199 89q130 0 198 -89t68 -218q0 -40 -7.5 -80t-26.5 -81.5t-48 -73t-76.5 -51.5t-107.5 -20q-59 0 -106.5 19.5t-77 50t-49 72t-27 82t-7.5 82.5zM166 288q0 -100 41 -149t96 -49q54 0 95 49t41 149q0 102 -41 150.5t-95 48.5t-95.5 -48.5 t-41.5 -150.5zM541 577h139l99 -297q25 -82 38 -133h4q5 18 37 133l91 297h138l-239 -653q-32 -88 -82.5 -124t-125.5 -36h-39v106h18q45 0 73.5 19.5t45.5 67.5l19 57z" />
<glyph unicode="&#x47a;" horiz-adv-x="763" d="M42 395q0 157 66.5 264t182.5 138q29 55 91 55q61 0 90 -55q115 -30 182.5 -138t67.5 -264q0 -158 -68 -265.5t-184 -136.5q-30 -52 -88 -52t-89 52q-116 30 -183.5 136t-67.5 266zM178 395q0 -109 34 -181t93 -100q29 35 77 35q47 0 76 -35q62 30 94.5 102.5t32.5 178.5 q0 107 -32.5 180.5t-94.5 101.5q-30 -35 -76 -35t-76 35q-61 -29 -94.5 -101.5t-33.5 -180.5z" />
<glyph unicode="&#x47b;" horiz-adv-x="616" d="M36 288q0 108 48.5 189.5t145.5 107.5q24 53 79 53q59 0 79 -52q94 -24 143 -107.5t49 -190.5q0 -60 -16 -116.5t-61.5 -109.5t-114.5 -71q-22 -52 -79 -52q-58 0 -79 51q-69 16 -114.5 67.5t-62.5 109.5t-17 121zM166 288q0 -66 21 -111t57 -64q26 36 65 36q43 0 65 -35 q36 19 56 64.5t20 109.5t-21 110.5t-55 65.5q-26 -36 -65 -36q-41 0 -66 35q-77 -44 -77 -175z" />
<glyph unicode="&#x47c;" horiz-adv-x="1061" d="M42 396q0 182 83.5 296.5t227.5 114.5q13 0 94 -7v-114q-57 5 -84 5q-89 0 -135.5 -80t-46.5 -215q0 -299 176 -299q95 0 174 80q72 -80 175 -80q174 0 174 299q0 134 -45.5 214.5t-132.5 80.5q-26 0 -81 -5v114q81 7 90 7q142 0 225 -116t83 -295q0 -67 -9.5 -126 t-32.5 -112.5t-57.5 -91.5t-87.5 -60t-119 -22q-108 0 -182 64q-77 -64 -181 -64q-84 0 -146 33.5t-96 92.5t-50 130t-16 156zM317 964v31q0 58 38 96t99 38q41 0 75.5 -13t55 -29t51 -29t63.5 -13h67v-81h-69q-48 0 -85 12.5t-55.5 27t-42.5 27t-48 12.5q-49 0 -49 -58v-21 h-100zM462 755q34 21 47.5 41.5t13.5 52.5h-59v110h139v-75q0 -110 -92 -167z" />
<glyph unicode="&#x47d;" horiz-adv-x="837" d="M36 297q0 87 25 155.5t85.5 114t150.5 45.5q29 0 62 -6v-107q-46 4 -58 4q-71 0 -104 -56t-33 -150q0 -97 33 -150t99 -53q79 0 124 58q49 -58 119 -58q60 0 97 52t37 151q0 206 -133 206q-28 0 -64 -4v107q28 6 62 6q72 0 125 -26.5t82.5 -72.5t43 -100t13.5 -116 q0 -145 -65 -228.5t-184 -83.5q-78 0 -133 53q-20 -22 -58.5 -37.5t-77.5 -15.5q-117 0 -182.5 83.5t-65.5 228.5zM205 802v31q0 58 37 95.5t96 37.5q44 0 79.5 -13t55.5 -28t50 -28t64 -13h66v-82h-68q-49 0 -87.5 12.5t-57 27t-42.5 27t-48 12.5q-45 0 -45 -52v-27h-100z M351 592q34 21 47 41.5t13 53.5h-58v111h139v-76q0 -110 -93 -167z" />
<glyph unicode="&#x47e;" horiz-adv-x="1037" d="M3 791h142l117 -434q7 -26 26 -89.5t28 -97.5h4q20 78 49 184l68 236l-60 201h139l131 -450q9 -31 46 -171h5q68 108 112.5 268.5t45.5 352.5h136q-1 -456 -240 -791h-147l-101 399l-109 -399h-153zM274 867v151h474v-151h-102v80h-89v-80h-92v80h-90v-80h-101z" />
<glyph unicode="&#x47f;" horiz-adv-x="864" d="M9 577h136l88 -308q5 -20 18 -65.5t20 -73.5h3q6 23 19.5 68.5t20.5 72.5l44 160l-48 146h135l138 -449h1q62 89 88 197.5t27 251.5h135q0 -84 -8 -149.5t-29 -141.5t-64.5 -147.5t-110.5 -138.5h-124l-77 250l-84 -250h-136zM186 696v151h474v-151h-102v80h-89v-80h-93 v80h-89v-80h-101z" />
<glyph unicode="&#x480;" horiz-adv-x="705" d="M42 396q0 185 95.5 299t257.5 114q102 0 173 -57t104 -134l-113 -37q-24 45 -65.5 80t-98.5 35q-105 0 -161 -85t-56 -215q0 -136 57.5 -218.5t158.5 -82.5q39 0 78 15.5t62 39.5v-370h-130v204q-23 -1 -53 2q-138 14 -223.5 124.5t-85.5 285.5z" />
<glyph unicode="&#x481;" horiz-adv-x="554" d="M36 288q0 131 70.5 218.5t196.5 87.5q88 0 145 -51t73 -117l-107 -30q-32 91 -111 91q-65 0 -101 -56.5t-36 -142.5q0 -90 37.5 -144t100.5 -54q36 0 67 16t49 41v-367h-128v203q-15 1 -37 6q-106 16 -162.5 100.5t-56.5 198.5z" />
<glyph unicode="&#x482;" horiz-adv-x="713" d="M51 256l51 82l140 -78l120 180l-156 87l50 85l160 -91l120 182l91 -56l-117 -178l151 -85l-50 -84l-156 87l-120 -179l174 -97l-53 -81l-174 97l-119 -177l-91 53l117 176z" />
<glyph unicode="&#x483;" horiz-adv-x="621" d="M77 632v146h352v48h115v-144h-350v-50h-117z" />
<glyph unicode="&#x484;" horiz-adv-x="626" d="M87 649v91h66q41 0 78 21t78 42t91 21q60 0 97.5 -38t37.5 -97v-40h-98v28q0 22 -12.5 37.5t-36.5 15.5q-23 0 -47 -12.5t-43 -28t-57.5 -28t-86.5 -12.5h-67z" />
<glyph unicode="&#x485;" d="M225 769v92h146v-127h-61q0 -42 14 -66.5t50 -50.5l-51 -47q-98 65 -98 199z" />
<glyph unicode="&#x486;" d="M227 617q36 26 50 50.5t14 66.5h-61v127h146v-92q0 -134 -97 -199z" />
<glyph unicode="&#x488;" horiz-adv-x="1084" d="M11 302q6 65 39.5 105.5t86.5 40.5q54 0 88.5 -41.5t39.5 -104.5h-76q-8 71 -52 71q-40 0 -48 -71h-78zM131 37q6 66 38.5 106.5t85.5 40.5q55 0 89 -41.5t39 -105.5h-75q-8 70 -51 70q-39 0 -49 -70h-77zM131 554q6 66 38.5 106t85.5 40q55 0 89 -41t39 -105h-75 q-8 71 -51 71q-41 0 -49 -71h-77zM406 -103q6 65 39 104.5t86 39.5q54 0 88.5 -40.5t39.5 -103.5h-76q-8 69 -52 69q-39 0 -49 -69h-76zM406 700q6 66 39 106.5t86 40.5q54 0 88.5 -42t39.5 -105h-76q-8 71 -52 71q-41 0 -49 -71h-76zM702 37q6 65 39 106t85 41 q54 0 88.5 -42.5t39.5 -104.5h-75q-3 29 -16.5 49.5t-36.5 20.5q-40 0 -48 -70h-76zM702 554q6 65 39 105.5t85 40.5q54 0 88.5 -41.5t39.5 -104.5h-75q-3 29 -17 50t-36 21q-21 0 -33.5 -20.5t-15.5 -50.5h-75zM819 302q6 65 39.5 105.5t86.5 40.5q55 0 89 -41.5t39 -104.5 h-77q-2 29 -15.5 50t-35.5 21q-41 0 -49 -71h-77z" />
<glyph unicode="&#x489;" horiz-adv-x="1087" d="M49 363v90l208 -47v-122zM136 67l176 118l88 -89l-203 -93zM189 700l65 67l116 -180l-92 -92zM455 656l76 205h97l-43 -205h-130zM460 -118l44 204h131l-78 -204h-97zM685 625l204 94l62 -65l-176 -118zM716 120l93 92l91 -205l-65 -66zM829 329v124l209 -81v-87z" />
<glyph unicode="&#x48a;" horiz-adv-x="797" d="M89 0v791h132v-394q0 -90 -7 -186h4l65 119l257 461h136v-791h-131v391q0 96 8 186h-5l-66 -124l-257 -453h-136zM202 1032h94q3 -35 26 -58t60 -23q38 0 61 23.5t26 57.5h94q-3 -63 -46.5 -113.5t-134.5 -50.5q-48 0 -84 15.5t-55.5 41t-29.5 52.5t-11 55zM591 -225 l84 334h119l-87 -334h-116z" />
<glyph unicode="&#x48b;" horiz-adv-x="666" d="M69 0v577h127v-250q0 -55 -8 -146h3l60 103l177 293h124v-577h-126v233q0 82 10 154h-2l-50 -88l-190 -299h-125zM128 833h94q3 -35 26 -58t60 -23q38 0 61 23.5t26 57.5h94q-3 -63 -46.5 -113.5t-134.5 -50.5q-48 0 -84 15.5t-55.5 41t-29.5 52.5t-11 55zM463 -225 l84 334h119l-87 -334h-116z" />
<glyph unicode="&#x48c;" horiz-adv-x="668" d="M5 599v103h84v89h131v-89h133v-103h-133v-134h118q290 0 290 -235q0 -103 -69.5 -166.5t-180.5 -63.5h-289v599h-84zM220 112h145q58 0 92.5 30t34.5 88q0 123 -134 123h-138v-241z" />
<glyph unicode="&#x48d;" horiz-adv-x="551" d="M5 475v103h69v77h127v-77h157v-103h-157v-122h103q212 0 212 -177q0 -80 -53 -128t-149 -48h-240v475h-69zM201 103h104q81 0 81 72q0 75 -85 75h-100v-147z" />
<glyph unicode="&#x48e;" horiz-adv-x="696" d="M89 0v791h309q124 0 193.5 -66.5t69.5 -175.5q0 -112 -71.5 -177t-189.5 -65h-179v-307h-132zM221 419h161q68 0 106 33t38 97q0 63 -37 96t-108 33h-160v-259zM330 489l85 68l204 -265l-88 -63z" />
<glyph unicode="&#x48f;" horiz-adv-x="629" d="M75 -236v813h122v-75q53 93 152 93q105 0 174.5 -82.5t69.5 -223.5q0 -79 -22 -140.5t-58.5 -96.5t-78 -52.5t-85.5 -17.5q-56 0 -93.5 25.5t-54.5 59.5v-303h-126zM200 289q0 -91 34.5 -145t96.5 -54q59 0 96 52.5t37 146.5q0 91 -35.5 144.5t-97.5 53.5q-61 0 -96 -55 t-35 -143zM305 182l85 68l204 -265l-88 -63z" />
<glyph unicode="&#x490;" horiz-adv-x="603" d="M89 0v791h361v154h132v-267h-362v-678h-131z" />
<glyph unicode="&#x491;" horiz-adv-x="489" d="M69 0v577h269v173h128v-281h-270v-469h-127z" />
<glyph unicode="&#x492;" d="M16 333v106h73v352h492v-113h-361v-239h220v-106h-220v-333h-131v333h-73z" />
<glyph unicode="&#x493;" horiz-adv-x="485" d="M15 213v104h54v260h397v-108h-270v-152h184v-104h-184v-213h-127v213h-54z" />
<glyph unicode="&#x494;" horiz-adv-x="660" d="M89 0v791h486v-113h-355v-271q42 11 95 11q158 0 233 -86.5t75 -237.5q0 -158 -84 -246t-233 -88q-59 0 -139 13v115q76 -16 140 -16q87 0 133 62.5t46 159.5q0 104 -44.5 158t-126.5 54q-44 0 -95 -12v-294h-131z" />
<glyph unicode="&#x495;" horiz-adv-x="550" d="M69 0v578h398v-107h-272v-144q25 5 49 5q135 0 203 -75.5t68 -208.5q0 -138 -75.5 -213t-195.5 -75q-46 0 -113 12v111q71 -15 108 -15q67 0 106.5 47.5t39.5 132.5q0 176 -142 176q-20 0 -48 -4v-220h-126z" />
<glyph unicode="&#x496;" horiz-adv-x="950" d="M-2 0l308 417l-295 374h161l226 -301v301h132v-301l224 301h161l-293 -374l312 -417h-164l-240 337v-337h-132v337l-240 -337h-160zM826 110h112v-330h-112v330z" />
<glyph unicode="&#x497;" horiz-adv-x="791" d="M0 0l249 301l-242 276h149l163 -185v185h127v-184l164 184h148l-241 -276l253 -301h-151l-173 206v-206h-127v205l-173 -205h-146zM667 110h112v-330h-112v330z" />
<glyph unicode="&#x498;" horiz-adv-x="666" d="M43 161l105 38q27 -50 75 -79.5t101 -29.5q65 0 113 35.5t48 96.5t-51.5 99t-130.5 38q-25 0 -81 -4v108q26 -2 79 -2q65 0 110 34t45 92q0 49 -35.5 81.5t-96.5 32.5q-57 0 -92.5 -29t-58.5 -83l-113 34q71 186 270 186q118 0 189.5 -58t71.5 -152q0 -60 -34 -109 t-81 -73q57 -19 101.5 -68t44.5 -123q0 -115 -83.5 -179.5t-212.5 -64.5q-106 0 -178.5 48t-104.5 131zM255 -1h123q42 -22 74.5 -57.5t32.5 -79.5q0 -45 -36 -69.5t-93 -24.5q-51 0 -91 14v79q42 -11 65 -11q42 0 42 36q0 46 -117 113z" />
<glyph unicode="&#x499;" horiz-adv-x="536" d="M19 116l99 44q19 -29 56 -49.5t79 -20.5q45 0 80 19.5t35 57.5q0 35 -30.5 59t-95.5 24h-65v95h65q51 0 78 21t27 53t-23.5 50t-68.5 18q-36 0 -68.5 -20.5t-51.5 -52.5l-104 42q75 138 226 138q99 0 159.5 -46.5t60.5 -119.5q0 -79 -76 -123h1q41 -17 68.5 -52.5 t27.5 -86.5q0 -86 -69 -135t-174 -49q-81 0 -143.5 37.5t-92.5 96.5zM180 -1h123q42 -22 74.5 -57.5t32.5 -79.5q0 -45 -36 -69.5t-93 -24.5q-51 0 -91 14v79q42 -11 65 -11q42 0 42 36q0 46 -117 113z" />
<glyph unicode="&#x49a;" horiz-adv-x="730" d="M89 0v791h132v-358h2l307 358h167l-306 -346l314 -445h-159l-238 352l-87 -99v-253h-132zM604 110h112v-330h-112v330z" />
<glyph unicode="&#x49b;" horiz-adv-x="614" d="M69 0v577h127v-214l222 214h161l-270 -261l274 -316h-151l-203 236l-33 -32v-204h-127zM486 110h112v-330h-112v330z" />
<glyph unicode="&#x49c;" horiz-adv-x="701" d="M89 0v791h132v-363h2l312 363h162l-306 -345l314 -446h-154l-243 357l-87 -98v-259h-132zM289 105v610h98v-610h-98z" />
<glyph unicode="&#x49d;" horiz-adv-x="576" d="M74 0v577h127v-222l230 222h153l-270 -261l273 -316h-141l-213 244l-32 -32v-212h-127zM274 59v484h83v-484h-83z" />
<glyph unicode="&#x49e;" horiz-adv-x="702" d="M3 622v98h86v71h132v-71h109v-98h-109v-189h2l308 358h167l-307 -345l314 -446h-159l-238 353l-87 -100v-253h-132v622h-86z" />
<glyph unicode="&#x49f;" horiz-adv-x="568" d="M6 621v99h70v97h126v-97h110v-99h-110v-274l205 230h159l-213 -235l226 -342h-148l-160 253l-69 -76v-177h-126v621h-70z" />
<glyph unicode="&#x4a0;" horiz-adv-x="750" d="M4 678v113h266v-359h1l309 359h167l-306 -345l314 -446h-160l-237 352l-88 -99v-253h-132v678h-134z" />
<glyph unicode="&#x4a1;" horiz-adv-x="613" d="M4 469v108h242v-215l213 215h159l-251 -254l257 -323h-149l-190 237l-39 -42v-195h-127v469h-115z" />
<glyph unicode="&#x4a2;" horiz-adv-x="784" d="M89 0v791h131v-329h320v329h131v-791h-131v351h-320v-351h-131zM635 110h112v-330h-112v330z" />
<glyph unicode="&#x4a3;" horiz-adv-x="650" d="M69 0v577h126v-227h224v227h126v-577h-126v242h-224v-242h-126zM511 110h112v-330h-112v330z" />
<glyph unicode="&#x4a4;" horiz-adv-x="804" d="M89 0v791h132v-329h319v329h263v-113h-131v-678h-132v351h-319v-351h-132z" />
<glyph unicode="&#x4a5;" horiz-adv-x="661" d="M69 0v577h127v-226h223v226h242v-108h-116v-469h-126v243h-223v-243h-127z" />
<glyph unicode="&#x4a6;" horiz-adv-x="1083" d="M89 0v791h553v-383q50 10 91 10q312 0 312 -330q0 -159 -86 -244t-232 -84q-58 0 -138 13v115q76 -16 140 -16q85 0 132.5 61t47.5 155q0 218 -176 218q-33 0 -91 -11v-295h-131v680h-290v-680h-132z" />
<glyph unicode="&#x4a7;" horiz-adv-x="893" d="M69 0v577h469v-250q23 5 49 5q134 0 202.5 -75.5t68.5 -210.5q0 -137 -75 -211.5t-196 -74.5q-44 0 -114 12v111q71 -15 109 -15q65 0 106 47.5t41 130.5q0 81 -34.5 129.5t-107.5 48.5q-21 0 -49 -4v-220h-126v469h-217v-469h-126z" />
<glyph unicode="&#x4a8;" horiz-adv-x="776" d="M42 396q0 185 95.5 299t255.5 114q194 0 279 -170l-114 -41q-62 98 -165 98q-102 0 -158.5 -85.5t-56.5 -214.5q0 -122 48 -200t135 -93q11 -2 36 -2q-68 87 -68 208q0 99 54.5 163.5t149.5 64.5q92 0 146.5 -64t54.5 -168q0 -59 -30.5 -122t-81.5 -111q20 -10 54 -10 q36 0 74 10l8 -109q-44 -12 -114 -12q-78 0 -150 46q-60 -15 -102 -15q-158 0 -254 113t-96 301zM461 297q0 -54 16.5 -102t44.5 -75q36 32 58.5 80.5t22.5 101.5q0 57 -18 90t-52 33q-35 0 -53.5 -35.5t-18.5 -92.5z" />
<glyph unicode="&#x4a9;" horiz-adv-x="644" d="M36 289q0 134 72 219.5t194 85.5q146 0 216 -134l-101 -39q-45 66 -113 66q-65 0 -101.5 -56t-36.5 -142q0 -73 26.5 -121.5t73.5 -64.5q26 -7 47 -5q-16 20 -27.5 52.5t-11.5 60.5q0 70 43 113.5t116 43.5q70 0 110 -42t40 -115q0 -40 -21.5 -79t-50.5 -59q16 -8 48 -8 q29 0 61 10l11 -99q-57 -11 -99 -11q-72 0 -129 36q-52 -19 -107 -19q-118 0 -189 86.5t-71 220.5zM379 200q0 -30 13 -56t29 -39q23 14 40 41t17 56q0 72 -47 72q-24 0 -38 -21t-14 -53z" />
<glyph unicode="&#x4aa;" horiz-adv-x="713" d="M42 396q0 190 98 301.5t253 111.5q100 0 171.5 -55t106.5 -136l-113 -37q-64 115 -167 115q-98 0 -155.5 -81.5t-57.5 -218.5q0 -139 58 -220t155 -81q63 0 111.5 38t70.5 93l118 -37q-15 -36 -38.5 -69.5t-59 -66t-87.5 -52t-113 -19.5q-152 0 -251.5 110.5t-99.5 303.5 zM307 -1h123q42 -22 74.5 -57.5t32.5 -79.5q0 -45 -36 -69.5t-93 -24.5q-51 0 -91 14v79q42 -11 65 -11q42 0 42 36q0 46 -117 113z" />
<glyph unicode="&#x4ab;" horiz-adv-x="555" d="M36 288q0 139 74.5 223t192.5 84q86 0 145 -52t74 -119l-108 -30q-12 38 -41 65.5t-69 27.5q-65 0 -101.5 -57t-36.5 -142q0 -94 39 -146t99 -52q44 0 77.5 30.5t46.5 69.5l108 -31q-19 -70 -83 -123.5t-150 -53.5q-118 0 -192.5 83.5t-74.5 222.5zM213 -1h123 q42 -22 74.5 -57.5t32.5 -79.5q0 -45 -36 -69.5t-93 -24.5q-51 0 -91 14v79q42 -11 65 -11q42 0 42 36q0 46 -117 113z" />
<glyph unicode="&#x4ac;" horiz-adv-x="553" d="M11 678v113h588v-113h-228v-678h-132v678h-228zM327 110h112v-330h-112v330z" />
<glyph unicode="&#x4ad;" horiz-adv-x="508" d="M16 469v108h477v-108h-175v-469h-127v469h-175zM284 110h112v-330h-112v330z" />
<glyph unicode="&#x4ae;" horiz-adv-x="675" d="M-2 791h151l122 -233q46 -90 65 -130h4q22 42 66 130l121 233h152l-274 -470v-321h-132v321z" />
<glyph unicode="&#x4af;" horiz-adv-x="550" d="M9 577h136l94 -296q4 -14 18.5 -59t21.5 -68h2q24 77 37 126l89 297h137l-203 -561v-252h-127v252z" />
<glyph unicode="&#x4b0;" horiz-adv-x="675" d="M-2 791h151l122 -233q46 -90 65 -130h4q22 42 66 130l121 233h152l-274 -470v-321h-132v321zM131 191v104h410v-104h-410z" />
<glyph unicode="&#x4b1;" horiz-adv-x="550" d="M9 577h136l94 -296q4 -14 18.5 -59t21.5 -68h2q24 77 37 126l89 297h137l-203 -561v-252h-127v252zM72 27h410v-104h-410v104z" />
<glyph unicode="&#x4b2;" horiz-adv-x="700" d="M2 0l253 406l-240 385h156l96 -172q9 -17 30.5 -55.5t32.5 -59.5h4q3 6 65 115l97 172h155l-241 -385l254 -406h-153l-108 185q-14 23 -69 120h-4q-58 -104 -67 -120l-107 -185h-154zM575 110h112v-330h-112v330z" />
<glyph unicode="&#x4b3;" horiz-adv-x="594" d="M6 0l205 296l-195 281h153l74 -125q28 -50 40 -70h4q16 29 39 70l74 125h154l-195 -281l206 -296h-150l-85 139q-8 13 -22 36t-21 36h-4q-4 -7 -43 -72l-85 -139h-149zM470 110h112v-330h-112v330z" />
<glyph unicode="&#x4b4;" horiz-adv-x="899" d="M8 678v113h536v-113h-203v-566h316v679h132v-680h78v-331h-114v220h-543v678h-202z" />
<glyph unicode="&#x4b5;" horiz-adv-x="744" d="M16 469v108h428v-108h-155v-361h228v469h127v-467h77v-330h-114v220h-443v469h-148z" />
<glyph unicode="&#x4b6;" horiz-adv-x="761" d="M66 530v261h133v-270q0 -64 38.5 -98t104.5 -34q65 0 120 47t55 113v242h132v-791h-132v359h-2q-28 -32 -78 -56.5t-114 -24.5q-115 0 -186 62.5t-71 189.5zM612 110h112v-330h-112v330z" />
<glyph unicode="&#x4b7;" horiz-adv-x="629" d="M59 413v164h126v-155q0 -114 92 -114q55 0 89 33.5t34 88.5v147h125v-577h-125v262h-1q-18 -24 -54.5 -43t-89.5 -19q-83 0 -139.5 50.5t-56.5 162.5zM491 110h112v-330h-112v330z" />
<glyph unicode="&#x4b8;" horiz-adv-x="706" d="M59 545v246h131v-256q0 -106 95 -123v165h101v-152q44 15 72 50t28 82v234h132v-791h-132v371h-2q-11 -17 -38.5 -34t-59.5 -23v-150h-101v132q-226 13 -226 249z" />
<glyph unicode="&#x4b9;" horiz-adv-x="598" d="M62 404v173h127v-174q0 -41 17.5 -64.5t46.5 -28.5v143h80v-131q29 9 50 36t21 57v162h126v-577h-126v258h-2q-21 -35 -69 -43v-141h-80v123q-85 4 -138 53.5t-53 153.5z" />
<glyph unicode="&#x4ba;" horiz-adv-x="730" d="M89 0v791h132v-359h2q28 32 78 56t113 24q115 0 186 -62.5t71 -189.5v-260h-132v271q0 64 -38.5 97.5t-104.5 33.5q-65 0 -120 -47t-55 -114v-241h-132z" />
<glyph unicode="&#x4bb;" horiz-adv-x="596" d="M69 0v577h126v-258h1q18 26 56 44.5t88 18.5q83 0 140 -50.5t57 -161.5v-170h-127v160q0 113 -91 113q-55 0 -89.5 -33.5t-34.5 -87.5v-152h-126z" />
<glyph unicode="&#x4bc;" horiz-adv-x="935" d="M20 505q0 54 9 99h135q-9 -50 -9 -87q0 -68 63 -68q15 167 107.5 263.5t235.5 96.5q153 0 244 -111t91 -292q0 -34 -3 -70h-537q13 -125 69 -183.5t139 -58.5q123 0 198 113l112 -45q-39 -81 -117.5 -130.5t-195.5 -49.5q-150 0 -238.5 98t-102.5 257q-200 9 -200 168z M355 448h402q-2 28 -6 45q-15 89 -61 146t-129 57q-89 0 -145.5 -71t-60.5 -177z" />
<glyph unicode="&#x4bd;" horiz-adv-x="748" d="M20 377q0 41 17 83h115q-8 -36 -8 -59q0 -42 46 -48q18 109 88 175t176 66q111 0 186 -82t75 -219q0 -33 -2 -48h-400q0 -63 39 -112t107 -49q92 0 141 84l105 -36q-27 -63 -90.5 -106.5t-157.5 -43.5q-114 0 -185 72.5t-84 188.5q-79 4 -123.5 39.5t-44.5 94.5zM313 334 h274q-1 68 -36.5 113.5t-96.5 45.5q-63 0 -101 -46t-40 -113z" />
<glyph unicode="&#x4be;" horiz-adv-x="935" d="M20 505q0 54 9 99h135q-9 -50 -9 -87q0 -68 63 -68q15 167 107.5 263.5t235.5 96.5q153 0 244 -111t91 -292q0 -40 -3 -70h-537q13 -126 69 -184t139 -58q123 0 198 113l112 -45q-33 -68 -95 -115t-152 -60v-207h-131v210q-123 20 -193.5 113t-82.5 234q-200 9 -200 168z M355 448h402l-6 42q-14 90 -60 148t-130 58q-89 0 -145.5 -71t-60.5 -177z" />
<glyph unicode="&#x4bf;" horiz-adv-x="748" d="M20 377q0 41 17 83h115q-8 -36 -8 -59q0 -42 46 -48q17 109 88 175t176 66q110 0 185.5 -81.5t75.5 -218.5q0 -11 -2 -49h-400q-2 -62 38 -111.5t108 -49.5q95 0 141 84l105 -36q-22 -52 -71.5 -92.5t-118.5 -51.5v-208h-131v212q-83 21 -134 88.5t-62 162.5 q-79 4 -123.5 39.5t-44.5 94.5zM313 334h274q0 64 -35 111.5t-98 47.5q-65 0 -101.5 -47t-39.5 -112z" />
<glyph unicode="&#x4c0;" horiz-adv-x="308" d="M89 0v791h132v-791h-132z" />
<glyph unicode="&#x4c1;" horiz-adv-x="930" d="M-2 0l308 417l-295 374h161l226 -301v301h132v-301l224 301h161l-293 -374l312 -417h-164l-240 337v-337h-132v337l-240 -337h-160zM284 1030h94q3 -35 26 -58t60 -23q38 0 61 23.5t26 57.5h94q-3 -63 -46.5 -113.5t-134.5 -50.5q-48 0 -84 15.5t-55.5 41t-29.5 52.5 t-11 55z" />
<glyph unicode="&#x4c2;" horiz-adv-x="768" d="M0 0l249 301l-242 276h149l163 -185v185h127v-184l164 184h148l-241 -276l253 -301h-151l-173 206v-206h-127v205l-173 -205h-146zM203 833h94q3 -35 26 -58t60 -23q38 0 61 23.5t26 57.5h94q-3 -63 -46.5 -113.5t-134.5 -50.5q-48 0 -84 15.5t-55.5 41t-29.5 52.5 t-11 55z" />
<glyph unicode="&#x4c3;" horiz-adv-x="716" d="M89 0v791h131v-340h3l308 340h168l-349 -374q36 5 79 2q43 -4 84.5 -24t78.5 -58t60 -103t23 -149q0 -161 -81 -243t-226 -82q-73 0 -140 13v115q75 -16 139 -16q82 0 126.5 57.5t44.5 156.5q0 110 -56 170t-148 60q-44 0 -114 -13v-303h-131z" />
<glyph unicode="&#x4c4;" horiz-adv-x="586" d="M69 0v577h126v-213l221 213h163l-264 -260q26 0 53 -5q88 -21 133 -90t45 -176q0 -135 -75 -210.5t-198 -75.5q-53 0 -111 12v110q51 -14 106 -14q66 0 107 46t41 132q0 81 -42.5 129.5t-117.5 48.5q-27 0 -61 -10v-214h-126z" />
<glyph unicode="&#x4c5;" horiz-adv-x="813" d="M10 -13v113q44 -6 77 -6q56 0 85.5 80t49.5 278l33 339h455v-791h-133v678h-204l-22 -243q-24 -250 -79 -351.5t-178 -101.5q-34 0 -84 5zM590 -225l84 334h119l-87 -334h-116z" />
<glyph unicode="&#x4c6;" horiz-adv-x="667" d="M10 -13v110q51 -7 61 -7q47 0 67 60.5t33 190.5l24 236h376v-577h-127v469h-137l-13 -143q-17 -185 -62 -264.5t-144 -79.5q-3 0 -78 5zM452 -225l84 334h119l-87 -334h-116z" />
<glyph unicode="&#x4c7;" horiz-adv-x="760" d="M89 0v791h132v-329h319v329h132v-838q0 -94 -56 -143.5t-156 -49.5q-57 0 -106 7v113q45 -8 87 -8q99 0 99 91v388h-319v-351h-132z" />
<glyph unicode="&#x4c8;" horiz-adv-x="614" d="M69 0v577h126v-226h224v226h126v-621q0 -95 -52.5 -145.5t-149.5 -50.5q-47 0 -101 6v113q51 -7 82 -7q95 0 95 90v281h-224v-243h-126z" />
<glyph unicode="&#x4c9;" horiz-adv-x="752" d="M89 0v791h131v-329h320v329h131v-791h-131v351h-320v-351h-131zM550 -225l84 334h119l-87 -334h-116z" />
<glyph unicode="&#x4ca;" horiz-adv-x="614" d="M69 0v577h126v-227h224v227h126v-577h-126v242h-224v-242h-126zM428 -225l84 334h119l-87 -334h-116z" />
<glyph unicode="&#x4cb;" horiz-adv-x="730" d="M67 530v261h133v-270q0 -64 38.5 -98t104.5 -34q65 0 120 47t55 113v242h132v-791h-132v359h-2q-28 -32 -78 -56.5t-114 -24.5q-115 0 -186 62.5t-71 189.5zM455 110h112v-330h-112v330z" />
<glyph unicode="&#x4cc;" horiz-adv-x="594" d="M59 413v164h126v-155q0 -114 92 -114q55 0 89 33.5t34 88.5v147h125v-577h-125v262h-1q-18 -24 -54.5 -43t-89.5 -19q-83 0 -139.5 50.5t-56.5 162.5zM341 110h112v-330h-112v330z" />
<glyph unicode="&#x4cd;" horiz-adv-x="919" d="M89 0v791h161l139 -368q15 -41 38 -111.5t30 -91.5h4q50 145 71 203l136 368h163v-791h-130v359q0 90 14 244h-4l-57 -168l-145 -390h-98l-143 390l-59 169h-5q16 -144 16 -245v-359h-131zM711 -225l84 334h119l-87 -334h-116z" />
<glyph unicode="&#x4ce;" horiz-adv-x="737" d="M69 0v577h132l104 -246q28 -65 58 -146h3q40 103 58 146l104 246h132v-577h-118v231q0 59 5 127h-2l-28 -70l-108 -256h-89l-106 252l-30 72h-2q6 -68 6 -125v-231h-119zM545 -225l84 334h119l-87 -334h-116z" />
<glyph unicode="&#x4cf;" horiz-adv-x="308" d="M89 0v791h132v-791h-132z" />
<glyph unicode="&#x4d0;" horiz-adv-x="706" d="M-4 0l286 791h145l285 -791h-140l-65 196h-306l-65 -196h-140zM173 1032h94q3 -35 26 -58t60 -23q38 0 61 23.5t26 57.5h94q-3 -63 -46.5 -113.5t-134.5 -50.5q-48 0 -84 15.5t-55.5 41t-29.5 52.5t-11 55zM236 302h236l-67 205q-7 22 -15.5 49t-18 59.5t-14.5 48.5h-6 q-3 -10 -48 -157z" />
<glyph unicode="&#x4d1;" horiz-adv-x="589" d="M35 151q0 163 242 199q88 13 124 24v31q0 42 -30 66t-80 24q-95 0 -164 -78l-77 66q45 53 107.5 82.5t131.5 29.5q129 0 184 -62.5t55 -174.5v-358h-123v72q-18 -37 -62.5 -63.5t-104.5 -26.5q-95 0 -149 47t-54 122zM105 833h94q3 -35 26 -58t60 -23q38 0 61 23.5 t26 57.5h94q-3 -63 -46.5 -113.5t-134.5 -50.5q-48 0 -84 15.5t-55.5 41t-29.5 52.5t-11 55zM163 162q0 -32 25.5 -53.5t67.5 -21.5q60 0 102.5 40t42.5 105v53q-46 -11 -111 -21q-127 -20 -127 -102z" />
<glyph unicode="&#x4d2;" horiz-adv-x="708" d="M-4 0l286 791h145l285 -791h-140l-65 196h-306l-65 -196h-140zM169 892v127h134v-127h-134zM236 302h236l-67 205q-7 22 -15.5 49t-18 59.5t-14.5 48.5h-6q-3 -10 -48 -157zM403 892v127h133v-127h-133z" />
<glyph unicode="&#x4d3;" horiz-adv-x="589" d="M35 151q0 163 242 199q88 13 124 24v31q0 42 -30 66t-80 24q-95 0 -164 -78l-77 66q45 53 107.5 82.5t131.5 29.5q129 0 184 -62.5t55 -174.5v-358h-123v72q-18 -37 -62.5 -63.5t-104.5 -26.5q-95 0 -149 47t-54 122zM102 700v127h134v-127h-134zM163 162 q0 -32 25.5 -53.5t67.5 -21.5q60 0 102.5 40t42.5 105v53q-46 -11 -111 -21q-127 -20 -127 -102zM336 700v127h133v-127h-133z" />
<glyph unicode="&#x4d4;" horiz-adv-x="1029" d="M-5 0l424 791h569v-112h-361v-215h323v-111h-331v-241h379v-112h-502v196h-258l-103 -196h-140zM291 302h205v364h-10z" />
<glyph unicode="&#x4d5;" horiz-adv-x="956" d="M32 154q0 79 63.5 129.5t188.5 68.5q80 12 114 21v34q0 38 -31 63t-77 25q-95 0 -167 -78l-77 65q93 112 244 112q130 0 188 -85q68 85 184 85q110 0 183.5 -84t73.5 -216q0 -28 -1 -49h-396v-15q4 -56 40 -101t103 -45q93 0 140 84l104 -36q-28 -64 -90.5 -107 t-154.5 -43q-70 0 -125.5 31.5t-89.5 86.5q-86 -118 -214 -118q-94 0 -148.5 47.5t-54.5 124.5zM160 162q0 -30 25 -52.5t66 -22.5q61 0 104 41t43 102v55q-70 -15 -102 -20q-136 -19 -136 -103zM522 334h269q1 67 -36 113t-92 46q-59 0 -93.5 -38.5t-45.5 -97.5z" />
<glyph unicode="&#x4d6;" horiz-adv-x="649" d="M89 0v791h519v-113h-387v-214h349v-111h-349v-241h397v-112h-529zM164 1032h94q3 -35 26 -58t60 -23q38 0 61 23.5t26 57.5h94q-3 -63 -46.5 -113.5t-134.5 -50.5q-48 0 -84 15.5t-55.5 41t-29.5 52.5t-11 55z" />
<glyph unicode="&#x4d7;" horiz-adv-x="601" d="M36 291q0 139 76.5 221.5t192.5 82.5q114 0 188 -83t74 -216q0 -26 -3 -51h-400q0 -66 39.5 -113.5t108.5 -47.5q48 0 84.5 23.5t55.5 60.5l106 -36q-28 -64 -91 -107t-157 -43q-121 0 -197.5 84t-76.5 225zM123 833h94q3 -35 26 -58t60 -23q38 0 61 23.5t26 57.5h94 q-3 -63 -46.5 -113.5t-134.5 -50.5q-48 0 -84 15.5t-55.5 41t-29.5 52.5t-11 55zM166 334h272q0 66 -35 112.5t-98 46.5t-100.5 -47.5t-38.5 -111.5z" />
<glyph unicode="&#x4d8;" horiz-adv-x="760" d="M32 386q0 38 3 68h536q-10 116 -65.5 179t-142.5 63q-121 0 -197 -112l-112 45q45 88 125.5 134t185.5 46q164 0 255.5 -116t91.5 -299q0 -184 -97 -298t-249 -114q-153 0 -243.5 111.5t-90.5 292.5zM171 341q0 -13 1 -19q8 -95 56.5 -161.5t139.5 -66.5q82 0 141 66 t63 181h-401z" />
<glyph unicode="&#x4d9;" d="M33 281q0 35 2 51h400q0 66 -39.5 113t-108.5 47q-49 0 -85 -24t-54 -60l-105 37q28 64 90 106.5t157 42.5q122 0 197.5 -84.5t75.5 -224.5q0 -139 -76 -221t-192 -82q-114 0 -188 83t-74 216zM160 243q0 -66 36 -113t99 -47q62 0 100 47t40 113h-275z" />
<glyph unicode="&#x4da;" horiz-adv-x="760" d="M32 386q0 38 3 68h536q-10 116 -65.5 179t-142.5 63q-121 0 -197 -112l-112 45q45 88 125.5 134t185.5 46q164 0 255.5 -116t91.5 -299q0 -184 -97 -298t-249 -114q-153 0 -243.5 111.5t-90.5 292.5zM171 341q0 -13 1 -19q8 -95 56.5 -161.5t139.5 -66.5q82 0 141 66 t63 181h-401zM194 892v127h134v-127h-134zM428 892v127h133v-127h-133z" />
<glyph unicode="&#x4db;" horiz-adv-x="596" d="M33 281q0 35 2 51h400q0 66 -39.5 113t-108.5 47q-49 0 -85 -24t-54 -60l-105 37q28 64 90 106.5t157 42.5q122 0 197.5 -84.5t75.5 -224.5q0 -139 -76 -221t-192 -82q-114 0 -188 83t-74 216zM117 700v127h134v-127h-134zM160 243q0 -66 36 -113t99 -47q62 0 100 47 t40 113h-275zM351 700v127h133v-127h-133z" />
<glyph unicode="&#x4dc;" horiz-adv-x="930" d="M-2 0l308 417l-295 374h161l226 -301v301h132v-301l224 301h161l-293 -374l312 -417h-164l-240 337v-337h-132v337l-240 -337h-160zM282 892v127h134v-127h-134zM516 892v127h133v-127h-133z" />
<glyph unicode="&#x4dd;" horiz-adv-x="768" d="M0 0l249 301l-242 276h149l163 -185v185h127v-184l164 184h148l-241 -276l253 -301h-151l-173 206v-206h-127v205l-173 -205h-146zM203 701v127h134v-127h-134zM437 701v127h133v-127h-133z" />
<glyph unicode="&#x4de;" horiz-adv-x="666" d="M43 161l105 38q27 -50 75 -79.5t101 -29.5q65 0 113 35.5t48 96.5t-51.5 99t-130.5 38q-25 0 -81 -4v108q26 -2 79 -2q65 0 110 34t45 92q0 49 -35.5 81.5t-96.5 32.5q-57 0 -92.5 -29t-58.5 -83l-113 34q71 186 270 186q118 0 189.5 -58t71.5 -152q0 -60 -34 -109 t-81 -73q57 -19 101.5 -68t44.5 -123q0 -115 -83.5 -179.5t-212.5 -64.5q-106 0 -178.5 48t-104.5 131zM156 891v128h134v-128h-134zM390 891v128h133v-128h-133z" />
<glyph unicode="&#x4df;" horiz-adv-x="533" d="M17 116l99 44q19 -29 56 -49.5t79 -20.5q45 0 80 19.5t35 57.5q0 35 -30.5 59t-95.5 24h-65v95h65q51 0 78 21t27 53t-23.5 50t-68.5 18q-36 0 -68.5 -20.5t-51.5 -52.5l-104 42q75 138 226 138q99 0 159.5 -46.5t60.5 -119.5q0 -79 -76 -123h1q41 -17 68.5 -52.5 t27.5 -86.5q0 -86 -69 -135t-174 -49q-81 0 -143.5 37.5t-92.5 96.5zM84 700v127h134v-127h-134zM318 700v127h133v-127h-133z" />
<glyph unicode="&#x4e0;" horiz-adv-x="661" d="M27 177l111 36q20 -50 63.5 -87t108.5 -37q70 0 115.5 43.5t45.5 113.5q0 71 -47 115.5t-138 44.5h-117v87l203 189h-315v109h506v-78l-230 -214q74 -3 131 -29q63 -29 100.5 -85.5t37.5 -138.5q0 -115 -77.5 -190t-206.5 -75q-214 0 -291 196z" />
<glyph unicode="&#x4e1;" horiz-adv-x="603" d="M24 -35l112 36q13 -51 46.5 -88t93.5 -37q65 0 102 47.5t37 111.5q0 68 -41.5 114t-123.5 46h-87v86l173 191h-282v107h452v-78l-192 -213q109 -10 170 -82t61 -171q0 -113 -72.5 -190t-197.5 -77q-103 0 -166 56t-85 141z" />
<glyph unicode="&#x4e2;" horiz-adv-x="764" d="M89 0v791h132v-394q0 -90 -7 -186h4l65 119l257 461h136v-791h-131v391q0 96 8 186h-5l-66 -124l-257 -453h-136zM195 896v87h385v-87h-385z" />
<glyph unicode="&#x4e3;" horiz-adv-x="621" d="M69 0v577h127v-250q0 -55 -8 -146h3l60 103l177 293h124v-577h-126v233q0 82 10 154h-2l-50 -88l-190 -299h-125zM123 701v87h385v-87h-385z" />
<glyph unicode="&#x4e4;" horiz-adv-x="764" d="M89 0v791h132v-394q0 -90 -7 -186h4l65 119l257 461h136v-791h-131v391q0 96 8 186h-5l-66 -124l-257 -453h-136zM207 892v127h134v-127h-134zM441 892v127h133v-127h-133z" />
<glyph unicode="&#x4e5;" horiz-adv-x="621" d="M69 0v577h127v-250q0 -55 -8 -146h3l60 103l177 293h124v-577h-126v233q0 82 10 154h-2l-50 -88l-190 -299h-125zM132 700v127h134v-127h-134zM366 700v127h133v-127h-133z" />
<glyph unicode="&#x4e6;" horiz-adv-x="763" d="M42 395q0 186 93 300t247 114t246.5 -113.5t92.5 -300.5t-93 -300t-246 -113q-154 0 -247 113t-93 300zM178 395q0 -139 54.5 -219.5t149.5 -80.5q94 0 148.5 80t54.5 220q0 138 -53.5 219.5t-149.5 81.5q-95 0 -149.5 -81.5t-54.5 -219.5zM197 892v127h134v-127h-134z M431 892v127h133v-127h-133z" />
<glyph unicode="&#x4e7;" horiz-adv-x="604" d="M36 288q0 129 68 218t199 89q130 0 198 -89t68 -218q0 -40 -7.5 -80t-26.5 -81.5t-48 -73t-76.5 -51.5t-107.5 -20q-59 0 -106.5 19.5t-77 50t-49 72t-27 82t-7.5 82.5zM117 700v127h134v-127h-134zM166 288q0 -100 41 -149t96 -49q54 0 95 49t41 149q0 102 -41 150.5 t-95 48.5t-95.5 -48.5t-41.5 -150.5zM351 700v127h133v-127h-133z" />
<glyph unicode="&#x4e8;" horiz-adv-x="763" d="M42 395q0 186 93 300t247 114t247 -113.5t93 -300.5t-93.5 -300t-246.5 -113q-154 0 -247 112.5t-93 300.5zM181 442h402q-8 116 -60.5 185t-140.5 69q-87 0 -140 -68t-61 -186zM182 339q9 -113 62 -178.5t138 -65.5t138 65t62 179h-400z" />
<glyph unicode="&#x4e9;" horiz-adv-x="604" d="M36 288q0 129 68 217.5t199 88.5q130 0 197.5 -88.5t67.5 -217.5q0 -40 -7 -80t-26 -81.5t-48 -73t-76.5 -51.5t-107.5 -20q-59 0 -106.5 19.5t-77 50t-49 71.5t-27 82t-7.5 83zM170 243q5 -74 43.5 -116t89.5 -42t88 42t44 116h-265zM171 337h263q-8 74 -43.5 114.5 t-87.5 40.5q-53 0 -89 -40.5t-43 -114.5z" />
<glyph unicode="&#x4ea;" horiz-adv-x="763" d="M42 395q0 186 93 300t247 114t247 -113.5t93 -300.5t-93.5 -300t-246.5 -113q-154 0 -247 112.5t-93 300.5zM181 442h402q-8 116 -60.5 185t-140.5 69q-87 0 -140 -68t-61 -186zM182 339q9 -113 62 -178.5t138 -65.5t138 65t62 179h-400zM198 892v127h134v-127h-134z M432 892v127h133v-127h-133z" />
<glyph unicode="&#x4eb;" horiz-adv-x="604" d="M36 288q0 129 68 217.5t199 88.5q130 0 197.5 -88.5t67.5 -217.5q0 -40 -7 -80t-26 -81.5t-48 -73t-76.5 -51.5t-107.5 -20q-59 0 -106.5 19.5t-77 50t-49 71.5t-27 82t-7.5 83zM117 700v127h134v-127h-134zM170 243q5 -74 43.5 -116t89.5 -42t88 42t44 116h-265z M171 337h263q-8 74 -43.5 114.5t-87.5 40.5q-53 0 -89 -40.5t-43 -114.5zM351 700v127h133v-127h-133z" />
<glyph unicode="&#x4ec;" horiz-adv-x="714" d="M22 189l118 37q21 -51 69 -91t113 -40q89 0 145 67.5t66 182.5h-327v104h327q-10 111 -65 179t-146 68q-59 0 -97.5 -31.5t-70.5 -83.5l-112 37q34 81 107 136t172 55q159 0 255 -113.5t96 -299.5q0 -187 -97 -300.5t-254 -113.5q-61 0 -113 19.5t-88 52t-59.5 65.5 t-38.5 70zM157 892v127h134v-127h-134zM391 892v127h133v-127h-133z" />
<glyph unicode="&#x4ed;" horiz-adv-x="552" d="M18 153l107 30q13 -36 46 -66t79 -30q54 0 89.5 43t41.5 110h-200v94h201q-8 69 -42 112t-91 43q-41 0 -70 -27.5t-42 -64.5l-105 30q19 68 76 117.5t143 49.5q126 0 196 -87t70 -218q0 -134 -71.5 -220.5t-194.5 -86.5q-86 0 -149.5 53.5t-83.5 117.5zM76 700v127h134 v-127h-134zM310 700v127h133v-127h-133z" />
<glyph unicode="&#x4ee;" horiz-adv-x="649" d="M-1 791h139l136 -294q11 -23 54 -125h2q34 82 52 122l128 297h135l-277 -629q-74 -168 -224 -168h-48v113h26q47 0 73 17t48 68l19 49zM130 896v87h385v-87h-385z" />
<glyph unicode="&#x4ef;" horiz-adv-x="560" d="M7 577h139l99 -297q25 -82 38 -133h4q5 18 37 133l91 297h138l-239 -653q-32 -88 -82.5 -124t-125.5 -36h-39v106h18q45 0 73.5 19.5t45.5 67.5l19 57zM84 701v87h385v-87h-385z" />
<glyph unicode="&#x4f0;" horiz-adv-x="649" d="M-1 791h139l136 -294q11 -23 54 -125h2q34 82 52 122l128 297h135l-277 -629q-74 -168 -224 -168h-48v113h26q47 0 73 17t48 68l19 49zM139 892v127h134v-127h-134zM373 892v127h133v-127h-133z" />
<glyph unicode="&#x4f1;" horiz-adv-x="541" d="M7 577h139l99 -297q25 -82 38 -133h4q5 18 37 133l91 297h138l-239 -653q-32 -88 -82.5 -124t-125.5 -36h-39v106h18q45 0 73.5 19.5t45.5 67.5l19 57zM90 700v127h134v-127h-134zM324 700v127h133v-127h-133z" />
<glyph unicode="&#x4f2;" horiz-adv-x="649" d="M-1 791h139l136 -294q11 -23 54 -125h2q34 82 52 122l128 297h135l-277 -629q-74 -168 -224 -168h-48v113h26q47 0 73 17t48 68l19 49zM161 869l109 198h140l-141 -198h-108zM351 869l109 198h140l-141 -198h-108z" />
<glyph unicode="&#x4f3;" horiz-adv-x="544" d="M7 577h139l99 -297q25 -82 38 -133h4q5 18 37 133l91 297h138l-239 -653q-32 -88 -82.5 -124t-125.5 -36h-39v106h18q45 0 73.5 19.5t45.5 67.5l19 57zM105 670l109 198h140l-141 -198h-108zM295 670l109 198h140l-141 -198h-108z" />
<glyph unicode="&#x4f4;" horiz-adv-x="731" d="M68 530v261h133v-270q0 -64 38.5 -98t104.5 -34q65 0 120 47t55 113v242h132v-791h-132v359h-2q-28 -32 -78 -56.5t-114 -24.5q-115 0 -186 62.5t-71 189.5zM175 892v127h134v-127h-134zM409 892v127h133v-127h-133z" />
<glyph unicode="&#x4f5;" horiz-adv-x="594" d="M59 413v164h126v-155q0 -114 92 -114q55 0 89 33.5t34 88.5v147h125v-577h-125v262h-1q-18 -24 -54.5 -43t-89.5 -19q-83 0 -139.5 50.5t-56.5 162.5zM110 700v127h134v-127h-134zM344 700v127h133v-127h-133z" />
<glyph unicode="&#x4f6;" horiz-adv-x="607" d="M89 0v791h492v-113h-361v-678h-131zM190 110h112v-330h-112v330z" />
<glyph unicode="&#x4f7;" horiz-adv-x="483" d="M69 0v577h397v-108h-270v-469h-127zM166 110h112v-330h-112v330z" />
<glyph unicode="&#x4f8;" horiz-adv-x="936" d="M89 0v791h131v-326h118q290 0 290 -235q0 -103 -69.5 -166.5t-180.5 -63.5h-289zM220 112h145q58 0 92.5 30t34.5 88q0 123 -134 123h-138v-241zM289 892v127h134v-127h-134zM523 892v127h133v-127h-133zM717 0v791h132v-791h-132z" />
<glyph unicode="&#x4f9;" horiz-adv-x="785" d="M69 0v577h128v-224h104q211 0 211 -179q0 -76 -52 -125t-148 -49h-243zM197 103h105q80 0 80 72q0 75 -82 75h-103v-147zM218 700v127h134v-127h-134zM452 700v127h133v-127h-133zM586 0v577h126v-577h-126z" />
<glyph unicode="&#x4fa;" horiz-adv-x="606" d="M16 344v105h73v342h498v-113h-367v-229h220v-105h-220v-237h76v-131q0 -202 -167 -202q-22 0 -46 3v102q22 -4 33 -4q71 0 71 75v50h-98v344h-73z" />
<glyph unicode="&#x4fb;" horiz-adv-x="485" d="M15 228v103h54v246h397v-108h-270v-138h184v-103h-184v-121h80v-131q0 -202 -166 -202q-23 0 -47 3v102q22 -4 33 -4q71 0 71 78v47h-98v228h-54z" />
<glyph unicode="&#x4fc;" horiz-adv-x="689" d="M2 0l253 406l-240 385h156l96 -172q9 -17 30.5 -55.5t32.5 -59.5h4q3 6 65 115l97 172h155l-241 -385l254 -406h-153l-108 185q-14 23 -69 120h-4q-58 -104 -67 -120l-107 -185h-154zM458 -122q22 -4 33 -4q36 0 53.5 21.5t17.5 74.5v139h109v-139q0 -109 -43.5 -153.5 t-122.5 -44.5q-23 0 -47 3v103z" />
<glyph unicode="&#x4fd;" horiz-adv-x="593" d="M6 0l205 296l-195 281h153l74 -125q28 -50 40 -70h4q16 29 39 70l74 125h154l-195 -281l206 -296h-150l-85 139q-8 13 -22 36t-21 36h-4q-4 -7 -43 -72l-85 -139h-149zM363 -122q22 -4 33 -4q36 0 53.5 21.5t17.5 74.5v139h109v-139q0 -109 -43.5 -153.5t-122.5 -44.5 q-23 0 -47 3v103z" />
<glyph unicode="&#x4fe;" horiz-adv-x="660" d="M2 0l219 353h-132v103h134l-208 335h154l102 -183q35 -67 58 -109h4q12 23 62 109l98 183h155l-210 -335h135v-103h-132l220 -353h-155l-112 200q-11 20 -34 61.5t-27 48.5h-4q-10 -19 -30.5 -56t-29.5 -54l-114 -200h-153z" />
<glyph unicode="&#x4ff;" horiz-adv-x="572" d="M6 0l171 247h-117v103h114l-158 227h154l73 -124q6 -11 20 -35.5t20 -35.5h4q19 34 41 72l72 123h154l-157 -227h118v-103h-121l171 -247h-150l-84 138q-39 64 -44 73h-4q-22 -39 -43 -73l-85 -138h-149z" />
<glyph unicode="&#x2000;" horiz-adv-x="564" />
<glyph unicode="&#x2001;" horiz-adv-x="1129" />
<glyph unicode="&#x2002;" horiz-adv-x="564" />
<glyph unicode="&#x2003;" horiz-adv-x="1129" />
<glyph unicode="&#x2004;" horiz-adv-x="376" />
<glyph unicode="&#x2005;" horiz-adv-x="282" />
<glyph unicode="&#x2006;" horiz-adv-x="188" />
<glyph unicode="&#x2007;" horiz-adv-x="188" />
<glyph unicode="&#x2008;" horiz-adv-x="141" />
<glyph unicode="&#x2009;" horiz-adv-x="225" />
<glyph unicode="&#x200a;" horiz-adv-x="62" />
<glyph unicode="&#x2010;" d="M52 334v112h496v-112h-496z" />
<glyph unicode="&#x2011;" d="M52 334v112h496v-112h-496z" />
<glyph unicode="&#x2012;" d="M52 334v112h496v-112h-496z" />
<glyph unicode="&#x2013;" horiz-adv-x="527" d="M36 325v112h456v-112h-456z" />
<glyph unicode="&#x2014;" horiz-adv-x="1027" d="M0 325v112h1028v-112h-1028z" />
<glyph unicode="&#x2018;" horiz-adv-x="379" d="M107 560v111q0 166 114 249l66 -55q-41 -31 -57.5 -65.5t-16.5 -91.5h71v-148h-177z" />
<glyph unicode="&#x2019;" horiz-adv-x="379" d="M93 575q41 31 57.5 65.5t16.5 91.5h-71v147h177v-111q0 -165 -114 -248z" />
<glyph unicode="&#x201a;" horiz-adv-x="379" d="M93 -150q41 31 57.5 65.5t16.5 91.5h-71v147h177v-110q0 -166 -114 -249z" />
<glyph unicode="&#x201c;" horiz-adv-x="592" d="M83 560v111q0 175 115 258l65 -55q-40 -30 -57 -69t-17 -97h70v-148h-176zM342 560v111q0 166 115 249l65 -55q-41 -31 -57 -65.5t-16 -91.5h70v-148h-177z" />
<glyph unicode="&#x201d;" horiz-adv-x="592" d="M71 575q41 31 57 65.5t16 91.5h-70v147h177v-111q0 -165 -115 -248zM331 566q41 32 57.5 70t16.5 96h-71v147h177v-111q0 -175 -115 -258z" />
<glyph unicode="&#x201e;" horiz-adv-x="592" d="M71 -150q41 31 57 65.5t16 91.5h-70v147h177v-110q0 -166 -115 -249zM331 -159q41 31 57 69t16 97h-70v147h177v-110q0 -175 -115 -258z" />
<glyph unicode="&#x2022;" horiz-adv-x="519" d="M142 263v234h236v-234h-236z" />
<glyph unicode="&#x2026;" horiz-adv-x="1042" d="M89 303v155h169v-155h-169zM437 303v155h169v-155h-169zM785 303v155h169v-155h-169z" />
<glyph unicode="&#x202f;" horiz-adv-x="225" />
<glyph unicode="&#x2039;" horiz-adv-x="403" d="M67 285l192 265l93 -61l-150 -204l149 -202l-92 -62z" />
<glyph unicode="&#x203a;" horiz-adv-x="403" d="M52 490l92 60l193 -264l-193 -265l-91 62l148 203z" />
<glyph unicode="&#x205f;" horiz-adv-x="282" />
<glyph unicode="&#x20ac;" horiz-adv-x="774" d="M19 262v94h86q-2 28 -2 40q0 6 1 20t1 21h-85v94h99q31 129 120.5 203.5t212.5 74.5q102 0 173.5 -53.5t106.5 -137.5l-112 -37q-63 116 -171 116q-66 0 -119 -45t-71 -121h256v-94h-273q-2 -26 -2 -41q0 -12 2 -40h272v-94h-254q20 -78 71 -123t120 -45q67 0 115.5 40 t68.5 92l118 -37q-33 -83 -109.5 -145.5t-192.5 -62.5q-121 0 -211.5 75.5t-119.5 205.5h-101z" />
<glyph unicode="&#x2122;" horiz-adv-x="864" d="M5 772v83h339v-83h-123v-365h-93v365h-123zM395 407v448h106l77 -214l28 -84l29 84l76 214h107v-448h-93v211q0 20 2 56l-87 -242h-68l-86 245q1 -19 1 -59v-211h-92z" />
<glyph unicode="&#x25fc;" horiz-adv-x="793" d="M101 106v572h591v-572h-591z" />
</font>
</defs>
</svg>
